<svg width="510" height="1355" viewBox="0 0 510 1355" fill="none" xmlns="http://www.w3.org/2000/svg">
<path d="M51.6698 0H174.361C195.243 0 212.154 16.894 212.154 37.7556V144.41C212.154 165.271 195.243 182.165 174.361 182.165H138.531L147.2 215.825L113.122 182.165H51.6698C30.7872 182.165 13.8761 165.271 13.8761 144.41V37.7556C13.8761 16.894 30.7872 0 51.6698 0Z" fill="#A1DBDB"/>
<path opacity="0.7" d="M51.6698 0H174.361C195.243 0 212.154 16.894 212.154 37.7556V144.41C212.154 165.271 195.243 182.165 174.361 182.165H138.531L147.2 215.825L113.122 182.165H51.6698C30.7872 182.165 13.8761 165.271 13.8761 144.41V37.7556C13.8761 16.894 30.7872 0 51.6698 0Z" fill="white"/>
<path d="M72.9366 658.057C72.9366 658.057 147.286 648.714 259.941 679.559C259.941 679.559 278.09 478.452 275.912 450.849C273.734 423.247 102.019 431.31 102.019 431.31C102.019 431.31 97.5773 511.813 86.5168 560.362C75.4562 608.911 67.2569 648.757 72.9366 658.057Z" fill="#A1DBDB"/>
<path opacity="0.2" d="M72.9366 658.057C72.9366 658.057 147.286 648.714 259.941 679.559C259.941 679.559 278.09 478.452 275.912 450.849C273.734 423.247 102.019 431.31 102.019 431.31C102.019 431.31 97.5773 511.813 86.5168 560.362C75.4562 608.911 67.2569 648.757 72.9366 658.057Z" fill="black"/>
<path d="M314.303 1323.84L283.982 1332.41L276.765 1285.27L272.879 1260.06L303.199 1251.48L308.367 1285.27L314.303 1323.84Z" fill="#E7D4CD"/>
<path d="M139.982 1326.31L108.723 1330.45L108.424 1285.27L108.21 1257.2L139.513 1253.1L139.726 1285.27L139.982 1326.31Z" fill="#E7D4CD"/>
<path opacity="0.2" d="M139.513 1253.1L139.727 1285.27H108.424L108.21 1257.2L139.513 1253.1Z" fill="black"/>
<path opacity="0.2" d="M308.367 1285.27H276.766L272.88 1260.06L303.2 1251.48L308.367 1285.27Z" fill="black"/>
<path d="M448.909 467.148L479.016 458.274L473.507 492.617C473.507 492.617 446.176 498.931 443.528 484.725L448.909 467.148Z" fill="#E7D4CD"/>
<path d="M509.037 466.252L494.261 494.153L473.507 492.617L478.973 458.274L509.037 466.252Z" fill="#E7D4CD"/>
<path d="M407.357 475.935L456.766 464.886L461.25 488.862L416.367 499.783L407.357 475.935Z" fill="#E7D4CD"/>
<path d="M257.719 454.306C257.719 454.306 258.787 455.586 260.623 457.762C266.858 465.057 282.104 482.676 297.734 497.864C310.545 510.235 323.527 521.029 331.983 523.205C356.196 529.433 444.211 503.538 444.211 503.538L435.115 467.872C435.115 467.872 353.122 478.751 346.759 478.751C341.933 478.751 292.054 406.568 279.968 400.638L257.719 454.306Z" fill="#A1DBDB"/>
<path opacity="0.2" d="M260.624 457.761C266.859 465.056 282.104 482.676 297.734 497.863C294.574 472.863 285.393 449.912 273.307 435.407C272.026 433.871 270.745 432.591 269.464 431.652L260.624 457.761Z" fill="black"/>
<path d="M313.921 1319.14L279.501 1318.2C278.219 1318.2 277.066 1319.01 276.725 1320.25L269.508 1347.94C268.739 1350.8 270.874 1353.61 273.864 1353.65C286.291 1353.78 304.269 1353.53 319.899 1353.95C338.134 1354.47 349.75 1353.57 371.188 1354.12C384.127 1354.47 388.184 1341.54 382.803 1340.22C358.334 1334.2 342.319 1335.4 321.479 1321.74C319.216 1320.25 316.696 1319.18 313.963 1319.1L313.921 1319.14Z" fill="#353535"/>
<path d="M316.868 1323.54C316.868 1323.54 316.911 1323.54 316.954 1323.54C321.993 1324.69 331.004 1326.14 334.548 1323.2C335.616 1322.3 336.128 1321.1 336.085 1319.61C336.085 1318.72 335.658 1318.03 334.932 1317.61C331.174 1315.35 318.278 1321.45 316.826 1322.13C316.527 1322.26 316.356 1322.56 316.399 1322.9C316.399 1323.2 316.612 1323.41 316.868 1323.49V1323.54ZM333.907 1318.8C333.907 1318.8 334.078 1318.89 334.164 1318.93C334.463 1319.1 334.591 1319.36 334.591 1319.74C334.591 1320.76 334.292 1321.53 333.609 1322.09C331.601 1323.75 326.391 1323.92 319.473 1322.56C324.555 1320.34 331.516 1317.91 333.865 1318.8H333.907Z" fill="#A1DBDB"/>
<path d="M316.867 1323.54C316.867 1323.54 317.251 1323.62 317.422 1323.54C321.308 1321.96 329.08 1315.35 328.61 1311.8C328.525 1310.95 327.927 1309.93 325.92 1309.67C324.383 1309.46 322.973 1309.88 321.735 1310.82C317.593 1313.98 316.44 1322.43 316.397 1322.77C316.397 1323.02 316.482 1323.28 316.696 1323.45C316.739 1323.49 316.824 1323.54 316.867 1323.54ZM326.475 1311.29C327.073 1311.51 327.116 1311.85 327.159 1311.97C327.415 1314.11 322.119 1319.31 318.148 1321.53C318.66 1319.06 319.941 1314.07 322.675 1311.97C323.614 1311.25 324.639 1310.95 325.749 1311.12C326.048 1311.12 326.304 1311.21 326.518 1311.29H326.475Z" fill="#A1DBDB"/>
<path d="M138.702 1319.14L104.282 1318.2C103.001 1318.2 101.848 1319.01 101.506 1320.25L94.2888 1347.94C93.5202 1350.8 95.6554 1353.61 98.6448 1353.65C111.072 1353.78 129.051 1353.53 144.68 1353.95C162.915 1354.47 174.531 1353.57 195.969 1354.12C208.908 1354.47 212.965 1341.54 207.585 1340.22C183.115 1334.2 167.1 1335.4 146.261 1321.74C143.997 1320.25 141.478 1319.18 138.745 1319.1L138.702 1319.14Z" fill="#353535"/>
<path d="M141.65 1323.54C141.65 1323.54 141.692 1323.54 141.735 1323.54C146.774 1324.69 155.785 1326.14 159.329 1323.2C160.397 1322.3 160.909 1321.1 160.867 1319.61C160.867 1318.72 160.44 1318.03 159.714 1317.61C155.956 1315.35 143.059 1321.45 141.607 1322.13C141.308 1322.26 141.137 1322.56 141.18 1322.9C141.18 1323.2 141.393 1323.41 141.65 1323.49V1323.54ZM158.689 1318.8C158.689 1318.8 158.86 1318.89 158.945 1318.93C159.244 1319.1 159.372 1319.36 159.372 1319.74C159.372 1320.76 159.073 1321.53 158.39 1322.09C156.383 1323.75 151.173 1323.92 144.255 1322.56C149.336 1320.34 156.297 1317.91 158.646 1318.8H158.689Z" fill="#A1DBDB"/>
<path d="M141.648 1323.54C141.648 1323.54 142.032 1323.62 142.203 1323.54C146.089 1321.96 153.861 1315.35 153.392 1311.8C153.306 1310.95 152.708 1309.93 150.701 1309.67C149.164 1309.46 147.755 1309.88 146.516 1310.82C142.374 1313.98 141.221 1322.43 141.178 1322.77C141.178 1323.02 141.264 1323.28 141.477 1323.45C141.52 1323.49 141.605 1323.54 141.648 1323.54ZM151.257 1311.29C151.854 1311.51 151.897 1311.85 151.94 1311.97C152.196 1314.11 146.901 1319.31 142.929 1321.53C143.442 1319.06 144.723 1314.07 147.456 1311.97C148.395 1311.25 149.42 1310.95 150.531 1311.12C150.829 1311.12 151.086 1311.21 151.299 1311.29H151.257Z" fill="#A1DBDB"/>
<path d="M75.497 639.713C58.9276 711.47 87.3689 1275.67 87.3689 1275.67H142.287L165.775 805.453L252.295 1275.67L311.014 1271.4C272.622 907.159 238.715 689.712 238.715 689.712L238.8 662.238L75.5397 639.756L75.497 639.713Z" fill="#29373E"/>
<path opacity="0.4" d="M310.973 1271.36L252.254 1275.63L184.182 905.495L165.777 805.453L142.289 1275.63H87.3706C87.3706 1275.63 58.9292 711.427 75.4987 639.713L238.759 662.196L238.674 689.67C238.674 689.67 272.581 907.116 310.973 1271.36Z" fill="white"/>
<path d="M105.048 374.06C107.013 409.213 105.518 444.238 102.443 476.874C100.18 500.765 96.9772 523.333 93.6035 543.682C85.7032 591.421 76.7352 627.214 75.454 639.714C99.3687 642.999 189.561 655.456 238.714 662.196C298.245 495.901 275.825 399.145 275.825 399.145C275.825 399.145 258.785 391.892 238.373 386.346C235.682 385.621 232.949 384.938 230.131 384.298C212.024 380.118 181.703 376.619 160.735 374.742C156.337 374.358 151.81 374.06 147.454 373.846C125.162 372.822 105.048 374.102 105.048 374.102V374.06Z" fill="#353535"/>
<path d="M192.465 299.23C191.269 322.054 188.835 364.887 169.831 375.765C169.831 375.765 181.661 398.248 207.241 400.552C226.586 402.301 225.305 383.231 225.305 383.231C214.116 374.87 216.806 360.749 225.305 344.836L192.422 299.23H192.465Z" fill="#E7D4CD"/>
<path opacity="0.2" d="M205.831 317.831L225.305 344.793C223.255 348.547 221.461 352.43 220.18 356.312C211.169 352.728 200.92 339.418 202.372 329.478C203.098 324.529 204.465 319.879 205.831 317.831Z" fill="black"/>
<path d="M275.698 253.327C279.414 265.187 277.364 289.504 260.837 281.569C244.31 273.634 269.292 232.977 275.698 253.327Z" fill="#29373E"/>
<path d="M190.33 269.325C188.494 299.743 185.889 317.49 199.341 334.725C219.54 360.621 258.657 350.979 269.59 321.628C279.412 295.221 280.736 249.871 252.508 234.556C224.707 219.454 192.166 238.95 190.33 269.368V269.325Z" fill="#E7D4CD"/>
<path d="M211.682 252.771V218.77C211.682 218.77 175.468 216.082 177.048 234.597C156.977 244.538 166.457 275.723 193.404 290.996C208.18 279.179 206.472 250.766 206.472 250.766C208.052 251.491 209.803 252.131 211.639 252.771H211.682Z" fill="#353535"/>
<path d="M175.596 293.087C177.048 301.15 182.129 307.763 187.766 311.474C196.265 317.063 203.653 310.195 203.952 300.596C204.208 291.935 200.151 278.582 190.371 276.876C180.72 275.169 173.887 283.872 175.596 293.087Z" fill="#E7D4CD"/>
<path d="M235.299 282.891C235 285.366 236.067 287.499 237.69 287.669C239.313 287.84 240.85 286.006 241.149 283.531C241.448 281.057 240.38 278.924 238.758 278.753C237.135 278.583 235.597 280.417 235.299 282.891Z" fill="#353535"/>
<path d="M263.226 286.006C262.927 288.48 263.995 290.613 265.618 290.784C267.24 290.954 268.778 289.12 269.077 286.646C269.376 284.171 268.308 282.038 266.685 281.867C265.063 281.697 263.525 283.531 263.226 286.006Z" fill="#353535"/>
<path d="M254.172 286.261C254.172 286.261 258.272 300.552 263.695 307.89C258.912 311.26 251.695 308.573 251.695 308.573L254.172 286.261Z" fill="#DDB0A2"/>
<path d="M237.347 316.508C238.329 316.764 239.397 316.935 240.55 317.063C240.934 317.105 241.318 316.807 241.361 316.423C241.404 316.039 241.105 315.655 240.721 315.612C229.874 314.375 225.731 306.312 225.689 306.227C225.518 305.885 225.091 305.715 224.706 305.885C224.322 306.056 224.194 306.483 224.365 306.867C224.535 307.208 228.08 314.162 237.347 316.508Z" fill="#353535"/>
<path d="M227.784 272.95C228.296 273.078 228.809 272.95 229.193 272.524C233.72 267.831 239.015 268.727 239.058 268.727C239.869 268.855 240.638 268.343 240.766 267.575C240.937 266.807 240.381 266.039 239.613 265.868C239.314 265.826 232.695 264.674 227.058 270.518C226.502 271.116 226.502 272.012 227.058 272.566C227.228 272.737 227.485 272.865 227.698 272.907L227.784 272.95Z" fill="#353535"/>
<path d="M276.422 277.772C276.678 277.857 276.977 277.815 277.276 277.772C278.045 277.516 278.429 276.663 278.173 275.895C275.525 268.301 269.034 266.723 268.735 266.595C267.966 266.424 267.155 266.893 266.942 267.661C266.728 268.429 267.198 269.24 268.009 269.41C268.265 269.453 273.305 270.775 275.397 276.876C275.568 277.345 275.952 277.687 276.422 277.815V277.772Z" fill="#353535"/>
<path d="M195.583 265.4C195.583 265.4 216.807 257.635 226.672 245.263C226.672 245.263 246.06 250.34 250.031 258.19C250.031 258.19 256.736 252.558 251.739 245.263C251.739 245.263 266.259 248.335 269.12 258.19C269.12 258.19 276.38 255.715 275.91 245.263C275.91 245.263 282.359 247.695 284.409 258.19C284.409 258.19 300.466 224.871 247.554 215.315C247.554 215.315 251.739 213.566 259.939 213.224C259.939 213.224 223.042 198.335 193.746 211.987C164.451 225.596 169.832 251.79 195.583 265.442V265.4Z" fill="#353535"/>
<path d="M62.8583 668.424L114.061 675.25C114.061 675.25 135.2 527.683 144.51 480.03V378.239L117.734 371.2L97.1075 378.239C92.1537 394.749 87.7979 416.422 83.9971 440.525C81.4776 456.481 79.2142 473.546 77.2071 490.823C74.4313 514.373 72.1252 538.349 70.1608 560.789C67.0861 597.008 65.0362 629.09 63.9259 648.629C63.1999 661.086 62.8583 668.424 62.8583 668.424Z" fill="#A1DBDB"/>
<path d="M144.51 479.987C144.51 479.987 140.24 408.188 117.734 371.158C117.734 371.158 118.29 360.577 122.816 358.871C127.3 357.165 144.51 367.318 144.51 367.318C144.51 367.318 155.229 360.023 157.621 363.393C160.012 366.763 165.692 389.587 144.51 480.03V479.987Z" fill="#A1DBDB"/>
<path opacity="0.7" d="M144.51 479.987C144.51 479.987 140.24 408.188 117.734 371.158C117.734 371.158 118.29 360.577 122.816 358.871C127.3 357.165 144.51 367.318 144.51 367.318C144.51 367.318 155.229 360.023 157.621 363.393C160.012 366.763 165.692 389.587 144.51 480.03V479.987Z" fill="white"/>
<path d="M261.05 688.176L255.199 692.4C255.199 692.4 263.655 644.832 260.238 524.526C260.067 518.724 259.854 513.135 259.64 507.803C255.284 406.012 239.484 387.497 238.459 386.388L253.235 391.422L280.01 400.637C287.911 487.496 261.05 688.176 261.05 688.176Z" fill="#A1DBDB"/>
<path d="M258.699 490.269C258.699 490.269 273.475 420.517 269.077 396.456C264.678 372.395 248.92 383.103 248.92 383.103C248.92 383.103 234.443 371.413 230.13 384.297C230.13 384.297 250.03 398.29 258.699 490.311V490.269Z" fill="#A1DBDB"/>
<path opacity="0.7" d="M258.699 490.269C258.699 490.269 273.475 420.517 269.077 396.456C264.678 372.395 248.92 383.103 248.92 383.103C248.92 383.103 234.443 371.413 230.13 384.297C230.13 384.297 250.03 398.29 258.699 490.311V490.269Z" fill="white"/>
<path opacity="0.2" d="M77.2078 490.824C99.0726 478.581 101.977 446.627 101.977 446.627C100.653 446.115 92.5388 443.342 83.9979 440.526C81.4783 456.482 79.2149 473.546 77.2078 490.824Z" fill="black"/>
<path opacity="0.2" d="M184.182 905.495L165.776 805.454L169.321 752.511C169.321 752.511 194.559 844.319 184.182 905.495Z" fill="black"/>
<path opacity="0.2" d="M63.9248 648.629C77.6757 647.691 89.5903 646.795 89.5903 646.795L92.1953 590.951C92.1953 590.951 87.754 587.239 77.8038 588.306C77.8038 588.306 73.3198 577.384 70.1597 560.789C67.0849 597.009 65.0351 629.09 63.9248 648.629Z" fill="black"/>
<path d="M59.23 560.705L86.0059 603.665L64.8243 615.824L39.6712 577.13L59.23 560.705Z" fill="#E7D4CD"/>
<path d="M98.1759 377.687C80.1545 379.649 3.54215 484.682 0.168472 516.337C-3.2052 547.992 45.1793 602.641 45.1793 602.641L77.5068 583.657C77.5068 583.657 44.6669 533.274 43.0014 519.835C41.3359 506.397 103.002 451.278 103.002 451.278C103.002 451.278 109.749 435.066 110.603 411.773C111.457 388.48 98.2186 377.729 98.2186 377.729L98.1759 377.687Z" fill="#A1DBDB"/>
<path d="M92.2399 590.952C92.2399 590.952 64.6953 596.839 53.5921 614.16C53.5921 614.16 65.0797 650.209 73.3217 654.134C81.5637 658.059 102.019 658.059 102.019 658.059C102.019 658.059 103.343 617.957 92.2399 590.952Z" fill="#A1DBDB"/>
</svg>
