<svg width="1248" height="1101" viewBox="0 0 1248 1101" fill="none" xmlns="http://www.w3.org/2000/svg">
<g style="mix-blend-mode:multiply">
<path d="M1097.37 1084.85C1097.37 1084.85 1157.94 596.56 1061.14 568.076C957.447 537.56 1042.17 1084.85 1042.17 1084.85H1097.37Z" fill="#81DCDC"/>
</g>
<path d="M1058.78 630.006C1058.78 630.006 1071.24 785.217 1053.2 959.047" stroke="white" stroke-miterlimit="10" stroke-linecap="round"/>
<g style="mix-blend-mode:multiply">
<path d="M1175.67 1082.76C1175.97 1082.76 1190.14 785.513 1309.77 706.539V1082.76H1175.67Z" fill="#81DCDC"/>
</g>
<path d="M1291.94 844.619C1291.94 844.619 1253.07 934.244 1237.92 1082.73" stroke="white" stroke-miterlimit="10" stroke-linecap="round"/>
<g style="mix-blend-mode:multiply">
<path d="M770.932 1082.76C770.932 1082.76 743.316 925.653 692.582 938.147C634.936 952.348 737.326 1082.76 737.326 1082.76H770.932Z" fill="#81DCDC"/>
</g>
<g style="mix-blend-mode:multiply">
<path d="M1083.31 1082.76C1083.31 1082.76 1097.7 860.394 1160.36 772.422C1160.36 772.422 1224.35 895.978 1143.45 1081.52L1083.31 1082.76Z" fill="#81DCDC"/>
</g>
<path d="M84.3117 1082.76H319.445V1039.34H84.3117V1082.76Z" fill="#EAECE6"/>
<path d="M110.329 1039.35H293.428V1013.98H110.329V1039.35Z" fill="#EAECE6"/>
<path d="M265.597 972.623H602.958C607.511 972.623 610.844 968.287 609.625 963.896L541.708 714.019C539.134 704.588 530.596 698.057 520.813 698.057H183.452C178.899 698.057 175.565 702.393 176.785 706.783L244.702 956.66C247.276 966.092 255.813 972.623 265.597 972.623Z" fill="#ECD7D1"/>
<path d="M254.73 972.623H592.091C596.644 972.623 599.977 968.287 598.758 963.896L530.841 714.019C528.266 704.588 519.729 698.057 509.946 698.057H172.585C168.032 698.057 164.698 702.393 165.918 706.783L233.834 956.66C236.409 966.092 244.946 972.623 254.73 972.623Z" fill="url(#paint0_linear_502_3573)"/>
<path d="M413.845 840.992L463.956 1043.66C467.534 1058.08 480.461 1068.21 495.34 1068.21H536.534C540.545 1068.21 543.798 1071.46 543.798 1075.48C543.798 1079.49 540.545 1082.74 536.534 1082.74H473.631H459.457H428.128C414.984 1082.74 403.574 1073.74 400.484 1060.95L348.558 844.488C347.446 839.8 350.97 835.301 355.794 835.301H406.609C410.024 835.301 413.005 837.632 413.818 840.965L413.845 840.992Z" fill="url(#paint1_linear_502_3573)"/>
<path d="M8.94353 1100.65H1309.77V1082.76H8.94353C4.01104 1082.76 0 1086.77 0 1091.71C0 1096.64 4.01104 1100.65 8.94353 1100.65Z" fill="#353535"/>
<g style="mix-blend-mode:multiply">
<path d="M857.144 1082.77C857.144 1082.77 861.887 839.583 764.267 746.543C764.267 746.543 718.817 861.21 787.601 1082.77H857.117H857.144Z" fill="#81DCDC"/>
</g>
<path d="M786.898 819.986C786.898 819.986 779.77 917.417 814.379 1062.6" stroke="white" stroke-miterlimit="10" stroke-linecap="round"/>
<path d="M913.783 687.353L915.68 711.799L916.304 719.794L918.282 745.567L972.268 746.543L966.143 693.153L962.945 665.618L961.428 652.338L913.783 687.353Z" fill="#EBCFC9"/>
<path d="M915.679 711.794L916.303 719.789C948.066 719.789 962.619 676.129 963.758 672.606L962.945 665.613C946.548 700.005 915.652 711.794 915.652 711.794H915.679Z" fill="#ECD4CE"/>
<path d="M620.626 787.681C620.626 787.681 595.421 759.658 575.177 757.544C567.724 756.758 580.38 772.558 580.38 772.558H495.254C495.254 772.558 498.425 783.02 504.739 787.681C511.054 792.342 580.353 812.831 580.353 812.831L620.599 787.681H620.626Z" fill="#EBCFC9"/>
<path d="M878.549 590.976C871.205 596.586 858.982 602.955 857.22 612.007C855.649 620.111 872.018 647.05 864.267 657.457C849.876 676.78 879.498 704.044 889.986 711.28C915.245 728.68 980.045 677.43 958.12 610.977C941.452 560.487 899.824 574.742 878.522 590.976H878.549Z" fill="#EBCFC9"/>
<path d="M954.921 582.17C954.921 582.17 886.924 629.246 853.372 609.218C819.82 589.19 851.664 549.648 851.664 549.648C851.664 549.648 859.117 563.497 883.536 555.475C907.981 547.426 953.133 542.385 954.894 582.17H954.921Z" fill="#0A0A0F"/>
<path d="M925.684 577.211C925.684 577.211 941.728 554.148 963.246 567.671C979.616 577.97 976.066 635.1 961.295 656.863C961.295 656.863 960.916 589.705 925.684 577.211Z" fill="#0A0A0F"/>
<path d="M914.514 591.653C914.514 591.653 927.956 624.066 943.323 632.17C943.323 632.17 941.94 649.732 957.768 649.786C957.768 649.786 952.971 644.257 958.093 631.98C959.177 629.378 960.072 626.587 960.614 623.633C963.703 606.83 949.068 575.744 932.645 577.533C916.248 579.322 914.514 591.653 914.514 591.653Z" fill="#0A0A0F"/>
<path d="M957.605 658.35C957.605 658.35 969.205 659.651 973.894 650.139C982.295 633.173 963.866 622.956 958.093 631.981L957.605 658.35Z" fill="#ECD4CE"/>
<path d="M913.079 667.211C913.079 667.211 907.089 695.668 891.479 689.868C881.018 685.965 874.459 670.409 874.459 670.409L913.079 667.211Z" fill="white"/>
<path d="M906.033 637.648C906.25 640.575 907.388 642.906 908.581 642.797C909.773 642.716 910.532 640.25 910.315 637.323C910.098 634.396 908.96 632.065 907.768 632.174C906.575 632.255 905.816 634.721 906.033 637.648Z" fill="#672465"/>
<path d="M870.967 640.793C871.183 643.72 872.322 646.05 873.514 645.942C874.68 645.861 875.466 643.394 875.249 640.467C875.032 637.54 873.894 635.21 872.701 635.318C871.509 635.399 870.75 637.866 870.967 640.793Z" fill="#672465"/>
<path d="M1083.31 1082.76C1083.31 1082.76 1159.05 840.963 1080.84 787.248C1002.62 733.505 950.968 723.315 870.937 755.566C790.906 787.817 832.697 1082.76 832.697 1082.76H1083.33H1083.31Z" fill="#353535"/>
<path d="M895.871 864.408L771.095 977.638C737.489 1008.15 684.207 999.374 662.119 959.724L580.381 812.861L620.627 787.71C620.627 787.71 701.119 882.024 714.94 874.49C728.762 866.955 788.033 736.922 943.055 737.274C1017.37 737.437 895.871 864.435 895.871 864.435V864.408Z" fill="#353535"/>
<path d="M1080.84 787.222C1080.84 787.222 1159.3 848.282 1206.92 967.529C1228.95 1022.71 1188.49 1082.74 1129.08 1082.74H954.303L957.609 1028.51L1079.62 966.256C1079.62 966.256 951.999 855.139 1080.84 787.195V787.222Z" fill="#353535"/>
<path d="M946.851 628.73C946.851 628.73 939.588 564.634 898.068 552.222C898.068 552.222 909.885 542.14 924.14 550.27C924.14 550.27 956.96 567.941 962.624 630.003L946.851 628.73Z" fill="#ECD7D1"/>
<path d="M908.638 702.716C913.462 700.981 926.091 695.263 937.582 684.043C952.407 669.597 952.786 649.949 952.813 649.082L946.77 648.811C946.77 649 945.767 667.619 932.704 680.33C919.289 693.42 904.952 697.539 904.816 697.593L906.443 703.42C906.443 703.42 907.337 703.149 908.611 702.716H908.638Z" fill="#0A0A0F"/>
<path d="M910.831 695.482C911.888 698.463 909.72 702.366 906.738 703.423C903.757 704.48 900.505 702.935 899.448 699.981C898.391 697 899.936 693.747 902.89 692.69C905.871 691.633 909.747 692.528 910.831 695.509V695.482Z" fill="#0A0A0F"/>
<path d="M961.214 670.491C976.002 670.491 987.99 657.108 987.99 640.598C987.99 624.089 976.002 610.705 961.214 610.705C946.426 610.705 934.438 624.089 934.438 640.598C934.438 657.108 946.426 670.491 961.214 670.491Z" fill="#ECD7D1"/>
<path d="M969.832 667.216C983.004 667.216 993.681 655.3 993.681 640.602C993.681 625.904 983.004 613.988 969.832 613.988C956.66 613.988 945.982 625.904 945.982 640.602C945.982 655.3 956.66 667.216 969.832 667.216Z" fill="#E4CECD"/>
<path d="M987.986 741.416L968.418 713.041L934.433 737.243L916.329 719.816L899.146 740.847L918.009 762.8L934.46 744.343L949.284 765.835C949.284 765.835 973.459 758.003 988.04 741.416H987.986Z" fill="white"/>
<path d="M1037.5 902.102L1078.91 967.444C1084.93 976.929 1080.62 989.504 1070.08 993.353L949.232 1037.31" fill="#353535"/>
<path d="M1037.5 902.102L1078.91 967.444C1084.93 976.929 1080.62 989.504 1070.08 993.353L949.232 1037.31" stroke="white" stroke-width="3" stroke-miterlimit="10"/>
<path d="M954.299 1082.76L949.258 1046.31C949.258 1046.31 887.033 1064.28 883.049 1067.61C879.065 1070.95 867.736 1082.79 867.736 1082.79H954.326L954.299 1082.76Z" fill="#EBCFC9"/>
<path d="M467.048 302.148C419.35 315.094 391.203 364.242 404.148 411.94C410.057 433.694 423.486 451.259 440.781 462.808L440.567 503.093L468.713 475.269C483.162 478.868 498.578 479.029 513.94 474.84C561.638 461.894 589.785 412.746 576.839 365.048C563.894 317.35 514.746 289.203 467.048 302.148ZM462.16 404.367C457.916 405.495 453.512 402.97 452.384 398.78C451.202 394.483 453.727 390.079 457.97 388.951C462.267 387.769 466.618 390.347 467.746 394.591C468.874 398.834 466.403 403.185 462.16 404.367ZM492.562 396.095C488.265 397.276 483.914 394.698 482.786 390.508C481.604 386.211 484.075 381.86 488.372 380.679C492.669 379.497 497.02 382.075 498.148 386.319C499.276 390.562 496.805 394.913 492.562 396.095ZM522.964 387.823C518.667 389.004 514.316 386.426 513.188 382.236C512.006 377.939 514.477 373.588 518.774 372.407C523.018 371.279 527.422 373.803 528.55 378.047C529.678 382.29 527.154 386.695 522.964 387.823Z" fill="#E3C0B8"/>
<path d="M1029.45 367.535L910 335.071L931.288 256.838L980.368 312.186L1050.68 289.302L1029.45 367.535Z" fill="#84DDDC"/>
<path d="M999.11 243.063L954.701 231L946.541 261.04L983.026 302.255L1035.42 285.166L1043.58 255.126L999.11 243.063Z" fill="#84DDDC"/>
<path d="M1029.25 264.937L961.684 246.58L961.017 249.034L1028.58 267.391L1029.25 264.937Z" fill="#84DDDC"/>
<path d="M1025.8 277.445L958.238 259.088L957.572 261.542L1025.14 279.898L1025.8 277.445Z" fill="#84DDDC"/>
<path d="M685.485 37.8149L685.609 38.1892C691.598 58.0275 688.417 72.4383 680.182 87.5977L675.877 95.5205C670.512 105.377 669.265 117.043 672.446 127.836L677.063 143.432L662.714 127.274C659.907 114.984 661.654 102.258 667.767 91.0913L672.072 83.1684C678.809 70.7539 682.178 58.7761 676.688 40.8094C674.318 32.6994 668.828 26.2738 661.966 22.5307C655.041 18.7877 646.744 17.6648 638.634 20.0354C622.414 24.839 613.056 41.8699 617.86 58.0899L620.418 66.7613C621.478 70.3796 620.293 74.0603 617.673 76.3685L611.497 69.3815L608.939 60.71C602.7 39.4993 614.803 17.2904 636.014 11.052C646.557 7.93278 657.412 9.36763 666.395 14.296C675.316 19.162 682.365 27.272 685.547 37.7525L685.485 37.8149Z" fill="white"/>
<path d="M694.403 35.0737L694.715 36.1343C700.641 56.222 698.707 72.9411 688.414 91.9683L684.109 99.8912C679.867 107.689 678.931 116.673 681.427 125.157L686.043 140.753C687.478 145.681 684.671 150.859 679.742 152.294C674.814 153.729 669.636 150.984 668.201 145.993L663.585 130.397C663.273 129.337 663.023 128.214 662.711 127.153C659.904 114.863 661.651 102.137 667.764 90.9702L672.069 83.0474C678.806 70.6329 682.175 58.655 676.685 40.6883C674.315 32.5783 668.825 26.1527 661.963 22.4097C655.038 18.6666 646.741 17.5437 638.631 19.9143C622.411 24.7179 613.053 41.7489 617.857 57.9688L620.415 66.6402C621.475 70.2585 620.29 73.9392 617.67 76.2475C616.734 77.1208 615.486 77.8071 614.114 78.1814C609.185 79.6162 604.008 76.8713 602.573 71.8805L600.015 63.2091C592.342 37.1324 607.252 9.74564 633.391 2.00997C659.28 -5.60094 686.605 9.0594 694.403 34.8866V35.0737Z" fill="white"/>
<path d="M696.149 170.319C697.771 175.746 694.652 181.423 689.224 182.983C683.797 184.605 678.12 181.486 676.56 176.058C674.938 170.631 678.057 164.954 683.485 163.394C688.912 161.772 694.589 164.891 696.149 170.319Z" fill="white"/>
<defs>
<linearGradient id="paint0_linear_502_3573" x1="61.8204" y1="835.326" x2="669.005" y2="835.326" gradientUnits="userSpaceOnUse">
<stop stop-color="#E6D9D5"/>
<stop offset="1" stop-color="#ECD7D1"/>
</linearGradient>
<linearGradient id="paint1_linear_502_3573" x1="135.918" y1="939.317" x2="595.318" y2="971.568" gradientUnits="userSpaceOnUse">
<stop stop-color="#C9E8EB"/>
<stop offset="0.0001" stop-color="#D0E4E5"/>
<stop offset="0.715" stop-color="#E6D9D5"/>
<stop offset="1" stop-color="#ECD7D1"/>
</linearGradient>
</defs>
</svg>
