<svg width="761" height="789" viewBox="0 0 761 789" fill="none" xmlns="http://www.w3.org/2000/svg">
<path d="M722.316 621.425L693.962 741.218H687.922L719.398 606.545L722.316 621.425Z" fill="#716962"/>
<path d="M704.242 493.29L734.028 741.216H740.388L709.862 491.146L704.242 493.29Z" fill="#8A8077"/>
<path d="M741.967 739.633H732.266V744.238H741.967V739.633Z" fill="#716962"/>
<path d="M696.055 739.633H686.354V744.238H696.055V739.633Z" fill="#716962"/>
<path d="M737.519 459.723L668.357 468.111L673.153 507.594L742.314 499.207L737.519 459.723Z" fill="#EAD1CB"/>
<path d="M737.062 455.948L667.9 464.336L668.359 468.111L737.52 459.723L737.062 455.948Z" fill="#E3C0B8"/>
<path d="M22.0013 750.416H198.586C205.779 750.416 211.611 744.588 211.611 737.4L211.611 293.415C211.611 286.226 205.779 280.399 198.586 280.399H22.0013C14.8074 280.399 8.97556 286.226 8.97556 293.415L8.97556 737.4C8.97556 744.588 14.8074 750.416 22.0013 750.416Z" fill="#B7CACC"/>
<path d="M13.8705 754.023H227.24C234.434 754.023 240.266 748.196 240.266 741.007L240.266 289.205C240.266 282.016 234.434 276.189 227.24 276.189H13.8705C6.67657 276.189 0.844727 282.016 0.844727 289.205L0.844727 741.007C0.844727 748.196 6.67657 754.023 13.8705 754.023Z" fill="#424041"/>
<g style="mix-blend-mode:screen" opacity="0.73">
<path d="M207.276 280.402H30.6918C23.4979 280.402 17.666 286.23 17.666 293.419V737.397C17.666 744.585 23.4979 750.413 30.6918 750.413H207.276C214.47 750.413 220.302 744.585 220.302 737.397V293.419C220.302 286.23 214.47 280.402 207.276 280.402Z" fill="#81DCDC"/>
</g>
<path style="mix-blend-mode:screen" opacity="0.97" d="M30.682 280.387H223.732C230.923 280.387 236.758 286.221 236.758 293.403V737.395C236.758 744.58 230.92 750.411 223.732 750.411H30.682C23.491 750.411 17.6562 744.577 17.6562 737.395V293.403C17.6562 286.217 23.4945 280.387 30.682 280.387Z" fill="url(#paint0_linear_390_2173)"/>
<path d="M103.128 363.174C102.26 363.174 101.457 363.024 100.716 362.73C99.9745 362.433 99.3288 362.03 98.7857 361.525C98.2425 361.02 97.8087 360.426 97.4875 359.743C97.1664 359.064 97.0059 358.33 97.0059 357.538C97.0059 356.746 97.1664 356.043 97.4875 355.35C97.8087 354.657 98.2425 354.063 98.7857 353.571C99.3288 353.076 99.9745 352.68 100.716 352.383C101.457 352.086 102.263 351.939 103.128 351.939C103.992 351.939 104.767 352.086 105.522 352.383C106.277 352.68 106.926 353.076 107.473 353.571C108.016 354.066 108.45 354.66 108.771 355.35C109.092 356.043 109.253 356.773 109.253 357.538C109.253 358.303 109.092 359.064 108.771 359.743C108.45 360.422 108.016 361.016 107.473 361.525C106.93 362.034 106.277 362.433 105.522 362.73C104.767 363.027 103.968 363.174 103.128 363.174ZM99.0795 376.9L109.547 364.696L119.197 352.011L121.462 354.015L111.33 365.997L101.344 378.908L99.0795 376.904V376.9ZM103.128 360.689C103.5 360.689 103.838 360.603 104.149 360.429C104.46 360.255 104.737 360.026 104.983 359.743C105.229 359.46 105.423 359.125 105.556 358.743C105.693 358.361 105.761 357.958 105.761 357.538C105.761 356.674 105.502 355.937 104.983 355.333C104.463 354.728 103.845 354.425 103.128 354.425C102.755 354.425 102.417 354.51 102.106 354.684C101.795 354.858 101.519 355.087 101.273 355.37C101.027 355.654 100.832 355.981 100.699 356.353C100.562 356.725 100.494 357.121 100.494 357.541C100.494 358.408 100.753 359.149 101.273 359.767C101.792 360.385 102.41 360.696 103.128 360.696V360.689ZM117.455 379.013C116.587 379.013 115.784 378.867 115.043 378.57C114.302 378.273 113.656 377.877 113.113 377.382C112.57 376.887 112.136 376.3 111.815 375.62C111.494 374.941 111.333 374.204 111.333 373.412C111.333 372.62 111.494 371.886 111.815 371.203C112.136 370.524 112.57 369.93 113.113 369.424C113.656 368.919 114.302 368.516 115.043 368.219C115.784 367.922 116.591 367.776 117.455 367.776C118.319 367.776 119.125 367.926 119.867 368.219C120.608 368.516 121.261 368.919 121.817 369.424C122.374 369.933 122.808 370.524 123.116 371.203C123.423 371.882 123.58 372.62 123.58 373.412C123.58 374.204 123.426 374.938 123.116 375.62C122.805 376.3 122.374 376.887 121.817 377.382C121.261 377.877 120.611 378.273 119.867 378.57C119.125 378.867 118.319 379.013 117.455 379.013ZM117.455 376.528C117.827 376.528 118.166 376.443 118.476 376.269C118.784 376.098 119.064 375.866 119.31 375.583C119.556 375.299 119.751 374.972 119.884 374.6C120.02 374.227 120.089 373.835 120.089 373.412C120.089 372.968 120.014 372.551 119.867 372.169C119.72 371.787 119.525 371.452 119.293 371.169C119.057 370.885 118.78 370.66 118.459 370.5C118.138 370.339 117.803 370.257 117.458 370.257C117.086 370.257 116.748 370.343 116.437 370.517C116.126 370.691 115.849 370.92 115.603 371.203C115.354 371.49 115.163 371.821 115.029 372.203C114.893 372.585 114.825 372.988 114.825 373.408C114.825 374.275 115.084 375.009 115.603 375.617C116.123 376.224 116.741 376.525 117.458 376.525L117.455 376.528Z" fill="#81DCDC"/>
<path d="M49.959 322.255V315.342H74.8422V322.255H49.959ZM49.959 336.316V329.406H74.8422V336.316H49.959Z" fill="#81DCDC"/>
<path d="M114.269 316.879C113.716 316.879 113.2 316.787 112.718 316.606C112.237 316.425 111.823 316.169 111.475 315.841C111.127 315.513 110.853 315.131 110.655 314.697C110.46 314.26 110.361 313.782 110.361 313.257C110.361 312.731 110.481 312.219 110.723 311.762C110.963 311.304 111.297 310.915 111.728 310.594C112.158 310.273 112.671 310.024 113.268 309.843C113.866 309.662 114.519 309.57 115.233 309.57C115.742 309.57 116.241 309.614 116.729 309.7C117.218 309.785 117.648 309.911 118.027 310.072V309.416C118.027 308.662 117.812 308.078 117.382 307.672C116.951 307.266 116.316 307.061 115.472 307.061C114.86 307.061 114.263 307.17 113.682 307.389C113.098 307.607 112.503 307.928 111.892 308.348L110.997 306.494C112.466 305.521 114.054 305.033 115.755 305.033C117.457 305.033 118.676 305.436 119.585 306.245C120.494 307.051 120.948 308.218 120.948 309.748V313.305C120.948 313.608 121.003 313.827 121.112 313.96C121.221 314.09 121.399 314.165 121.648 314.178V316.667C121.153 316.769 120.726 316.821 120.36 316.821C119.807 316.821 119.38 316.698 119.083 316.449C118.786 316.203 118.598 315.875 118.526 315.465L118.461 314.834C117.952 315.503 117.334 316.012 116.606 316.36C115.878 316.708 115.1 316.882 114.269 316.882V316.879ZM115.1 314.742C115.595 314.742 116.063 314.656 116.507 314.479C116.951 314.305 117.296 314.073 117.542 313.782C117.863 313.537 118.024 313.26 118.024 312.953V311.646C117.675 311.516 117.296 311.41 116.89 311.328C116.483 311.25 116.087 311.209 115.711 311.209C114.953 311.209 114.334 311.379 113.856 311.721C113.374 312.062 113.135 312.496 113.135 313.018C113.135 313.513 113.323 313.922 113.702 314.25C114.082 314.578 114.546 314.742 115.1 314.742Z" fill="#81DCDC"/>
<path d="M43.5097 395.803C42.6352 395.803 41.8563 395.606 41.1731 395.213C40.4898 394.82 39.9501 394.281 39.5572 393.598V395.585H37.002V379.66H39.9262V386.16C40.3327 385.463 40.869 384.921 41.5318 384.535C42.1945 384.149 42.97 383.958 43.8582 383.958C44.5995 383.958 45.2759 384.118 45.8874 384.439C46.4989 384.76 47.0249 385.187 47.469 385.726C47.9131 386.266 48.2548 386.897 48.4939 387.624C48.7364 388.351 48.856 389.116 48.856 389.915C48.856 390.714 48.7228 391.516 48.4529 392.226C48.183 392.939 47.8072 393.561 47.329 394.09C46.8473 394.622 46.2802 395.039 45.6243 395.343C44.9684 395.646 44.2613 395.8 43.5063 395.8L43.5097 395.803ZM42.7001 393.318C43.1681 393.318 43.5951 393.226 43.988 393.045C44.3808 392.864 44.7156 392.619 44.9923 392.315C45.269 392.011 45.4843 391.652 45.6346 391.246C45.7883 390.84 45.8634 390.403 45.8634 389.935C45.8634 389.468 45.7917 389.027 45.6448 388.604C45.4979 388.184 45.2929 387.812 45.0231 387.491C44.7532 387.17 44.4355 386.918 44.0734 386.727C43.7079 386.539 43.3082 386.443 42.8709 386.443C42.215 386.443 41.6308 386.658 41.115 387.085C40.5992 387.515 40.1995 388.041 39.9262 388.665V391.393C40.0287 391.683 40.179 391.946 40.3737 392.178C40.5684 392.41 40.7905 392.612 41.0398 392.779C41.2858 392.946 41.5557 393.076 41.8461 393.172C42.1364 393.267 42.42 393.315 42.6967 393.315L42.7001 393.318Z" fill="#81DCDC"/>
<path d="M179.673 330.129H380.471C395.297 330.129 407.332 342.155 407.332 356.971V673.946C407.332 688.761 395.297 700.788 380.471 700.788H179.67C164.844 700.788 152.809 688.761 152.809 673.946V356.974C152.809 342.159 164.844 330.132 179.67 330.132L179.673 330.129Z" fill="#81DCDC"/>
<path d="M380.296 569.5H367.109V669.791H380.296V569.5Z" fill="#EBF8FF"/>
<path d="M354.239 580.74H341.053V669.79H354.239V580.74Z" fill="#EBF8FF"/>
<path d="M325.932 595.363H312.746V669.795H325.932V595.363Z" fill="#EBF8FF"/>
<path d="M296.862 613.793H283.676V669.791H296.862V613.793Z" fill="#EBF8FF"/>
<path d="M204.984 601.913L202.125 600.896L226.995 531.181L280.922 516.926L300.305 440.411L341.921 422.056L351.24 362.559L354.239 363.03L344.664 424.162L302.884 442.589L283.426 519.401L229.314 533.704L204.984 601.913Z" fill="#EBF8FF"/>
<path d="M288.441 513.045C291.27 516.503 290.757 521.596 287.297 524.423C283.836 527.249 278.739 526.737 275.907 523.279C273.079 519.821 273.591 514.725 277.052 511.898C280.512 509.071 285.612 509.583 288.441 513.042V513.045Z" fill="#81DCDC"/>
<path d="M288.257 525.6C284.154 528.953 278.087 528.342 274.736 524.242C271.381 520.142 271.993 514.079 276.095 510.73C280.198 507.378 286.265 507.989 289.62 512.089C292.975 516.189 292.363 522.251 288.26 525.604L288.257 525.6ZM278.015 513.075C275.207 515.369 274.79 519.517 277.086 522.32C279.382 525.126 283.532 525.542 286.337 523.248C289.145 520.954 289.562 516.807 287.266 514.004C284.971 511.198 280.82 510.781 278.015 513.075Z" fill="#EBF8FF"/>
<path d="M308.076 436.845C310.905 440.303 310.392 445.4 306.932 448.226C303.471 451.053 298.374 450.541 295.546 447.082C292.717 443.624 293.23 438.531 296.69 435.705C300.151 432.878 305.248 433.39 308.076 436.848V436.845Z" fill="#81DCDC"/>
<path d="M307.893 449.395C303.79 452.747 297.723 452.136 294.369 448.036C291.014 443.936 291.625 437.874 295.728 434.521C299.831 431.169 305.898 431.78 309.253 435.88C312.607 439.98 311.996 446.043 307.893 449.395ZM297.651 436.873C294.843 439.167 294.427 443.315 296.722 446.118C299.018 448.924 303.169 449.34 305.977 447.046C308.785 444.752 309.201 440.605 306.906 437.802C304.61 434.996 300.46 434.579 297.651 436.873Z" fill="#EBF8FF"/>
<path d="M349.053 417.965C351.881 421.423 351.369 426.517 347.908 429.343C344.448 432.17 339.351 431.658 336.522 428.2C333.694 424.742 334.206 419.645 337.667 416.822C341.127 413.995 346.228 414.507 349.056 417.965H349.053Z" fill="#81DCDC"/>
<path d="M348.87 430.52C344.767 433.872 338.7 433.261 335.345 429.161C331.99 425.061 332.602 418.999 336.705 415.646C340.808 412.294 346.875 412.905 350.226 417.005C353.581 421.105 352.969 427.168 348.866 430.516L348.87 430.52ZM338.628 417.998C335.82 420.292 335.403 424.44 337.699 427.243C339.995 430.049 344.145 430.465 346.95 428.171C349.758 425.877 350.175 421.729 347.879 418.927C345.583 416.124 341.433 415.704 338.625 417.998H338.628Z" fill="#EBF8FF"/>
<path d="M234.722 528.014C237.551 531.472 237.038 536.565 233.578 539.392C230.117 542.218 225.02 541.706 222.188 538.248C219.36 534.79 219.872 529.693 223.333 526.867C226.793 524.04 231.894 524.552 234.722 528.01V528.014Z" fill="#81DCDC"/>
<path d="M234.538 540.565C230.435 543.917 224.368 543.306 221.013 539.207C217.658 535.107 218.27 529.044 222.373 525.695C226.476 522.343 232.543 522.954 235.894 527.054C239.248 531.154 238.637 537.216 234.534 540.569L234.538 540.565ZM224.296 528.044C221.488 530.338 221.071 534.485 223.367 537.288C225.662 540.094 229.813 540.511 232.618 538.217C235.422 535.923 235.843 531.775 233.547 528.969C231.251 526.163 227.101 525.746 224.293 528.04L224.296 528.044Z" fill="#EBF8FF"/>
<path d="M185.663 435.342H255.065C258.27 435.342 260.873 437.943 260.873 441.145V446.31C260.873 449.512 258.27 452.113 255.065 452.113H185.663C182.455 452.113 179.855 449.512 179.855 446.31V441.148C179.855 437.946 182.459 435.345 185.663 435.345V435.342Z" fill="#F0F4F5"/>
<path d="M185.663 406.018H255.065C258.273 406.018 260.873 408.619 260.873 411.821V416.982C260.873 420.184 258.27 422.786 255.065 422.786H185.663C182.455 422.786 179.855 420.184 179.855 416.982V411.821C179.855 408.615 182.459 406.018 185.663 406.018Z" fill="#F0F4F5"/>
<path d="M111.835 429.332C111.835 429.332 109.485 452.484 113.765 458.294C113.765 458.294 102.43 455.826 99.8068 451.927C97.1832 448.029 111.832 429.332 111.832 429.332H111.835Z" fill="#182536"/>
<path d="M182.602 503.266C182.602 503.266 186.715 500.504 187.353 500.105C187.996 499.702 190.107 499.77 192.522 500.057C194.941 500.344 198.077 501.815 198.268 502.187C198.456 502.563 198.821 502.853 198.671 503.918C198.521 504.983 197.803 505.802 197.803 505.802C197.803 505.802 198.234 507.205 197.277 508.147C197.277 508.147 197.622 509.486 196.362 510.377C196.362 510.377 196.662 511.691 195.692 512.261C195.692 512.261 193.574 512.2 192.785 512.401C191.996 512.602 187.603 512.172 183.452 511.107C183.452 511.107 178.827 510.114 182.602 503.266Z" fill="#E3C0B8"/>
<path d="M189.6 505.186C189.6 505.186 188.364 507.343 187.708 507.773C187.055 508.203 190.875 512.31 190.875 512.31C190.875 512.31 192.186 506.763 189.604 505.189L189.6 505.186Z" fill="#DDB6AB"/>
<path d="M180.166 503.666C180.166 503.666 182.756 503.379 184.351 502.642C185.95 501.904 184.051 510.691 184.051 510.691C184.051 510.691 180.177 508.022 177.649 507.943C175.121 507.865 180.163 503.666 180.163 503.666H180.166Z" fill="#E3C0B8"/>
<path d="M72.9906 737.643C72.9906 737.643 81.0766 749.458 83.8984 751.964C83.8984 751.964 89.5384 754.889 89.7126 757.228C90.044 761.648 90.2763 764.249 82.8564 764.458C75.4366 764.666 70.794 764.434 69.4344 759.945C68.0748 755.452 65.7313 751.929 65.7313 751.929L65.1642 763.615H63.4903C63.4903 763.615 62.7421 751.902 62.6397 750.229C62.5338 748.557 61.4372 742.132 64.9661 739.289C68.4949 736.445 72.9872 737.643 72.9872 737.643H72.9906Z" fill="#424041"/>
<path d="M84.9738 752.571C84.9738 752.571 80.9598 753.701 76.1909 752.499C71.4185 751.298 66.8375 739.882 65.4437 738.933L64.207 734.328H73.5092C73.5092 734.328 73.5844 737.735 75.0875 740.654C76.5906 743.572 84.9738 752.571 84.9738 752.571Z" fill="#E3C0B8"/>
<path d="M125.48 733.234C125.48 733.234 126.692 736.098 128.981 739.082C130.658 741.27 135.878 750.258 138.177 750.883C140.476 751.511 147.585 752.764 148.211 756.73C148.839 760.701 149.15 763.52 142.147 763.834C135.144 764.148 130.546 764.565 127.201 759.656C123.857 754.747 118.528 751.197 118.528 751.197V764.005H115.808C115.808 764.005 114.555 750.675 113.824 749.736C113.093 748.797 111.21 738.559 117.691 733.234C124.171 727.909 125.476 733.234 125.476 733.234H125.48Z" fill="#424041"/>
<path d="M138.18 750.882C138.18 750.882 131.908 752.449 129.506 750.882C127.101 749.315 118.93 735.51 116.221 734.684C116.221 734.684 118.844 729.365 125.482 733.23C125.482 733.23 136.403 748.584 138.18 750.882Z" fill="#E3C0B8"/>
<path d="M69.4297 541.42C69.4297 541.42 60.5853 552.91 58.1872 566.538C55.789 580.168 59.6049 625.915 59.499 632.651C59.3931 639.386 53.5514 660.349 54.8052 673.038C56.0589 685.727 62.6282 738.697 62.6282 738.697L77.9496 738.424C77.9496 738.424 74.8785 681.268 75.6642 675.943C76.4499 670.618 78.9437 647.954 79.2546 645.759C79.5688 643.567 96.7077 585.565 96.7077 575.737C96.7077 565.909 90.7499 525.385 69.4297 541.42Z" fill="#424041"/>
<path d="M113.854 545.91C113.854 545.91 128.383 601.318 130.108 608.995C131.833 616.673 135.284 626.699 135.127 628.109C134.97 629.518 133.299 653.175 133.299 653.175L129.172 733.701H113.861C113.861 733.701 108.949 682.472 108.166 672.131C107.384 661.791 113.81 645.812 112.242 641.425C110.674 637.039 86.9999 586.434 86.9999 586.434C86.9999 586.434 69.0754 529.825 113.861 545.91H113.854Z" fill="#424041"/>
<path d="M109.359 462.982C109.359 462.982 115.17 463.529 119.56 468.229C123.95 472.93 128.07 480.423 129.221 482.932C130.372 485.438 146.486 508.668 147.323 509.19C148.16 509.712 155.204 507.862 160.848 507.391C170.058 506.623 183.835 501.936 183.835 501.936L185.881 512.334C185.881 512.334 151.996 523.261 144.177 521.336C134.615 518.981 112.601 490.763 112.601 490.763C112.601 490.763 96.1901 471.544 109.363 462.982H109.359Z" fill="#F2EAE9"/>
<path d="M99.2193 458.908C99.2193 458.908 106.745 462.458 109.358 462.98C111.972 463.503 122.111 476.662 123.887 481.465C125.664 486.268 123.887 493.478 120.229 501.937C116.57 510.396 120.02 513.216 118.346 521.679C116.672 530.138 116.676 553.201 116.99 557.901C117.304 562.602 68.6037 571.467 58.8848 562.902C58.8848 562.902 65.4643 541.226 73.2565 533.084C74.9407 531.322 74.763 519.59 73.6152 516.667C72.464 513.742 59.5065 491.915 59.5065 491.915C59.5065 491.915 58.5534 469.774 64.2105 465.387C69.123 461.574 82.5109 460.215 84.9158 459.379C87.3208 458.542 94.3136 458.181 99.2261 458.911L99.2193 458.908Z" fill="#F2EAE9"/>
<path d="M101.624 475.67L106.198 470.321L102.229 456.232C102.229 456.232 100.896 464.077 101.627 475.67H101.624Z" fill="#DDDBD9"/>
<path d="M72.9593 462.98C72.9593 462.98 63.4726 460.263 58.0375 470.709C52.6024 481.155 53.9621 486.794 52.7083 491.495C51.4546 496.196 46.4363 527.632 46.122 528.991C45.8077 530.35 41.0012 546.329 41.6263 551.238C42.2549 556.147 46.7471 593.329 46.5388 594.582C46.3304 595.834 55.2124 593.38 55.2124 593.38C55.2124 593.38 54.8468 555.413 55.1611 552.279C55.4754 549.145 55.7897 532.695 58.14 528.465C60.4903 524.236 66.2944 498.384 67.5481 495.721C68.8018 493.058 80.9531 466.374 72.9559 462.977L72.9593 462.98Z" fill="#E3C0B8"/>
<path d="M102.815 450.231C102.815 450.231 101.315 464.025 101.626 468.518C101.626 468.518 93.8063 476.349 84.9141 459.376C84.9141 459.376 88.6581 452.381 85.8398 442.85C83.0215 433.319 102.815 450.231 102.815 450.231Z" fill="#E3C0B8"/>
<path d="M101.624 468.519V475.67L93.2207 468.229L101.624 468.519Z" fill="#E3C0B8"/>
<path d="M101.624 475.671L97.8868 471.049L85.3017 458.514L80.584 460.61L101.624 475.671Z" fill="#DDDBD9"/>
<path d="M106.198 470.321L111.957 471.912L102.225 456.232L106.198 470.321Z" fill="#FBF1EE"/>
<path d="M97.8867 471.048L92.6258 479.477L80.3926 460.305L85.6295 457.643L97.8867 471.048Z" fill="#FBF1EE"/>
<path d="M124.701 505.058C124.701 505.058 126.583 492.547 124.581 484.938C124.581 484.938 123.475 491.075 120.779 500.64L124.701 505.058Z" fill="#DDDBD9"/>
<path d="M66.2441 503.396C66.2441 503.396 71.4504 486.194 71.7578 485.252C71.7578 485.252 71.4025 501.061 69.4075 508.885C69.4075 508.885 67.491 505.546 66.2441 503.396Z" fill="#DDDBD9"/>
<path d="M260.063 417.186L178.178 520.282L181.034 522.484L260.063 417.186Z" fill="#6A4036"/>
<path d="M197.638 502.089C197.638 502.089 191.492 501.512 191.277 502.489C191.062 503.465 191.577 503.956 191.577 503.956L188.94 504.865C188.94 504.865 187.533 506.452 189.675 507.52C189.675 507.52 188.206 508.865 190.399 509.651C190.399 509.651 189.828 510.972 190.778 511.511C191.728 512.054 195.697 512.262 195.697 512.262C195.697 512.262 196.674 511.985 196.486 510.432C196.486 510.432 197.839 509.644 197.498 508.196C197.498 508.196 198.379 507.404 197.993 505.844C197.993 505.844 199.701 503.895 198.273 502.185C198.273 502.185 197.901 502.106 197.641 502.086L197.638 502.089Z" fill="#E7C5BC"/>
<path d="M187.548 500.101C187.548 500.101 191.122 502.375 192.526 504.474C192.843 504.949 193.065 505.467 192.744 505.938C192.423 506.413 191.33 506.55 189.731 505.641C188.132 504.733 185.652 504.293 185.652 504.293C185.652 504.293 184.282 502.88 187.548 500.098V500.101Z" fill="#E3C0B8"/>
<path d="M96.4696 403.276C96.4696 403.276 110.322 402.918 112.871 419.307C115.419 435.696 109.526 450.098 107.217 452.406C104.907 454.714 91.055 452.963 87.7892 444.449C84.5233 435.935 79.7475 429.729 80.4649 422.41C81.1823 415.091 79.4298 402.996 96.4696 403.276Z" fill="#E3C0B8"/>
<path d="M113.461 425.509C113.461 425.509 117.171 405.065 98.7787 401.405C80.3862 397.746 73.9365 410.315 72.184 417.795C70.4315 425.274 72.5051 446.357 72.5051 446.357C72.5051 446.357 84.7657 457.096 92.0899 459.882C92.0899 459.882 85.9579 437.444 88.2672 421.372C88.2672 421.372 103.213 423.717 113.137 421.27C113.137 421.27 113.434 424.625 113.461 425.503V425.509Z" fill="#2E2E2E"/>
<path d="M102.497 453.306C102.497 453.306 97.684 453.275 91.1387 449.025C91.1387 449.025 95.7471 454.805 102.163 456.918C102.163 456.918 102.545 454.044 102.494 453.306H102.497Z" fill="#C9B2B5"/>
<path d="M75.1352 558.884L21.6289 567.611L28.0877 607.155L81.594 598.428L75.1352 558.884Z" fill="#81DCDC"/>
<path d="M44.6952 606.453C44.6952 606.453 43.8548 605.091 43.7797 604.316C43.7797 604.316 43.7489 602.896 43.6669 601.889C43.6396 601.568 43.6089 601.292 43.5713 601.114C43.4107 600.373 42.8334 598.793 42.9461 596.902C43.0589 595.014 45.6415 586.992 45.6415 586.992L50.3763 587.156L54.8309 586.678C54.8309 586.678 60.2148 596.946 60.3138 598.718C60.3241 598.892 60.3241 599.063 60.3138 599.223C60.2524 600.732 59.5725 601.828 59.4495 602.616C59.4017 602.906 58.7424 605.747 57.9635 606.139C56.8806 606.682 55.9104 606.621 55.193 606.204C55.193 606.204 53.0272 607.174 51.4831 606.754C51.4831 606.754 49.512 607.713 47.7424 606.644C47.7424 606.644 45.6347 607.392 44.6952 606.46V606.453Z" fill="#E3C0B8"/>
<path d="M72.9603 462.98C72.9603 462.98 63.4736 460.263 58.0385 470.709C52.6034 481.155 52.6308 485.61 51.9031 490.71C51.2165 495.526 44.5891 524.133 44.2748 525.488C43.9606 526.847 41.7811 544.728 41.6273 551.234C41.5112 556.181 42.6727 588.625 42.4643 589.877C42.2559 591.13 57.4749 587.682 57.4749 587.682C57.4749 587.682 55.7907 557.761 56.105 554.628C56.4193 551.494 57.0854 535.876 58.6193 531.285C60.4196 525.891 67.5252 498.722 68.7789 496.059C70.0326 493.396 80.9541 466.374 72.9603 462.977V462.98Z" fill="#F2EAE9"/>
<path d="M264.714 282.659L264.488 332.402L266.49 332.411L266.716 282.668L264.714 282.659Z" fill="#C1AAB0"/>
<path d="M265.45 330.831V330.82C265.45 330.82 265.471 330.824 265.481 330.827C265.491 330.827 265.502 330.824 265.512 330.824V330.834C270.23 331.076 269.574 355.341 269.574 355.341L265.399 355.324H265.338L261.163 355.303C261.163 355.303 260.726 331.032 265.447 330.834L265.45 330.831Z" fill="#C1AAB0"/>
<path d="M148.252 264.196L102.4 237.043L198.613 211L304.886 287.938L246.927 299.889L148.252 264.196Z" fill="#2E2E2E"/>
<path d="M147.01 276.192C147.01 276.192 191.02 276.069 240.264 308.366L251.394 292.038C251.394 292.038 218.394 249.367 148.12 259.154L147.013 276.192H147.01Z" fill="#424041"/>
<path d="M657.961 590.493C657.917 696.748 654.941 717.547 628.237 741.354C617.781 750.677 598.551 770.046 543.062 779.687C526.405 782.581 506.486 784.602 482.559 785.21C472.796 785.459 463.835 785.104 455.636 784.213C448.763 783.469 442.426 782.346 436.605 780.892C375.623 765.622 371.066 713.41 397.739 669.486C404.804 657.855 412.873 647.164 421.338 637.192C434.402 621.797 448.404 608.121 461.089 595.354C472.779 583.591 483.345 572.602 491.028 561.75C494.27 557.179 496.996 552.632 499.076 548.061C499.571 546.979 500.07 545.907 500.569 544.849C502.212 541.394 503.9 538.076 505.604 534.901C508.805 528.937 512.068 523.486 515.214 518.611C517.722 514.712 520.157 511.183 522.426 508.052C530.214 497.296 535.998 491.257 535.998 491.257C535.998 491.257 536.722 490.919 538.054 490.366C538.762 490.069 539.65 489.714 540.692 489.315C541.112 489.154 541.553 488.987 542.021 488.813C542.482 488.642 542.97 488.465 543.483 488.284C543.951 488.12 544.436 487.949 544.941 487.778C545.532 487.577 546.147 487.372 546.79 487.164C547.165 487.041 547.548 486.918 547.941 486.795C548.173 486.724 548.405 486.648 548.644 486.577C548.733 486.549 548.822 486.522 548.914 486.495C556.83 484.071 567.693 481.542 579.509 481.122C614.556 479.872 658.006 497.142 657.965 590.493H657.961Z" fill="#E3C0B8"/>
<path d="M516.098 750.459C516.098 750.459 516.973 757.583 518.131 760.724C519.289 763.865 525.578 771.119 522.92 778.083C520.04 785.637 507.466 778.356 502.338 776.052C497.21 773.747 498.379 769.566 497.832 764.445C497.286 759.321 494.781 759.184 495.707 755.583C496.63 751.982 502.239 745.086 502.239 745.086L516.102 750.463L516.098 750.459Z" fill="#424041"/>
<path d="M504.658 741.354C504.658 741.354 501.44 745.853 501.529 745.979C501.618 746.102 515.317 754.435 516.27 751.731C517.028 749.584 517.346 746.474 517.346 746.474L504.662 741.354H504.658Z" fill="#E3C0B8"/>
<path d="M458.224 755.494C458.224 755.494 454.046 759.154 450.291 764.78C446.537 770.405 436.576 770.702 436.152 778.38C435.728 786.057 449.697 786.296 457.032 783.794C464.366 781.295 465.476 773.795 469.91 771.921C474.345 770.047 476.647 768.528 476.309 764.868C475.967 761.209 473.514 755.266 473.514 755.266C473.514 755.266 470.758 756.143 469.138 756.324C467.519 756.505 462.067 756.566 458.227 755.494H458.224Z" fill="#424041"/>
<path d="M508.499 547.463C508.499 547.463 505.687 564.17 503.422 575.203C502.503 579.678 501.673 583.222 501.157 584.334C500.508 585.737 495.234 591.401 488.774 598.044C477.443 609.702 462.473 624.377 462.473 624.377L456.621 613.276C456.621 613.276 469.92 597.699 478.932 587.304C483.103 582.494 486.359 578.794 486.957 578.261C488.842 576.575 491.029 559.974 494.103 546.299C497.178 532.62 503.34 525.062 503.34 525.062L508.499 547.463Z" fill="#F2E9E3"/>
<path d="M488.774 598.044C477.443 609.702 462.473 624.377 462.473 624.377L456.621 613.276C456.621 613.276 469.92 597.699 478.932 587.305C481.696 588.66 486.769 591.889 488.774 598.044Z" fill="#E3C0B8"/>
<path d="M458.88 750.379L458.225 755.493C458.225 755.493 465.498 758.06 473.512 755.264L473.676 750.717L458.884 750.379H458.88Z" fill="#E3C0B8"/>
<path d="M562.122 622.121C562.542 623.61 485.088 622.121 485.088 622.121C485.088 622.121 506.514 606.538 507.901 602.377C509.288 598.212 502.445 573.237 501.554 565.109C500.84 558.606 499.05 529.508 503.34 525.067C507.826 520.421 523.97 515.553 523.97 515.553L547.511 516.427C547.511 516.427 551.395 517.239 554.173 518.526C556.95 519.813 572.832 525.466 575.411 533.396C577.99 541.326 559.563 566.82 559.563 566.82C559.563 566.82 559.526 567.967 559.471 569.844C559.399 572.35 559.294 576.153 559.198 580.28C559.075 585.626 558.966 591.511 558.966 595.812C558.966 605.92 561.702 620.64 562.119 622.125L562.122 622.121Z" fill="#F2E9E3"/>
<path d="M562.123 622.121C562.123 622.121 572.659 637.582 572.806 648.137C572.956 658.692 554.109 694.048 551.26 699.107C542.689 714.312 519.176 747.107 519.176 747.107C519.176 747.107 515.124 747.005 502.477 742.099C502.477 742.099 518.117 698.779 520.101 694.28C528.508 675.208 533.202 661.676 530.377 658.406C527.552 655.135 519.845 651.855 517.611 649.923C515.38 647.99 476.501 657.262 472.429 658.32C461.88 661.055 466.69 679.393 469.023 687.617C472.928 701.374 476.34 751.053 476.34 751.053C476.34 751.053 468.828 754.252 456.243 751.548C456.243 751.548 431.531 661.847 430.738 652.927C429.946 644.007 429.556 629.297 490.453 618.117L562.127 622.125L562.123 622.121Z" fill="#EEF2F3"/>
<path d="M530.43 464.436C530.43 464.436 509.995 459.831 514.662 485.529C519.328 511.227 524.244 513.248 536.573 507.93C548.902 502.611 547.798 486.147 548.417 478.073C549.038 470 536.945 464.719 530.427 464.439L530.43 464.436Z" fill="#E3C0B8"/>
<path d="M525.024 522.144C525.024 522.144 534.074 531.733 548.377 523.018C548.377 523.018 545.18 502.239 546.86 492.117C548.545 481.995 528.198 507.8 528.198 507.8C528.464 507.939 528.642 508.906 528.683 510.281C528.717 511.445 528.656 512.903 528.468 514.398C528.048 517.764 526.999 521.314 525.018 522.144H525.024Z" fill="#E3C0B8"/>
<path d="M547.424 491.26C547.424 491.26 546.898 483.163 543.936 482.911C540.977 482.658 540.52 485.918 540.52 485.918L537.53 486.481C537.53 486.481 538.473 479.384 535.522 478.145C532.567 476.906 516.374 482.05 514.003 479.968C511.633 477.886 512.746 463.49 517.037 461.52C521.328 459.551 533.175 455.137 541.855 461.008C541.855 461.008 548.623 460.237 549.624 465.695C550.628 471.15 549.261 487.205 547.42 491.26H547.424Z" fill="#2E2E2E"/>
<path d="M528.474 514.397C543.232 509.85 544.342 500.971 544.356 500.834C539.498 509.177 528.686 510.28 528.686 510.28C528.72 511.444 528.659 512.901 528.471 514.397H528.474Z" fill="#C9B2B5"/>
<path d="M554.415 518.631C554.415 518.631 543.61 540.127 526.153 538.741C508.697 537.355 523.178 515.747 523.97 515.549C524.842 515.33 541.875 511.087 554.415 518.635V518.631Z" fill="#E3C0B8"/>
<path d="M476.23 621.032C476.23 621.032 529.721 627.62 562.126 622.121L500.205 614.389C500.205 614.389 499.839 615.966 476.23 621.032Z" fill="#F2E9E3"/>
<path d="M516.233 611.957L512.25 613.974C512.25 613.974 513.159 620.3 515.338 622.215L519.81 621.075C519.81 621.075 518.877 614.138 516.233 611.957Z" fill="#E3C0B8"/>
<path d="M578.13 599.003C577.334 599.924 566.819 604.15 554.938 608.725C538.708 614.972 520.404 620.881 520.404 620.881L516.236 611.954C516.236 611.954 535.408 601.546 548.362 594.244C554.48 590.796 559.211 588.041 559.881 587.403C561.965 585.42 562.505 582.241 560.971 576.698C559.44 571.154 555.911 545.674 555.515 542.701C555.119 539.727 556.506 531.797 563.946 531.401C571.387 531.005 575.172 533.105 575.172 533.105C575.172 533.105 577.04 533.88 578.427 551.921C579.818 569.959 580.016 596.821 578.13 599.003Z" fill="#F2E9E3"/>
<path d="M559.475 569.842C559.404 572.348 559.298 576.15 559.202 580.278C551.943 562.492 556.134 548.301 556.206 548.062C555.42 552.889 559.417 569.603 559.472 569.842H559.475Z" fill="#E3C0B8"/>
<path d="M503.424 575.204C502.505 579.679 501.675 583.222 501.159 584.335C498.679 572.343 500.91 556.988 500.91 556.988C501.248 564.324 503.424 575.204 503.424 575.204Z" fill="#E3C0B8"/>
<path d="M554.938 608.725C538.708 614.972 519.813 621.072 519.813 621.072L516.236 611.954C516.236 611.954 535.408 601.546 548.362 594.244C548.362 594.244 553.076 596.538 554.941 608.722L554.938 608.725Z" fill="#E3C0B8"/>
<path d="M515.081 621.604L439.055 620.484L477.439 639.959L515.081 621.604Z" fill="#AA9FC3"/>
<path d="M477.438 639.961L515.081 625.391V621.605L474.463 636.247L477.438 639.961Z" fill="#C1AAB0"/>
<path d="M513.112 614.114C513.112 614.114 508.364 613.377 505.081 612.612C502.539 612.022 496.226 612.834 494.617 614.466C493.008 616.094 487.894 627.445 486.924 628.138C485.957 628.831 487.419 630.432 489.121 629.629C489.121 629.629 490.682 634.596 494.532 632.736C498.382 630.875 500.995 626.817 503.014 626.103C505.03 625.386 516.774 621.781 516.774 621.781C516.774 621.781 516.142 612.909 513.119 614.118L513.112 614.114Z" fill="#E3C0B8"/>
<path d="M495.773 613.717C495.773 613.717 492.722 615.188 491.926 615.847C491.13 616.502 487.902 618.919 487.119 619.486C486.337 620.053 488.298 621.671 494.071 619.172C499.841 616.673 495.776 613.717 495.776 613.717H495.773Z" fill="#E3C0B8"/>
<path d="M477.439 639.959L454.824 578.264L381.924 579.452L403.476 636.307L477.439 639.959Z" fill="#C1AAB0"/>
<path d="M540.587 482.487C540.857 480.221 545.342 479.388 545.701 482.788C546.063 486.188 543.665 492.151 541.96 491.564C540.259 490.977 540.214 485.611 540.583 482.484L540.587 482.487Z" fill="#E3C0B8"/>
<path d="M518.401 42.4492L638 42.9987L637.599 129.621L637.519 147.869L619.343 129.541L518 129.072L518.401 42.4492Z" fill="#E3C0B8"/>
<path d="M568.854 89.4724C568.836 94.5153 572.915 98.6138 577.961 98.6309C583.008 98.6481 587.109 94.5726 587.126 89.5297C587.144 84.4868 583.065 80.3883 578.019 80.3711C572.972 80.354 568.871 84.4295 568.854 89.4724Z" fill="white"/>
<path d="M538.859 89.3728C538.842 94.4157 542.921 98.5142 547.967 98.5313C553.014 98.5485 557.115 94.473 557.132 89.4301C557.15 84.3871 553.071 80.2887 548.025 80.2715C542.978 80.2544 538.877 84.3299 538.859 89.3728Z" fill="white"/>
<path d="M598.168 89.5642C598.151 94.6071 602.229 98.7056 607.276 98.7227C612.322 98.7399 616.424 94.6644 616.441 89.6215C616.458 84.5786 612.38 80.4801 607.333 80.4629C602.287 80.4458 598.185 84.5213 598.168 89.5642Z" fill="white"/>
<path d="M4.37424 0.476562L116 0.989439L115.626 81.837L115.546 98.8688L98.587 81.7622L4 81.3241L4.37424 0.476562Z" fill="#81DCDC"/>
<path d="M51.4649 44.3637C51.4489 49.0704 55.2554 52.8956 59.9655 52.9117C64.6756 52.9277 68.5036 49.1239 68.5196 44.4171C68.5357 39.7104 64.7291 35.8852 60.019 35.8692C55.3089 35.8532 51.4809 39.657 51.4649 44.3637Z" fill="white"/>
<path d="M23.4688 44.2719C23.4528 48.9786 27.2593 52.8038 31.9694 52.8199C36.6796 52.8359 40.5075 49.0321 40.5236 44.3253C40.5396 39.6186 36.733 35.7934 32.0229 35.7774C27.3128 35.7614 23.4848 39.5652 23.4688 44.2719Z" fill="white"/>
<path d="M78.8243 44.4497C78.8082 49.1564 82.6148 52.9816 87.3249 52.9976C92.035 53.0136 95.863 49.2098 95.879 44.5031C95.8951 39.7964 92.0885 35.9712 87.3784 35.9551C82.6683 35.9391 78.8403 39.7429 78.8243 44.4497Z" fill="white"/>
<path d="M574.869 750.676H717.613V788.387H574.869C569.12 788.387 564.453 783.724 564.453 777.978V761.084C564.453 755.339 569.12 750.676 574.869 750.676Z" fill="url(#paint1_linear_390_2173)"/>
<path d="M742.127 754.559V784.507H744.631V788.388H641.166C635.413 788.388 630.75 783.729 630.75 777.98V761.082C630.75 755.334 635.413 750.674 641.166 750.674H744.631V754.555H742.127V754.559Z" fill="#E3C0B8"/>
<path d="M648.805 754.557H742.127V784.505H648.805C643.055 784.505 638.389 779.842 638.389 774.097V764.965C638.389 759.22 643.055 754.557 648.805 754.557Z" fill="#F3FAFE"/>
<path d="M568.016 706.816H724.284V750.676H568.019C560.797 750.676 554.932 744.814 554.932 737.598V719.894C554.932 712.678 560.797 706.816 568.019 706.816H568.016Z" fill="url(#paint2_linear_390_2173)"/>
<path d="M752 711.333V746.163H754.156V750.676H669.165C661.937 750.676 656.078 744.821 656.078 737.598V719.894C656.078 712.671 661.937 706.816 669.165 706.816H754.156V711.329H752V711.333Z" fill="#81DCDC"/>
<path d="M675.744 711.33H751.999V746.16H675.744C668.522 746.16 662.656 740.299 662.656 733.082V724.408C662.656 717.191 668.522 711.33 675.744 711.33Z" fill="#F3FAFE"/>
<path d="M730.468 706.811H611.698V653.041H730.468C738.284 653.041 744.631 659.384 744.631 667.195V692.657C744.631 700.468 738.284 706.811 730.468 706.811Z" fill="url(#paint3_linear_390_2173)"/>
<path d="M590.423 658.576V701.278H588.25V706.812H672.93C680.753 706.812 687.093 700.476 687.093 692.658V667.192C687.093 659.375 680.753 653.039 672.93 653.039H588.25V658.573H590.423V658.576Z" fill="#E3C0B8"/>
<path d="M665.307 701.277H590.425V658.575H665.307C673.075 658.575 679.385 664.881 679.385 672.643V687.21C679.385 694.972 673.075 701.277 665.307 701.277Z" fill="#F3FAFE"/>
<path d="M574.698 599.255H700.634V653.024H574.698C566.478 653.024 559.807 646.357 559.807 638.144V614.132C559.807 605.919 566.478 599.252 574.698 599.252V599.255Z" fill="url(#paint4_linear_390_2173)"/>
<path d="M723.177 604.793V647.495H725.479V653.028H635.659C627.436 653.028 620.768 646.368 620.768 638.148V614.136C620.768 605.919 627.432 599.256 635.659 599.256H725.479V604.789H723.177V604.793Z" fill="#81DCDC"/>
<path d="M643.41 604.789H723.174V647.491H643.41C635.225 647.491 628.584 640.851 628.584 632.675V619.608C628.584 611.429 635.228 604.792 643.41 604.792V604.789Z" fill="#F3FAFE"/>
<path d="M604.571 558.551H736.157V599.242H604.571C599.47 599.242 595.33 595.105 595.33 590.008V567.788C595.33 562.692 599.47 558.554 604.571 558.554V558.551Z" fill="url(#paint5_linear_390_2173)"/>
<path d="M758.698 562.739V595.053H761.001V599.242H665.53C660.426 599.242 656.289 595.108 656.289 590.008V567.785C656.289 562.685 660.426 558.551 665.53 558.551H761.001V562.739H758.698Z" fill="#81DCDC"/>
<path d="M672.553 562.738H758.695V595.052H672.553C667.453 595.052 663.312 590.915 663.312 585.818V571.972C663.312 566.876 667.453 562.738 672.553 562.738Z" fill="#F3FAFE"/>
<defs>
<linearGradient id="paint0_linear_390_2173" x1="127.209" y1="311.97" x2="127.209" y2="908.619" gradientUnits="userSpaceOnUse">
<stop stop-color="white"/>
<stop offset="1" stop-color="white"/>
</linearGradient>
<linearGradient id="paint1_linear_390_2173" x1="641.033" y1="785.041" x2="641.033" y2="744.596" gradientUnits="userSpaceOnUse">
<stop stop-color="#E3C0B8"/>
<stop offset="1" stop-color="#F2E8E3"/>
</linearGradient>
<linearGradient id="paint2_linear_390_2173" x1="639.604" y1="693.848" x2="639.604" y2="749.836" gradientUnits="userSpaceOnUse">
<stop stop-color="#81DCDC"/>
<stop offset="1" stop-color="#81DCDC"/>
</linearGradient>
<linearGradient id="paint3_linear_390_2173" x1="678.166" y1="696.535" x2="678.166" y2="654.673" gradientUnits="userSpaceOnUse">
<stop stop-color="#E3C0B8"/>
<stop offset="1" stop-color="#F2E8E3"/>
</linearGradient>
<linearGradient id="paint4_linear_390_2173" x1="630.224" y1="583.989" x2="630.224" y2="631.013" gradientUnits="userSpaceOnUse">
<stop stop-color="#81DCDC"/>
<stop offset="1" stop-color="#81DCDC"/>
</linearGradient>
<linearGradient id="paint5_linear_390_2173" x1="665.74" y1="560.8" x2="665.74" y2="598.412" gradientUnits="userSpaceOnUse">
<stop stop-color="#81DCDC"/>
<stop offset="1" stop-color="#81DCDC"/>
</linearGradient>
</defs>
</svg>
