<svg width="327" height="274" viewBox="0 0 327 274" fill="none" xmlns="http://www.w3.org/2000/svg">
<path d="M310.358 201.844L298.161 253.376H295.562L309.103 195.443L310.358 201.844Z" fill="#716962"/>
<path d="M302.582 146.725L315.395 253.376H318.131L304.999 145.803L302.582 146.725Z" fill="#8A8077"/>
<path d="M318.81 252.693H314.637V254.674H318.81V252.693Z" fill="#716962"/>
<path d="M299.06 252.693H294.887V254.674H299.06V252.693Z" fill="#716962"/>
<path d="M316.898 132.284L287.146 135.893L289.209 152.877L318.961 149.269L316.898 132.284Z" fill="#EAD1CB"/>
<path d="M316.701 130.661L286.949 134.27L287.146 135.894L316.898 132.285L316.701 130.661Z" fill="#E3C0B8"/>
<path d="M9.10091 257.334H85.0627C88.1573 257.334 90.666 254.827 90.666 251.735L90.666 60.7444C90.666 57.652 88.1573 55.1451 85.0627 55.1451H9.10091C6.00627 55.1451 3.49757 57.652 3.49757 60.7444L3.49757 251.735C3.49757 254.827 6.00627 257.334 9.10091 257.334Z" fill="#B7CACC"/>
<path d="M5.6031 258.887H97.3888C100.483 258.887 102.992 256.38 102.992 253.287L102.992 58.9343C102.992 55.8419 100.483 53.335 97.3888 53.335H5.6031C2.50847 53.335 -0.000236511 55.8419 -0.000236511 58.9343L-0.000236511 253.287C-0.000236511 256.38 2.50847 258.887 5.6031 258.887Z" fill="#424041"/>
<g style="mix-blend-mode:screen" opacity="0.73">
<path d="M88.8034 55.1484H12.8416C9.74698 55.1484 7.23828 57.6553 7.23828 60.7477V251.735C7.23828 254.827 9.74698 257.334 12.8416 257.334H88.8034C91.898 257.334 94.4067 254.827 94.4067 251.735V60.7477C94.4067 57.6553 91.898 55.1484 88.8034 55.1484Z" fill="#81DCDC"/>
</g>
<path style="mix-blend-mode:screen" opacity="0.97" d="M12.8377 55.1445H95.8827C98.976 55.1445 101.486 57.6542 101.486 60.7438V251.737C101.486 254.828 98.9746 257.336 95.8827 257.336H12.8377C9.74434 257.336 7.23438 254.827 7.23438 251.737V60.7438C7.23438 57.6527 9.74581 55.1445 12.8377 55.1445Z" fill="url(#paint0_linear_401_3507)"/>
<path d="M44.0006 90.7546C43.6273 90.7546 43.282 90.69 42.9631 90.5637C42.6442 90.436 42.3665 90.2627 42.1328 90.0454C41.8992 89.828 41.7125 89.5725 41.5744 89.2788C41.4363 88.9866 41.3672 88.6709 41.3672 88.3302C41.3672 87.9895 41.4363 87.687 41.5744 87.3889C41.7125 87.0908 41.8992 86.8353 42.1328 86.6238C42.3665 86.4109 42.6442 86.2405 42.9631 86.1128C43.282 85.985 43.6288 85.9219 44.0006 85.9219C44.3724 85.9219 44.706 85.985 45.0307 86.1128C45.3555 86.2405 45.6347 86.4109 45.8698 86.6238C46.1035 86.8367 46.2901 87.0923 46.4283 87.3889C46.5664 87.687 46.6355 88.0012 46.6355 88.3302C46.6355 88.6591 46.5664 88.9866 46.4283 89.2788C46.2901 89.571 46.1035 89.8266 45.8698 90.0454C45.6362 90.2642 45.3555 90.436 45.0307 90.5637C44.706 90.6915 44.3621 90.7546 44.0006 90.7546ZM42.2592 96.6594L46.7619 91.4096L50.9133 85.9527L51.8876 86.8147L47.529 91.9691L43.2335 97.5229L42.2592 96.6609V96.6594ZM44.0006 89.6856C44.1608 89.6856 44.3063 89.6489 44.44 89.574C44.5737 89.4991 44.6928 89.4007 44.7986 89.2788C44.9044 89.1569 44.9881 89.013 45.0454 88.8486C45.1042 88.6841 45.1336 88.5108 45.1336 88.3302C45.1336 87.9587 45.0219 87.6415 44.7986 87.3815C44.5752 87.1216 44.3092 86.9909 44.0006 86.9909C43.8404 86.9909 43.6949 87.0276 43.5612 87.1025C43.4275 87.1774 43.3085 87.2758 43.2026 87.3977C43.0968 87.5196 43.0131 87.6606 42.9558 87.8206C42.897 87.9807 42.8676 88.151 42.8676 88.3316C42.8676 88.7046 42.9793 89.0233 43.2026 89.2891C43.426 89.5549 43.692 89.6885 44.0006 89.6885V89.6856ZM50.1638 97.5684C49.7906 97.5684 49.4452 97.5052 49.1263 97.3775C48.8075 97.2497 48.5297 97.0794 48.2961 96.8664C48.0624 96.6535 47.8758 96.4009 47.7376 96.1087C47.5995 95.8165 47.5304 95.4993 47.5304 95.1586C47.5304 94.8179 47.5995 94.5022 47.7376 94.2085C47.8758 93.9163 48.0624 93.6608 48.2961 93.4434C48.5297 93.2261 48.8075 93.0528 49.1263 92.925C49.4452 92.7973 49.792 92.7341 50.1638 92.7341C50.5356 92.7341 50.8824 92.7988 51.2013 92.925C51.5202 93.0528 51.8009 93.2261 52.0404 93.4434C52.28 93.6622 52.4666 93.9163 52.5989 94.2085C52.7311 94.5007 52.7987 94.8179 52.7987 95.1586C52.7987 95.4993 52.7326 95.815 52.5989 96.1087C52.4651 96.4009 52.28 96.6535 52.0404 96.8664C51.8009 97.0794 51.5217 97.2497 51.2013 97.3775C50.8824 97.5052 50.5356 97.5684 50.1638 97.5684ZM50.1638 96.4993C50.324 96.4993 50.4695 96.4626 50.6032 96.3877C50.7355 96.3143 50.856 96.2144 50.9618 96.0926C51.0676 95.9707 51.1514 95.8297 51.2087 95.6696C51.2675 95.5096 51.2968 95.3407 51.2968 95.1586C51.2968 94.9677 51.2645 94.7885 51.2013 94.6241C51.1381 94.4596 51.0544 94.3157 50.9544 94.1938C50.853 94.0719 50.734 93.975 50.5959 93.906C50.4577 93.837 50.3137 93.8017 50.1653 93.8017C50.0051 93.8017 49.8596 93.8384 49.7259 93.9133C49.5922 93.9882 49.4731 94.0866 49.3673 94.2085C49.2601 94.3319 49.1778 94.4743 49.1205 94.6388C49.0617 94.8032 49.0323 94.9765 49.0323 95.1571C49.0323 95.5301 49.144 95.8459 49.3673 96.1072C49.5907 96.3686 49.8567 96.4979 50.1653 96.4979L50.1638 96.4993Z" fill="#81DCDC"/>
<path d="M21.1289 73.1534V70.1797H31.833V73.1534H21.1289ZM21.1289 79.202V76.2298H31.833V79.202H21.1289Z" fill="#81DCDC"/>
<path d="M48.7925 70.8398C48.5544 70.8398 48.3325 70.8001 48.1253 70.7223C47.9181 70.6445 47.7403 70.5343 47.5904 70.3933C47.4405 70.2524 47.3229 70.0879 47.2377 69.9014C47.1539 69.7134 47.1113 69.5078 47.1113 69.2817C47.1113 69.0556 47.1628 68.8353 47.2671 68.6385C47.37 68.4417 47.514 68.2743 47.6991 68.1363C47.8843 67.9983 48.1047 67.8911 48.3619 67.8132C48.6191 67.7354 48.8998 67.6957 49.2069 67.6957C49.4258 67.6957 49.6404 67.7148 49.8505 67.7516C50.0607 67.7883 50.2458 67.8426 50.409 67.9116V67.6297C50.409 67.3051 50.3164 67.054 50.1312 66.8793C49.9461 66.7045 49.6727 66.6164 49.3097 66.6164C49.0467 66.6164 48.7895 66.6634 48.5397 66.7574C48.2884 66.8514 48.0327 66.9894 47.7697 67.17L47.3847 66.3726C48.0166 65.9541 48.6999 65.7441 49.4317 65.7441C50.1636 65.7441 50.6882 65.9174 51.0791 66.2655C51.47 66.612 51.6654 67.1142 51.6654 67.7721V69.3023C51.6654 69.433 51.6889 69.5269 51.736 69.5842C51.783 69.64 51.8594 69.6723 51.9667 69.6782V70.7487C51.7536 70.7928 51.5699 70.8148 51.4127 70.8148C51.1746 70.8148 50.9909 70.7619 50.863 70.6547C50.7352 70.549 50.6544 70.408 50.6235 70.2318L50.5956 69.9601C50.3766 70.248 50.1106 70.4668 49.7976 70.6166C49.4846 70.7663 49.1496 70.8412 48.7925 70.8412V70.8398ZM49.1496 69.9205C49.3627 69.9205 49.564 69.8838 49.755 69.8074C49.9461 69.7325 50.0945 69.6327 50.2003 69.5079C50.3384 69.4021 50.4075 69.2832 50.4075 69.151V68.5886C50.2576 68.5328 50.0945 68.4873 49.9196 68.452C49.7447 68.4182 49.5743 68.4006 49.4126 68.4006C49.0864 68.4006 48.8204 68.474 48.6147 68.6209C48.4075 68.7677 48.3046 68.9542 48.3046 69.1789C48.3046 69.3918 48.3854 69.5681 48.5485 69.709C48.7116 69.85 48.9115 69.9205 49.1496 69.9205Z" fill="#81DCDC"/>
<path d="M18.3561 104.79C17.9799 104.79 17.6448 104.705 17.3509 104.536C17.057 104.367 16.8248 104.135 16.6559 103.842V104.696H15.5566V97.8457H16.8146V100.642C16.9894 100.342 17.2202 100.109 17.5052 99.9427C17.7903 99.7768 18.1239 99.6945 18.506 99.6945C18.8249 99.6945 19.1159 99.7635 19.3789 99.9016C19.642 100.04 19.8683 100.223 20.0593 100.455C20.2503 100.687 20.3973 100.959 20.5002 101.272C20.6045 101.584 20.6559 101.913 20.6559 102.257C20.6559 102.601 20.5986 102.946 20.4825 103.251C20.3664 103.558 20.2048 103.825 19.999 104.053C19.7918 104.282 19.5479 104.461 19.2657 104.592C18.9836 104.723 18.6794 104.789 18.3546 104.789L18.3561 104.79ZM18.0078 103.721C18.2092 103.721 18.3928 103.681 18.5618 103.604C18.7308 103.526 18.8749 103.42 18.9939 103.289C19.1129 103.159 19.2055 103.004 19.2702 102.83C19.3363 102.655 19.3686 102.467 19.3686 102.266C19.3686 102.065 19.3378 101.875 19.2746 101.693C19.2114 101.512 19.1232 101.352 19.0071 101.214C18.891 101.076 18.7544 100.968 18.5986 100.885C18.4413 100.805 18.2694 100.764 18.0813 100.764C17.7992 100.764 17.5479 100.856 17.326 101.04C17.1041 101.225 16.9321 101.451 16.8146 101.72V102.893C16.8586 103.018 16.9233 103.131 17.0071 103.231C17.0908 103.33 17.1864 103.417 17.2936 103.489C17.3994 103.561 17.5155 103.617 17.6404 103.658C17.7654 103.699 17.8873 103.72 18.0064 103.72L18.0078 103.721Z" fill="#81DCDC"/>
<path d="M76.9295 76.5391H163.307C169.685 76.5391 174.862 81.7125 174.862 88.0857V224.44C174.862 230.813 169.685 235.986 163.307 235.986H76.928C70.5502 235.986 65.373 230.813 65.373 224.44V88.0872C65.373 81.714 70.5502 76.5405 76.928 76.5405L76.9295 76.5391Z" fill="#81DCDC"/>
<path d="M163.233 179.51H157.561V222.652H163.233V179.51Z" fill="#EBF8FF"/>
<path d="M152.024 184.344H146.352V222.65H152.024V184.344Z" fill="#EBF8FF"/>
<path d="M139.846 190.635H134.174V222.653H139.846V190.635Z" fill="#EBF8FF"/>
<path d="M127.342 198.562H121.67V222.651H127.342V198.562Z" fill="#EBF8FF"/>
<path d="M87.8179 193.452L86.5879 193.014L97.2861 163.025L120.484 156.893L128.822 123.978L146.724 116.082L150.733 90.4883L152.023 90.6909L147.904 116.988L129.932 124.915L121.561 157.958L98.2839 164.11L87.8179 193.452Z" fill="#EBF8FF"/>
<path d="M123.719 155.222C124.935 156.71 124.715 158.901 123.226 160.117C121.738 161.332 119.545 161.112 118.327 159.625C117.11 158.137 117.331 155.945 118.819 154.729C120.308 153.513 122.502 153.733 123.719 155.221V155.222Z" fill="#81DCDC"/>
<path d="M123.639 160.624C121.874 162.066 119.264 161.804 117.822 160.04C116.379 158.276 116.642 155.668 118.407 154.228C120.172 152.786 122.782 153.049 124.225 154.812C125.668 156.576 125.405 159.184 123.64 160.626L123.639 160.624ZM119.233 155.237C118.025 156.223 117.846 158.008 118.833 159.213C119.821 160.42 121.606 160.599 122.813 159.613C124.021 158.626 124.2 156.842 123.212 155.636C122.225 154.429 120.439 154.25 119.233 155.237Z" fill="#EBF8FF"/>
<path d="M132.163 122.446C133.379 123.933 133.159 126.126 131.67 127.342C130.182 128.558 127.989 128.337 126.772 126.85C125.555 125.362 125.776 123.171 127.265 121.955C128.753 120.739 130.946 120.96 132.163 122.447V122.446Z" fill="#81DCDC"/>
<path d="M132.087 127.843C130.322 129.285 127.712 129.022 126.269 127.258C124.826 125.495 125.089 122.887 126.854 121.445C128.619 120.002 131.229 120.265 132.672 122.029C134.115 123.793 133.852 126.401 132.087 127.843ZM127.682 122.456C126.474 123.443 126.294 125.227 127.282 126.433C128.269 127.64 130.055 127.819 131.263 126.832C132.471 125.846 132.65 124.061 131.663 122.856C130.675 121.649 128.89 121.469 127.682 122.456Z" fill="#EBF8FF"/>
<path d="M149.791 114.324C151.008 115.812 150.788 118.003 149.299 119.219C147.81 120.435 145.618 120.214 144.401 118.727C143.184 117.239 143.405 115.047 144.893 113.832C146.382 112.616 148.576 112.837 149.793 114.324H149.791Z" fill="#81DCDC"/>
<path d="M149.712 119.724C147.947 121.166 145.337 120.903 143.894 119.139C142.451 117.375 142.714 114.767 144.479 113.325C146.244 111.883 148.854 112.146 150.296 113.91C151.739 115.673 151.476 118.281 149.711 119.722L149.712 119.724ZM145.307 114.337C144.099 115.324 143.919 117.108 144.907 118.314C145.894 119.521 147.68 119.7 148.886 118.713C150.094 117.726 150.274 115.942 149.286 114.737C148.299 113.531 146.513 113.35 145.305 114.337H145.307Z" fill="#EBF8FF"/>
<path d="M100.611 161.664C101.828 163.151 101.608 165.342 100.119 166.558C98.6303 167.774 96.4378 167.554 95.2195 166.066C94.0028 164.578 94.2232 162.386 95.7118 161.17C97.2005 159.954 99.3945 160.175 100.611 161.662V161.664Z" fill="#81DCDC"/>
<path d="M100.531 167.062C98.7657 168.504 96.1558 168.241 94.7128 166.477C93.2697 164.714 93.5327 162.106 95.2976 160.665C97.0625 159.223 99.6724 159.486 101.114 161.25C102.557 163.013 102.294 165.621 100.529 167.063L100.531 167.062ZM96.125 161.676C94.917 162.662 94.7377 164.447 95.7253 165.652C96.7128 166.859 98.4983 167.038 99.7048 166.052C100.911 165.065 101.092 163.281 100.104 162.073C99.117 160.866 97.3315 160.687 96.1235 161.674L96.125 161.676Z" fill="#EBF8FF"/>
<path d="M79.506 121.801H109.361C110.74 121.801 111.859 122.92 111.859 124.297V126.519C111.859 127.896 110.74 129.015 109.361 129.015H79.506C78.1261 129.015 77.0078 127.896 77.0078 126.519V124.299C77.0078 122.921 78.1276 121.802 79.506 121.802V121.801Z" fill="#F0F4F5"/>
<path d="M79.506 109.182H109.361C110.741 109.182 111.859 110.301 111.859 111.678V113.898C111.859 115.276 110.74 116.395 109.361 116.395H79.506C78.1261 116.395 77.0078 115.276 77.0078 113.898V111.678C77.0078 110.299 78.1276 109.182 79.506 109.182Z" fill="#F0F4F5"/>
<path d="M47.7471 119.215C47.7471 119.215 46.736 129.174 48.5774 131.673C48.5774 131.673 43.7014 130.612 42.5728 128.935C41.4442 127.258 47.7456 119.215 47.7456 119.215H47.7471Z" fill="#182536"/>
<path d="M78.1904 151.018C78.1904 151.018 79.9598 149.83 80.2346 149.659C80.5108 149.485 81.419 149.515 82.458 149.638C83.4984 149.761 84.8474 150.394 84.9297 150.554C85.0105 150.716 85.1678 150.841 85.1031 151.299C85.0385 151.757 84.7299 152.11 84.7299 152.11C84.7299 152.11 84.915 152.713 84.5036 153.118C84.5036 153.118 84.652 153.694 84.1097 154.077C84.1097 154.077 84.239 154.643 83.8217 154.888C83.8217 154.888 82.9106 154.861 82.5711 154.948C82.2317 155.035 80.3418 154.85 78.5563 154.392C78.5563 154.392 76.5666 153.964 78.1904 151.018Z" fill="#E3C0B8"/>
<path d="M81.1999 151.844C81.1999 151.844 80.6679 152.772 80.3858 152.957C80.1051 153.142 81.748 154.908 81.748 154.908C81.748 154.908 82.3123 152.522 81.2014 151.845L81.1999 151.844Z" fill="#DDB6AB"/>
<path d="M77.1421 151.19C77.1421 151.19 78.256 151.067 78.9422 150.749C79.63 150.432 78.8129 154.212 78.8129 154.212C78.8129 154.212 77.1465 153.064 76.059 153.03C74.9716 152.996 77.1406 151.19 77.1406 151.19H77.1421Z" fill="#E3C0B8"/>
<path d="M31.0397 251.842C31.0397 251.842 34.5181 256.925 35.7319 258.002C35.7319 258.002 38.1582 259.261 38.2331 260.267C38.3756 262.169 38.4756 263.287 35.2837 263.377C32.0919 263.467 30.0948 263.367 29.5099 261.436C28.9251 259.503 27.917 257.988 27.917 257.988L27.673 263.014H26.9529C26.9529 263.014 26.6311 257.976 26.587 257.256C26.5415 256.537 26.0698 253.773 27.5878 252.55C29.1058 251.327 31.0382 251.842 31.0382 251.842H31.0397Z" fill="#424041"/>
<path d="M36.1911 258.264C36.1911 258.264 34.4644 258.75 32.4129 258.233C30.36 257.716 28.3894 252.805 27.7898 252.397L27.2578 250.416H31.2594C31.2594 250.416 31.2917 251.882 31.9383 253.137C32.5849 254.393 36.1911 258.264 36.1911 258.264Z" fill="#E3C0B8"/>
<path d="M53.6173 249.944C53.6173 249.944 54.1389 251.176 55.1235 252.459C55.8451 253.401 58.0905 257.267 59.0795 257.536C60.0685 257.806 63.1266 258.345 63.3956 260.051C63.6659 261.759 63.7997 262.972 60.7871 263.107C57.7746 263.242 55.7966 263.422 54.3579 261.31C52.9192 259.198 50.6267 257.671 50.6267 257.671V263.181H49.457C49.457 263.181 48.9177 257.446 48.6032 257.043C48.2887 256.639 47.479 252.235 50.2667 249.944C53.0544 247.653 53.6158 249.944 53.6158 249.944H53.6173Z" fill="#424041"/>
<path d="M59.0809 257.537C59.0809 257.537 56.3829 258.211 55.3498 257.537C54.3152 256.863 50.8001 250.924 49.6348 250.569C49.6348 250.569 50.7634 248.281 53.6187 249.943C53.6187 249.943 58.3168 256.549 59.0809 257.537Z" fill="#E3C0B8"/>
<path d="M29.5056 167.432C29.5056 167.432 25.701 172.375 24.6693 178.237C23.6377 184.101 25.2792 203.78 25.2336 206.677C25.1881 209.575 22.6752 218.592 23.2145 224.051C23.7538 229.509 26.5797 252.295 26.5797 252.295L33.1706 252.178C33.1706 252.178 31.8495 227.591 32.1875 225.3C32.5255 223.01 33.5982 213.26 33.732 212.316C33.8672 211.373 41.2398 186.422 41.2398 182.195C41.2398 177.967 38.677 160.535 29.5056 167.432Z" fill="#424041"/>
<path d="M48.6151 169.363C48.6151 169.363 54.8651 193.197 55.6072 196.5C56.3493 199.803 57.8335 204.116 57.7659 204.722C57.6983 205.329 56.9797 215.505 56.9797 215.505L55.2045 250.145H48.6181C48.6181 250.145 46.5049 228.108 46.1684 223.66C45.8318 219.212 48.596 212.338 47.9215 210.451C47.247 208.564 37.0631 186.795 37.0631 186.795C37.0631 186.795 29.3525 162.443 48.6181 169.363H48.6151Z" fill="#424041"/>
<path d="M46.6828 133.689C46.6828 133.689 49.1825 133.924 51.0709 135.947C52.9592 137.969 54.7315 141.192 55.2267 142.271C55.722 143.349 62.6538 153.342 63.0138 153.567C63.3738 153.791 66.404 152.996 68.8317 152.793C72.7936 152.462 78.7202 150.446 78.7202 150.446L79.6004 154.919C79.6004 154.919 65.0241 159.62 61.6604 158.792C57.5471 157.778 48.0774 145.64 48.0774 145.64C48.0774 145.64 41.0178 137.372 46.6843 133.689H46.6828Z" fill="#F2EAE9"/>
<path d="M42.3196 131.937C42.3196 131.937 45.5569 133.465 46.6811 133.689C47.8053 133.914 52.1669 139.575 52.9311 141.641C53.6952 143.707 52.9311 146.809 51.3572 150.448C49.7833 154.086 51.2676 155.299 50.5475 158.94C49.8274 162.579 49.8289 172.5 49.9641 174.522C50.0993 176.544 29.1496 180.357 24.9688 176.673C24.9688 176.673 27.7991 167.348 31.1511 163.846C31.8756 163.088 31.7992 158.041 31.3054 156.784C30.8102 155.526 25.2362 146.136 25.2362 146.136C25.2362 146.136 24.8262 136.612 27.2598 134.725C29.3729 133.084 35.1321 132.5 36.1666 132.14C37.2012 131.78 40.2093 131.625 42.3225 131.939L42.3196 131.937Z" fill="#F2EAE9"/>
<path d="M43.3565 139.149L45.3242 136.848L43.6166 130.787C43.6166 130.787 43.0435 134.162 43.3579 139.149H43.3565Z" fill="#DDDBD9"/>
<path d="M31.0242 133.69C31.0242 133.69 26.9433 132.521 24.6052 137.014C22.2672 141.508 22.8521 143.934 22.3128 145.956C21.7734 147.978 19.6147 161.501 19.4795 162.086C19.3443 162.67 17.2767 169.544 17.5456 171.656C17.816 173.767 19.7484 189.762 19.6588 190.301C19.5691 190.84 23.3899 189.784 23.3899 189.784C23.3899 189.784 23.2327 173.452 23.3679 172.104C23.5031 170.755 23.6383 163.679 24.6493 161.859C25.6604 160.04 28.1571 148.919 28.6964 147.774C29.2357 146.628 34.4629 135.149 31.0227 133.688L31.0242 133.69Z" fill="#E3C0B8"/>
<path d="M43.8664 128.203C43.8664 128.203 43.2213 134.137 43.355 136.07C43.355 136.07 39.9912 139.439 36.166 132.137C36.166 132.137 37.7766 129.128 36.5643 125.028C35.3519 120.928 43.8664 128.203 43.8664 128.203Z" fill="#E3C0B8"/>
<path d="M43.3533 136.072V139.149L39.7383 135.947L43.3533 136.072Z" fill="#E3C0B8"/>
<path d="M43.3556 139.148L41.7479 137.16L36.3341 131.768L34.3047 132.669L43.3556 139.148Z" fill="#DDDBD9"/>
<path d="M45.3243 136.848L47.8019 137.532L43.6152 130.787L45.3243 136.848Z" fill="#FBF1EE"/>
<path d="M41.7481 137.161L39.4851 140.787L34.2227 132.54L36.4754 131.395L41.7481 137.161Z" fill="#FBF1EE"/>
<path d="M53.2847 151.79C53.2847 151.79 54.0944 146.408 53.2333 143.135C53.2333 143.135 52.7571 145.775 51.5977 149.89L53.2847 151.79Z" fill="#DDDBD9"/>
<path d="M28.1367 151.076C28.1367 151.076 30.3763 143.677 30.5086 143.271C30.5086 143.271 30.3557 150.072 29.4975 153.438C29.4975 153.438 28.6731 152.002 28.1367 151.076Z" fill="#DDDBD9"/>
<path d="M111.512 113.99L76.2871 158.34L77.5156 159.287L111.512 113.99Z" fill="#6A4036"/>
<path d="M84.6574 150.512C84.6574 150.512 82.0137 150.264 81.9211 150.684C81.8285 151.104 82.0504 151.316 82.0504 151.316L80.916 151.706C80.916 151.706 80.3105 152.389 81.2319 152.849C81.2319 152.849 80.6 153.427 81.5434 153.765C81.5434 153.765 81.298 154.333 81.7066 154.565C82.1151 154.799 83.8227 154.888 83.8227 154.888C83.8227 154.888 84.243 154.769 84.1622 154.101C84.1622 154.101 84.7441 153.762 84.5971 153.139C84.5971 153.139 84.9763 152.799 84.8102 152.128C84.8102 152.128 85.545 151.289 84.9307 150.553C84.9307 150.553 84.7705 150.52 84.6589 150.511L84.6574 150.512Z" fill="#E7C5BC"/>
<path d="M80.3191 149.66C80.3191 149.66 81.8562 150.638 82.4602 151.541C82.5969 151.745 82.6924 151.968 82.5543 152.171C82.4161 152.375 81.9459 152.434 81.2581 152.043C80.5704 151.652 79.5035 151.463 79.5035 151.463C79.5035 151.463 78.9142 150.855 80.3191 149.658V149.66Z" fill="#E3C0B8"/>
<path d="M41.1386 108.006C41.1386 108.006 47.0975 107.852 48.1938 114.902C49.2901 121.952 46.7551 128.148 45.7617 129.14C44.7683 130.133 38.8093 129.38 37.4045 125.717C35.9996 122.055 33.9452 119.385 34.2538 116.237C34.5624 113.088 33.8085 107.886 41.1386 108.006Z" fill="#E3C0B8"/>
<path d="M48.4477 117.57C48.4477 117.57 50.0436 108.775 42.1316 107.201C34.2197 105.627 31.4452 111.034 30.6913 114.251C29.9374 117.469 30.8295 126.538 30.8295 126.538C30.8295 126.538 36.1036 131.158 39.2543 132.356C39.2543 132.356 36.6165 122.704 37.6099 115.79C37.6099 115.79 44.0391 116.799 48.3081 115.746C48.3081 115.746 48.436 117.19 48.4477 117.567V117.57Z" fill="#2E2E2E"/>
<path d="M43.7319 129.527C43.7319 129.527 41.6613 129.514 38.8457 127.686C38.8457 127.686 40.8281 130.172 43.5879 131.081C43.5879 131.081 43.7525 129.844 43.7304 129.527H43.7319Z" fill="#C9B2B5"/>
<path d="M31.9603 174.943L8.94336 178.697L11.7218 195.708L34.7387 191.954L31.9603 174.943Z" fill="#81DCDC"/>
<path d="M18.8641 195.407C18.8641 195.407 18.5026 194.821 18.4703 194.488C18.4703 194.488 18.457 193.877 18.4218 193.444C18.41 193.306 18.3968 193.187 18.3806 193.111C18.3116 192.792 18.0632 192.112 18.1117 191.298C18.1602 190.486 19.2712 187.035 19.2712 187.035L21.3079 187.106L23.2242 186.9C23.2242 186.9 25.5402 191.318 25.5828 192.08C25.5872 192.155 25.5872 192.228 25.5828 192.297C25.5564 192.946 25.2639 193.417 25.211 193.757C25.1905 193.882 24.9068 195.103 24.5718 195.272C24.1059 195.506 23.6886 195.479 23.38 195.3C23.38 195.3 22.4483 195.717 21.7841 195.537C21.7841 195.537 20.9362 195.949 20.1749 195.49C20.1749 195.49 19.2682 195.811 18.8641 195.41V195.407Z" fill="#E3C0B8"/>
<path d="M31.0251 133.69C31.0251 133.69 26.9442 132.521 24.6061 137.014C22.2681 141.508 22.2799 143.424 21.9669 145.618C21.6715 147.69 18.8206 159.996 18.6854 160.579C18.5502 161.163 17.6126 168.855 17.5465 171.654C17.4965 173.782 17.9962 187.738 17.9065 188.277C17.8169 188.816 24.3637 187.333 24.3637 187.333C24.3637 187.333 23.6392 174.462 23.7744 173.114C23.9096 171.766 24.1961 165.048 24.856 163.072C25.6304 160.752 28.687 149.065 29.2264 147.919C29.7657 146.774 34.4638 135.149 31.0251 133.688V133.69Z" fill="#F2EAE9"/>
<path d="M113.513 56.1191L113.416 77.5176L114.277 77.5215L114.374 56.123L113.513 56.1191Z" fill="#C1AAB0"/>
<path d="M113.829 76.8423V76.8379C113.829 76.8379 113.838 76.8394 113.843 76.8408C113.847 76.8408 113.851 76.8394 113.856 76.8394V76.8438C115.885 76.948 115.603 87.386 115.603 87.386L113.807 87.3786H113.781L111.985 87.3698C111.985 87.3698 111.797 76.9289 113.828 76.8438L113.829 76.8423Z" fill="#C1AAB0"/>
<path d="M63.4136 48.1763L43.6895 36.496L85.0775 25.293L130.793 58.3895L105.861 63.5307L63.4136 48.1763Z" fill="#2E2E2E"/>
<path d="M62.877 53.3355C62.877 53.3355 81.809 53.2827 102.992 67.1759L107.78 60.1522C107.78 60.1522 93.5844 41.7962 63.3546 46.0063L62.8784 53.3355H62.877Z" fill="#424041"/>
<path d="M282.675 188.542C282.656 234.25 281.376 243.197 269.888 253.438C265.39 257.449 257.118 265.781 233.248 269.928C226.083 271.173 217.514 272.042 207.221 272.304C203.022 272.411 199.167 272.258 195.64 271.875C192.683 271.555 189.957 271.072 187.453 270.446C161.221 263.878 159.26 241.417 170.734 222.522C173.773 217.519 177.244 212.92 180.886 208.63C186.505 202.008 192.529 196.125 197.985 190.633C203.014 185.572 207.559 180.845 210.864 176.177C212.259 174.211 213.432 172.255 214.327 170.289C214.54 169.823 214.754 169.362 214.969 168.907C215.676 167.421 216.402 165.993 217.135 164.628C218.512 162.062 219.915 159.717 221.269 157.62C222.347 155.943 223.395 154.425 224.371 153.078C227.721 148.451 230.209 145.853 230.209 145.853C230.209 145.853 230.521 145.708 231.094 145.47C231.398 145.342 231.78 145.189 232.229 145.017C232.409 144.948 232.599 144.876 232.8 144.802C232.999 144.728 233.209 144.652 233.429 144.574C233.63 144.503 233.839 144.43 234.057 144.357C234.311 144.27 234.575 144.182 234.852 144.092C235.013 144.039 235.178 143.987 235.347 143.934C235.447 143.903 235.547 143.871 235.65 143.84C235.688 143.828 235.726 143.816 235.766 143.805C239.171 142.762 243.844 141.674 248.927 141.493C264.003 140.956 282.694 148.385 282.676 188.542H282.675Z" fill="#E3C0B8"/>
<path d="M221.65 257.352C221.65 257.352 222.026 260.417 222.525 261.768C223.023 263.119 225.728 266.24 224.585 269.235C223.346 272.485 217.937 269.353 215.731 268.362C213.525 267.37 214.028 265.571 213.793 263.369C213.557 261.165 212.48 261.106 212.878 259.557C213.275 258.007 215.688 255.041 215.688 255.041L221.652 257.354L221.65 257.352Z" fill="#424041"/>
<path d="M216.728 253.438C216.728 253.438 215.343 255.373 215.382 255.427C215.42 255.48 221.313 259.065 221.723 257.902C222.049 256.978 222.186 255.64 222.186 255.64L216.729 253.438H216.728Z" fill="#E3C0B8"/>
<path d="M196.753 259.52C196.753 259.52 194.955 261.094 193.34 263.515C191.725 265.935 187.44 266.062 187.258 269.365C187.076 272.668 193.085 272.77 196.24 271.694C199.395 270.619 199.872 267.393 201.78 266.587C203.687 265.78 204.678 265.127 204.532 263.553C204.385 261.978 203.33 259.422 203.33 259.422C203.33 259.422 202.144 259.799 201.448 259.877C200.751 259.955 198.406 259.981 196.754 259.52H196.753Z" fill="#424041"/>
<path d="M218.381 170.033C218.381 170.033 217.171 177.219 216.197 181.965C215.802 183.891 215.445 185.415 215.223 185.894C214.944 186.497 212.675 188.933 209.896 191.791C205.021 196.806 198.582 203.119 198.582 203.119L196.064 198.343C196.064 198.343 201.785 191.643 205.662 187.171C207.456 185.102 208.857 183.51 209.114 183.281C209.925 182.556 210.866 175.415 212.188 169.532C213.511 163.648 216.162 160.396 216.162 160.396L218.381 170.033Z" fill="#F2E9E3"/>
<path d="M209.896 191.79C205.021 196.805 198.582 203.118 198.582 203.118L196.064 198.342C196.064 198.342 201.785 191.641 205.662 187.17C206.851 187.753 209.033 189.142 209.896 191.79Z" fill="#E3C0B8"/>
<path d="M197.036 257.32L196.754 259.52C196.754 259.52 199.883 260.624 203.33 259.422L203.401 257.466L197.038 257.32H197.036Z" fill="#E3C0B8"/>
<path d="M241.449 202.146C241.629 202.786 208.311 202.146 208.311 202.146C208.311 202.146 217.527 195.442 218.124 193.652C218.721 191.86 215.777 181.117 215.394 177.621C215.087 174.823 214.317 162.306 216.162 160.395C218.092 158.397 225.037 156.303 225.037 156.303L235.163 156.679C235.163 156.679 236.834 157.028 238.029 157.582C239.224 158.135 246.056 160.567 247.165 163.978C248.275 167.39 240.348 178.356 240.348 178.356C240.348 178.356 240.332 178.85 240.308 179.657C240.277 180.735 240.232 182.371 240.191 184.147C240.138 186.446 240.091 188.978 240.091 190.828C240.091 195.176 241.268 201.508 241.447 202.147L241.449 202.146Z" fill="#F2E9E3"/>
<path d="M241.449 202.146C241.449 202.146 245.981 208.797 246.044 213.338C246.109 217.878 238.002 233.087 236.776 235.263C233.089 241.804 222.974 255.912 222.974 255.912C222.974 255.912 221.231 255.868 215.791 253.757C215.791 253.757 222.519 235.122 223.372 233.187C226.989 224.983 229.008 219.162 227.793 217.755C226.577 216.348 223.262 214.937 222.301 214.106C221.341 213.274 204.617 217.263 202.865 217.718C198.327 218.894 200.396 226.783 201.4 230.321C203.08 236.239 204.548 257.609 204.548 257.609C204.548 257.609 201.316 258.985 195.902 257.822C195.902 257.822 185.272 219.235 184.931 215.398C184.59 211.561 184.422 205.233 210.618 200.424L241.451 202.148L241.449 202.146Z" fill="#EEF2F3"/>
<path d="M227.814 134.316C227.814 134.316 219.023 132.335 221.03 143.389C223.038 154.444 225.152 155.313 230.456 153.026C235.76 150.738 235.285 143.655 235.551 140.182C235.818 136.709 230.616 134.438 227.812 134.317L227.814 134.316Z" fill="#E3C0B8"/>
<path d="M225.491 159.138C225.491 159.138 229.384 163.263 235.537 159.514C235.537 159.514 234.161 150.575 234.884 146.221C235.609 141.867 226.856 152.968 226.856 152.968C226.971 153.028 227.047 153.443 227.065 154.035C227.08 154.536 227.053 155.163 226.972 155.806C226.792 157.254 226.341 158.781 225.488 159.138H225.491Z" fill="#E3C0B8"/>
<path d="M235.125 145.854C235.125 145.854 234.899 142.37 233.624 142.262C232.352 142.153 232.155 143.556 232.155 143.556L230.869 143.798C230.869 143.798 231.275 140.745 230.005 140.212C228.734 139.679 221.768 141.892 220.748 140.996C219.729 140.1 220.208 133.908 222.053 133.06C223.899 132.213 228.995 130.314 232.73 132.84C232.73 132.84 235.641 132.508 236.071 134.856C236.503 137.203 235.915 144.109 235.123 145.854H235.125Z" fill="#2E2E2E"/>
<path d="M226.974 155.805C233.323 153.849 233.8 150.029 233.806 149.971C231.716 153.56 227.065 154.034 227.065 154.034C227.08 154.535 227.053 155.162 226.973 155.805H226.974Z" fill="#C9B2B5"/>
<path d="M238.134 157.629C238.134 157.629 233.486 166.876 225.976 166.28C218.467 165.683 224.696 156.388 225.037 156.303C225.412 156.209 232.739 154.383 238.134 157.63V157.629Z" fill="#E3C0B8"/>
<path d="M204.498 201.678C204.498 201.678 227.508 204.512 241.448 202.146L214.811 198.82C214.811 198.82 214.654 199.499 204.498 201.678Z" fill="#F2E9E3"/>
<path d="M221.71 197.773L219.996 198.641C219.996 198.641 220.387 201.362 221.325 202.186L223.248 201.696C223.248 201.696 222.847 198.712 221.71 197.773Z" fill="#E3C0B8"/>
<path d="M248.334 192.203C247.992 192.6 243.468 194.418 238.357 196.385C231.376 199.073 223.502 201.615 223.502 201.615L221.709 197.775C221.709 197.775 229.956 193.297 235.528 190.156C238.16 188.673 240.196 187.488 240.484 187.213C241.38 186.36 241.612 184.993 240.953 182.608C240.294 180.223 238.776 169.263 238.606 167.984C238.435 166.705 239.032 163.293 242.233 163.123C245.433 162.953 247.061 163.856 247.061 163.856C247.061 163.856 247.865 164.189 248.462 171.95C249.06 179.709 249.145 191.265 248.334 192.203Z" fill="#F2E9E3"/>
<path d="M240.311 179.658C240.281 180.736 240.235 182.372 240.194 184.147C237.071 176.496 238.874 170.392 238.905 170.289C238.567 172.365 240.286 179.555 240.31 179.658H240.311Z" fill="#E3C0B8"/>
<path d="M216.197 181.963C215.801 183.888 215.444 185.412 215.222 185.891C214.156 180.732 215.115 174.127 215.115 174.127C215.261 177.283 216.197 181.963 216.197 181.963Z" fill="#E3C0B8"/>
<path d="M238.357 196.384C231.376 199.071 223.248 201.695 223.248 201.695L221.709 197.773C221.709 197.773 229.956 193.295 235.528 190.154C235.528 190.154 237.556 191.141 238.359 196.382L238.357 196.384Z" fill="#E3C0B8"/>
<path d="M221.21 201.925L188.506 201.443L205.018 209.821L221.21 201.925Z" fill="#AA9FC3"/>
<path d="M205.02 209.82L221.213 203.552V201.924L203.74 208.222L205.02 209.82Z" fill="#C1AAB0"/>
<path d="M220.365 198.701C220.365 198.701 218.322 198.384 216.91 198.055C215.817 197.801 213.101 198.151 212.409 198.853C211.717 199.553 209.517 204.436 209.1 204.734C208.684 205.032 209.313 205.721 210.045 205.376C210.045 205.376 210.716 207.512 212.372 206.712C214.028 205.912 215.153 204.166 216.021 203.859C216.888 203.55 221.94 202 221.94 202C221.94 202 221.669 198.183 220.368 198.703L220.365 198.701Z" fill="#E3C0B8"/>
<path d="M212.906 198.533C212.906 198.533 211.594 199.166 211.252 199.45C210.909 199.731 209.521 200.771 209.184 201.015C208.847 201.259 209.691 201.955 212.174 200.88C214.657 199.805 212.908 198.533 212.908 198.533H212.906Z" fill="#E3C0B8"/>
<path d="M205.02 209.819L195.292 183.279L163.932 183.79L173.203 208.248L205.02 209.819Z" fill="#C1AAB0"/>
<path d="M232.185 142.08C232.301 141.105 234.231 140.747 234.385 142.209C234.541 143.672 233.509 146.237 232.776 145.985C232.044 145.732 232.025 143.424 232.184 142.079L232.185 142.08Z" fill="#E3C0B8"/>
<path d="M153.172 0L204.621 0.236383L204.448 37.499L204.414 45.349L196.595 37.4645L153 37.2626L153.172 0Z" fill="#E3C0B8"/>
<path d="M174.875 20.2296C174.868 22.3989 176.622 24.162 178.793 24.1693C180.964 24.1767 182.728 22.4235 182.736 20.2542C182.743 18.0849 180.988 16.3219 178.818 16.3145C176.647 16.3071 174.882 18.0603 174.875 20.2296Z" fill="white"/>
<path d="M161.973 20.1847C161.965 22.354 163.72 24.117 165.891 24.1244C168.062 24.1318 169.826 22.3786 169.833 20.2093C169.841 18.04 168.086 16.2769 165.915 16.2696C163.744 16.2622 161.98 18.0154 161.973 20.1847Z" fill="white"/>
<path d="M187.488 20.2667C187.481 22.436 189.235 24.1991 191.406 24.2065C193.577 24.2138 195.341 22.4607 195.349 20.2913C195.356 18.122 193.602 16.359 191.431 16.3516C189.26 16.3442 187.496 18.0974 187.488 20.2667Z" fill="white"/>
<path d="M271.776 40.3574L319.795 40.578L319.634 75.3565L319.599 82.6831L312.304 75.3243L271.615 75.1359L271.776 40.3574Z" fill="#81DCDC"/>
<path d="M292.033 59.2362C292.026 61.2609 293.664 62.9064 295.69 62.9133C297.716 62.9202 299.363 61.2839 299.37 59.2592C299.377 57.2344 297.739 55.5889 295.713 55.5821C293.687 55.5752 292.04 57.2115 292.033 59.2362Z" fill="white"/>
<path d="M279.99 59.1971C279.983 61.2218 281.621 62.8673 283.647 62.8742C285.673 62.8811 287.32 61.2448 287.327 59.2201C287.334 57.1954 285.696 55.5499 283.67 55.543C281.644 55.5361 279.997 57.1724 279.99 59.1971Z" fill="white"/>
<path d="M303.803 59.2733C303.796 61.298 305.433 62.9435 307.46 62.9504C309.486 62.9573 311.132 61.321 311.139 59.2963C311.146 57.2716 309.509 55.6261 307.483 55.6192C305.456 55.6123 303.81 57.2486 303.803 59.2733Z" fill="white"/>
<path d="M246.934 257.445H308.338V273.668H246.934C244.461 273.668 242.453 271.662 242.453 269.19V261.923C242.453 259.451 244.461 257.445 246.934 257.445Z" fill="url(#paint1_linear_401_3507)"/>
<path d="M318.88 259.116V271.999H319.957V273.669H275.449C272.975 273.669 270.969 271.665 270.969 269.192V261.923C270.969 259.45 272.975 257.445 275.449 257.445H319.957V259.115H318.88V259.116Z" fill="#E3C0B8"/>
<path d="M278.738 259.115H318.883V271.998H278.738C276.265 271.998 274.258 269.992 274.258 267.521V263.593C274.258 261.121 276.265 259.115 278.738 259.115Z" fill="#F3FAFE"/>
<path d="M243.984 238.58H311.206V257.447H243.985C240.879 257.447 238.355 254.926 238.355 251.821V244.206C238.355 241.101 240.879 238.58 243.985 238.58H243.984Z" fill="url(#paint2_linear_401_3507)"/>
<path d="M323.128 240.523V255.506H324.056V257.447H287.495C284.385 257.447 281.865 254.929 281.865 251.821V244.206C281.865 241.099 284.385 238.58 287.495 238.58H324.056V240.521H323.128V240.523Z" fill="#81DCDC"/>
<path d="M290.323 240.518H323.126V255.5H290.323C287.217 255.5 284.693 252.979 284.693 249.875V246.143C284.693 243.039 287.217 240.518 290.323 240.518Z" fill="#F3FAFE"/>
<path d="M313.866 238.576H262.775V215.446H313.866C317.229 215.446 319.959 218.175 319.959 221.534V232.488C319.959 235.848 317.229 238.576 313.866 238.576Z" fill="url(#paint3_linear_401_3507)"/>
<path d="M253.624 217.827V236.196H252.689V238.577H289.116C292.482 238.577 295.209 235.851 295.209 232.488V221.534C295.209 218.171 292.482 215.445 289.116 215.445H252.689V217.826H253.624V217.827Z" fill="#E3C0B8"/>
<path d="M285.837 236.195H253.624V217.826H285.837C289.178 217.826 291.893 220.538 291.893 223.878V230.144C291.893 233.483 289.178 236.195 285.837 236.195Z" fill="#F3FAFE"/>
<path d="M246.859 192.31H301.033V215.44H246.859C243.323 215.44 240.453 212.572 240.453 209.039V198.71C240.453 195.177 243.323 192.309 246.859 192.309V192.31Z" fill="url(#paint4_linear_401_3507)"/>
<path d="M310.729 194.692V213.062H311.72V215.442H273.081C269.544 215.442 266.676 212.577 266.676 209.041V198.712C266.676 195.177 269.543 192.311 273.081 192.311H311.72V194.691H310.729V194.692Z" fill="#81DCDC"/>
<path d="M276.415 194.689H310.727V213.059H276.415C272.894 213.059 270.037 210.202 270.037 206.685V201.064C270.037 197.546 272.895 194.691 276.415 194.691V194.689Z" fill="#F3FAFE"/>
<path d="M259.708 174.799H316.313V192.303H259.708C257.514 192.303 255.732 190.523 255.732 188.331V178.773C255.732 176.58 257.514 174.8 259.708 174.8V174.799Z" fill="url(#paint5_linear_401_3507)"/>
<path d="M326.009 176.601V190.501H326.999V192.303H285.93C283.735 192.303 281.955 190.525 281.955 188.331V178.771C281.955 176.577 283.735 174.799 285.93 174.799H326.999V176.601H326.009Z" fill="#81DCDC"/>
<path d="M288.954 176.602H326.009V190.502H288.954C286.76 190.502 284.979 188.722 284.979 186.53V180.574C284.979 178.381 286.76 176.602 288.954 176.602Z" fill="#F3FAFE"/>
<defs>
<linearGradient id="paint0_linear_401_3507" x1="54.3609" y1="68.7309" x2="54.3609" y2="325.393" gradientUnits="userSpaceOnUse">
<stop stop-color="white"/>
<stop offset="1" stop-color="white"/>
</linearGradient>
<linearGradient id="paint1_linear_401_3507" x1="275.396" y1="272.228" x2="275.396" y2="254.83" gradientUnits="userSpaceOnUse">
<stop stop-color="#E3C0B8"/>
<stop offset="1" stop-color="#F2E8E3"/>
</linearGradient>
<linearGradient id="paint2_linear_401_3507" x1="274.779" y1="233.001" x2="274.779" y2="257.086" gradientUnits="userSpaceOnUse">
<stop stop-color="#81DCDC"/>
<stop offset="1" stop-color="#81DCDC"/>
</linearGradient>
<linearGradient id="paint3_linear_401_3507" x1="291.368" y1="234.156" x2="291.368" y2="216.148" gradientUnits="userSpaceOnUse">
<stop stop-color="#E3C0B8"/>
<stop offset="1" stop-color="#F2E8E3"/>
</linearGradient>
<linearGradient id="paint4_linear_401_3507" x1="270.745" y1="185.743" x2="270.745" y2="205.971" gradientUnits="userSpaceOnUse">
<stop stop-color="#81DCDC"/>
<stop offset="1" stop-color="#81DCDC"/>
</linearGradient>
<linearGradient id="paint5_linear_401_3507" x1="286.021" y1="175.767" x2="286.021" y2="191.946" gradientUnits="userSpaceOnUse">
<stop stop-color="#81DCDC"/>
<stop offset="1" stop-color="#81DCDC"/>
</linearGradient>
</defs>
</svg>
