<svg width="114" height="135" viewBox="0 0 114 135" fill="none" xmlns="http://www.w3.org/2000/svg">
<g clip-path="url(#clip0_215_6401)">
<path d="M87.3449 0C90.5841 3.20088 93.842 6.40175 97.0718 9.6214C102.301 14.831 107.503 20.0688 112.751 25.2691C113.624 26.1327 114 27.0526 114 28.2916C113.972 61.5582 113.981 94.8154 113.981 128.082C113.981 132.456 111.418 135.009 107.015 135.009C73.7029 135.009 40.391 135.009 7.06984 135.009C2.58195 135.009 0.0469445 132.484 0.0469445 128.007C0.0469445 87.9725 0.0751112 47.9474 0 7.91302C0 3.99875 1.28628 1.31414 5.05123 0C32.4856 0 59.9106 0 87.3449 0ZM84.4437 4.21464H82.8101C57.7605 4.21464 32.7015 4.21464 7.65195 4.21464C4.84467 4.21464 4.25317 4.80601 4.25317 7.61264C4.25317 47.5532 4.25317 87.4937 4.25317 127.444C4.25317 130.175 4.86345 130.804 7.55806 130.804C40.5225 130.804 73.4869 130.804 106.451 130.804C109.146 130.804 109.756 130.185 109.756 127.444C109.756 95.3223 109.756 63.2009 109.756 31.0795V29.5307C109.165 29.5307 108.695 29.5307 108.216 29.5307C102.499 29.5307 96.7902 29.54 91.0723 29.5307C87.1102 29.5307 84.4531 26.8836 84.4344 22.9412C84.4156 19.0738 84.4344 15.2065 84.4344 11.3392C84.4344 9.02065 84.4344 6.70213 84.4344 4.21464H84.4437ZM106.32 25.316C100.424 19.4212 94.5556 13.5544 88.6781 7.67835C88.6781 12.7847 88.6406 17.985 88.7063 23.1946C88.7251 24.5369 89.6546 25.2972 91.0911 25.3066C96.1799 25.3348 101.278 25.316 106.32 25.316Z" fill="black"/>
<path d="M56.9718 122.347C43.217 122.347 29.4623 122.347 15.7076 122.347C13.2946 122.347 12.7031 121.756 12.7031 119.306C12.7031 94.6186 12.7031 69.9221 12.7031 45.235C12.7031 42.7945 13.2946 42.2031 15.717 42.2031C43.2264 42.2031 70.7359 42.2031 98.2454 42.2031C100.752 42.2031 101.316 42.7757 101.316 45.3101C101.316 69.9597 101.316 94.5999 101.316 119.249C101.316 121.784 100.752 122.347 98.236 122.347C84.4812 122.347 70.7265 122.347 56.9718 122.347ZM97.0154 107.619V46.5116H16.9845V107.619H35.8374V111.815H17.0032V118.029H97.0248V111.759H78.1719V107.61H97.006L97.0154 107.619Z" fill="black"/>
<path d="M21.0037 27.4195C19.032 27.4195 17.051 27.4383 15.0793 27.4195C13.5207 27.4008 12.7227 26.6217 12.7133 25.0728C12.6945 20.9896 12.6945 16.9158 12.7133 12.8325C12.7133 11.3682 13.5301 10.5703 15.023 10.561C19.1071 10.5422 23.1819 10.5422 27.2661 10.561C28.7495 10.561 29.557 11.3588 29.5664 12.8325C29.5945 16.9533 29.5945 21.0835 29.5664 25.2043C29.557 26.5935 28.7402 27.382 27.3318 27.4008C25.2287 27.4289 23.1162 27.4008 21.0131 27.4008L21.0037 27.4195ZM17.0134 14.8225V23.1016H25.2944V14.8225H17.0134Z" fill="black"/>
<path d="M67.5538 18.9141H63.4133C63.3757 18.2758 63.3288 17.6469 63.2818 16.9429H38.0445V18.8859H33.8195C33.8195 17.4404 33.7443 16.0042 33.8382 14.568C33.9133 13.4135 34.6645 12.7658 35.8287 12.6719C36.3545 12.6344 36.8802 12.6531 37.406 12.6531C46.5039 12.6531 55.6017 12.6531 64.6995 12.6531C66.8872 12.6531 67.5444 13.3008 67.5538 15.4504C67.5538 16.5768 67.5538 17.7126 67.5538 18.9047V18.9141Z" fill="black"/>
<path d="M33.8652 27.325V23.2793H59.0557V27.325H33.8652Z" fill="black"/>
<path d="M63.4414 23.2598H67.4786V27.3524H63.4414V23.2598Z" fill="black"/>
<path d="M56.9628 54.856C58.3242 54.856 59.6856 54.8372 61.047 54.856C62.5304 54.8842 63.3097 55.6633 63.3285 57.1558C63.3566 59.2678 63.3754 61.3704 63.3191 63.4824C63.2909 64.2803 63.704 64.5149 64.3143 64.7872C64.9152 65.05 65.3189 65.0218 65.7978 64.5243C67.131 63.1257 68.5111 61.774 69.8913 60.4223C71.4405 58.9017 72.4169 58.8829 73.9285 60.3754C75.6185 62.0462 77.2991 63.7171 78.961 65.4067C80.3881 66.8616 80.3787 67.866 78.9234 69.3491C77.5714 70.729 76.2194 72.1182 74.8111 73.4417C74.2571 73.958 74.2478 74.3898 74.52 75.0375C74.7923 75.6945 75.1115 75.9855 75.8627 75.9668C77.8813 75.9104 79.8999 75.9386 81.9279 75.948C83.6648 75.9574 84.4253 76.7083 84.4347 78.4261C84.4535 80.9699 84.4535 83.5231 84.4347 86.0669C84.4253 87.8034 83.6836 88.5638 81.9654 88.5825C80.0783 88.6013 78.1911 88.5919 76.2945 88.5825C75.5528 88.5825 74.9425 88.5074 74.5107 89.4555C74.0318 90.4974 74.6421 90.8917 75.1773 91.4267C76.4448 92.7033 77.731 93.9611 78.9892 95.2565C80.3599 96.6645 80.3599 97.7064 78.9892 99.1051C77.2991 100.832 75.5904 102.541 73.8628 104.23C72.4639 105.61 71.4123 105.61 70.0134 104.23C68.6895 102.944 67.3939 101.639 66.0982 100.316C65.563 99.7715 65.1593 99.3397 64.211 99.7434C63.2627 100.156 63.3285 100.785 63.3379 101.527C63.3472 103.414 63.3566 105.3 63.3379 107.196C63.3191 108.914 62.568 109.656 60.8216 109.665C58.2772 109.684 55.7235 109.684 53.1791 109.665C51.4609 109.656 50.7098 108.895 50.691 107.168C50.6722 105.15 50.6535 103.123 50.7098 101.104C50.7286 100.353 50.4375 100.025 49.7803 99.7621C49.1325 99.4993 48.7006 99.4993 48.1842 100.053C46.8979 101.433 45.5271 102.738 44.1845 104.071C42.5696 105.666 41.6307 105.676 40.0534 104.118C38.4009 102.484 36.7485 100.832 35.1148 99.1802C33.622 97.6689 33.6314 96.6833 35.1524 95.1439C36.5044 93.764 37.8564 92.3842 39.2553 91.0512C39.7623 90.5725 39.7905 90.1595 39.5276 89.5681C39.2647 88.9674 39.03 88.545 38.2319 88.5731C36.1664 88.6389 34.1008 88.6107 32.0353 88.5919C30.3828 88.5731 29.6129 87.8222 29.5942 86.1795C29.5754 83.5888 29.5754 80.9981 29.5942 78.4073C29.6036 76.6989 30.3734 75.9668 32.1292 75.9574C33.9788 75.948 35.819 75.948 37.6686 75.9574C38.4573 75.9574 39.1239 76.0419 39.5464 75.0281C39.9971 73.9674 39.3305 73.6013 38.8047 73.0663C37.5372 71.7803 36.2415 70.5318 34.9928 69.2365C33.6689 67.866 33.6596 66.8429 34.9928 65.4818C36.7109 63.7265 38.4573 61.9805 40.213 60.2628C41.5744 58.9298 42.6072 58.9298 43.9686 60.2628C45.33 61.5769 46.6538 62.9192 47.9776 64.2709C48.4846 64.7872 48.879 65.172 49.7521 64.8153C50.6722 64.4399 50.7098 63.8579 50.691 63.0788C50.6628 61.192 50.6722 59.3053 50.691 57.4092C50.7004 55.6069 51.4421 54.8842 53.273 54.8748C54.5029 54.8654 55.7329 54.8748 56.9628 54.8748V54.856ZM42.1659 100.091C43.6775 98.57 45.1516 97.1245 46.5881 95.6414C47.5363 94.6651 48.5316 94.4305 49.7803 95.0688C50.8318 95.6038 51.9303 96.0638 53.0476 96.4298C54.3621 96.871 54.9442 97.6877 54.9066 99.0769C54.8503 101.17 54.8879 103.263 54.8879 105.385H59.1222C59.1222 103.198 59.1598 101.095 59.1129 98.9924C59.0847 97.6501 59.6668 96.871 60.9249 96.4486C61.9952 96.0825 63.0468 95.632 64.0796 95.1532C65.6757 94.4211 66.2578 94.4868 67.4784 95.6977C68.943 97.1432 70.3889 98.6169 71.694 99.9311C72.7643 98.9361 73.7408 98.0256 74.8017 97.04C73.3183 95.5756 71.863 94.1113 70.3795 92.6845C69.3937 91.7365 69.1778 90.7415 69.8162 89.493C70.3514 88.4417 70.8114 87.3435 71.187 86.2265C71.6283 84.9123 72.4451 84.3397 73.8346 84.3773C75.9284 84.4336 78.0221 84.3961 80.1346 84.3961V80.1626C77.947 80.1626 75.8345 80.1251 73.7408 80.172C72.3981 80.2002 71.6189 79.6088 71.1964 78.3604C70.8302 77.2903 70.3795 76.239 69.9007 75.2064C69.1778 73.6201 69.2341 73.0381 70.4546 71.8084C71.9005 70.3441 73.3652 68.9079 74.5951 67.6877C73.6469 66.5519 72.7925 65.5287 71.863 64.4117C70.3232 65.9793 68.8585 67.4342 67.422 68.9173C66.4738 69.9029 65.4691 70.1094 64.2204 69.4711C63.1689 68.9361 62.0704 68.4762 60.9531 68.1007C59.6292 67.6595 59.0659 66.8335 59.1035 65.4442C59.1598 63.351 59.1222 61.2578 59.1222 59.1457H54.8879C54.8879 61.2953 54.8409 63.3604 54.9066 65.4161C54.9536 66.8804 54.3245 67.697 52.9631 68.1382C51.9679 68.4574 51.0008 68.8892 50.0526 69.3303C48.325 70.1376 47.7805 70.0719 46.4378 68.739C45.0107 67.3216 43.593 65.8854 42.4006 64.6933C41.274 65.6414 40.2506 66.4955 39.1333 67.4342C40.7388 69.0112 42.241 70.4943 43.7432 71.968C44.6352 72.841 44.8136 73.7984 44.2596 74.953C43.7338 76.0606 43.2268 77.1777 42.8325 78.3416C42.3818 79.6651 41.5556 80.219 40.1755 80.1814C38.0817 80.1251 35.988 80.1626 33.8849 80.1626V84.3961C36.0349 84.3961 38.1005 84.443 40.1567 84.3773C41.6213 84.3303 42.4382 84.978 42.8701 86.3297C43.1893 87.3247 43.6212 88.2915 44.0625 89.2396C44.8605 90.9668 44.8042 91.5018 43.4616 92.8535C42.0438 94.2803 40.6073 95.6883 39.1239 97.1432C40.1754 98.1664 41.1143 99.0769 42.1565 100.091H42.1659Z" fill="black"/>
<path d="M56.9626 90.7047C52.2963 90.6859 48.5501 86.8749 48.5783 82.1909C48.6158 77.5257 52.4371 73.7992 57.1316 73.8461C61.7415 73.8931 65.4501 77.6665 65.4501 82.2942C65.4501 86.9688 61.657 90.7235 56.972 90.7047H56.9626ZM57.0189 78.0608C54.7656 78.0608 52.8033 80.0038 52.8033 82.2567C52.8033 84.5095 54.7468 86.4713 57.0001 86.4713C59.2535 86.4713 61.2157 84.5282 61.2157 82.2754C61.2157 80.0226 59.2722 78.0608 57.0189 78.0608Z" fill="black"/>
</g>
<defs>
<clipPath id="clip0_215_6401">
<rect width="114" height="135" fill="white"/>
</clipPath>
</defs>
</svg>
