<svg width="126" height="134" viewBox="0 0 126 134" fill="none" xmlns="http://www.w3.org/2000/svg">
<path d="M26.8252 15.1917V0.409197C28.6124 0.269985 29.9985 0.0785698 31.3847 0.0698691C47.2163 0.0524677 63.0392 0.122073 78.862 0.000263434C81.582 -0.017138 83.5261 0.826831 85.3394 2.74969C88.6173 6.22997 92.1219 9.50144 95.4085 12.973C96.9167 14.5652 98.512 15.2874 100.744 15.2352C106.55 15.1047 112.356 15.1482 118.162 15.2091C123.306 15.2526 125.598 17.4887 125.598 22.6134C125.633 51.1604 125.625 79.6988 125.598 108.246C125.598 113.832 123.34 115.989 117.578 115.998C96.3849 116.024 75.1831 116.007 53.99 116.007C38.8907 116.007 23.7914 116.016 8.69214 116.007C2.11889 116.007 0.0876314 114.006 0.0876314 107.515C0.0876314 79.5421 0.218399 51.5781 0.000452991 23.6227C-0.0431362 17.7758 3.06042 14.7741 8.72701 15.1221C14.4982 15.4788 20.313 15.2004 26.8252 15.2004V15.1917ZM31.4631 86.9986H94.2229V19.4463H79.3938V4.83786H31.4719V86.9986H31.4631ZM115.46 91.3142H10.2701V25.3193H26.5114V19.9162C25.9012 19.7074 25.6309 19.5334 25.3606 19.5334C19.9905 19.4986 14.6116 19.4637 9.24136 19.4724C4.57732 19.4898 4.39424 19.6726 4.38553 24.4319C4.37681 47.3321 4.37681 70.2324 4.38553 93.1326C4.38553 94.3856 4.55117 95.6385 4.63834 96.8652H121.17C121.239 95.6733 121.327 94.8206 121.327 93.9679C121.327 70.6326 121.327 47.2973 121.327 23.9707C121.327 23.5357 121.309 23.1006 121.327 22.6656C121.405 20.4991 120.368 19.455 118.188 19.4724C115.721 19.4986 113.254 19.4724 110.778 19.4724C106.925 19.4724 103.08 19.4724 99.1397 19.4724V25.3454H115.451V91.3229L115.46 91.3142ZM4.39424 101.877C4.39424 104.278 4.43783 106.419 4.38553 108.55C4.3245 110.812 5.56244 111.648 7.61113 111.691C8.7706 111.717 9.93007 111.709 11.0895 111.709C45.0368 111.709 78.9928 111.726 112.94 111.709C121.667 111.709 121.623 112.962 121.222 102.86C121.213 102.608 120.978 102.364 120.725 101.886H4.39424V101.877ZM14.8644 29.9655V87.0422H26.5463V29.9655H14.8644ZM110.839 87.077V29.9742H99.192V87.077H110.839ZM84.0056 14.922H89.9075C88.1291 12.7468 86.3245 10.5629 84.0056 7.73519V14.922Z" fill="#1B1B1B"/>
<path d="M78.5231 121.202H82.5856C82.7513 123.951 82.9082 126.613 83.0913 129.633C85.5323 129.772 87.7989 129.902 90.4143 130.05C90.5101 131.32 90.606 132.521 90.7281 134H35.2129V130.163C37.5841 129.972 39.9641 129.78 42.7451 129.554V121.358C44.323 121.28 45.4912 121.219 46.9209 121.141C47.0692 124.073 47.1912 126.631 47.3307 129.511H78.5144V121.184L78.5231 121.202Z" fill="#1B1B1B"/>
<path d="M59.5957 51.9079V47.9316H85.1564C85.2785 49.1323 85.4005 50.3591 85.5487 51.9079H59.5957Z" fill="#1B1B1B"/>
<path d="M59.7174 33.8193C59.6215 32.5403 59.5343 31.4527 59.4297 29.9648H84.9991C85.156 30.4173 85.4001 30.8088 85.4001 31.2003C85.4001 32.0182 85.2781 32.8448 85.1822 33.8193H59.7174Z" fill="#1B1B1B"/>
<path d="M59.6738 41.7457V37.9609H85.1735V41.7457H59.6738Z" fill="#1B1B1B"/>
<path d="M85.2515 56.2246V60.0877H59.7344V56.2246H85.2515Z" fill="#1B1B1B"/>
<path d="M85.1912 66.0469C85.2784 67.2911 85.3569 68.3787 85.4615 69.8491H59.709V66.0469H85.1912Z" fill="#1B1B1B"/>
<path d="M59.6738 78.3072V74.418H85.1561V78.3072H59.6738Z" fill="#1B1B1B"/>
<path d="M44.9228 77.4182C43.1182 75.6346 41.0957 73.6334 38.4629 71.0406C39.6224 70.2749 40.6598 69.5876 41.8628 68.7871C42.8828 69.6572 43.9638 70.5794 45.2628 71.6931C47.3987 69.6572 49.4735 67.6821 51.9494 65.3242C52.9955 66.3422 53.8935 67.2123 54.9047 68.1954C51.2868 71.5365 48.1397 74.4426 44.9228 77.4182Z" fill="#1B1B1B"/>
<path d="M45.2381 59.2266C43.3201 57.3734 41.2802 55.4157 38.9961 53.2057C39.8766 52.2835 40.6961 51.4221 41.655 50.4215C42.9714 51.5265 44.0437 52.4227 45.3165 53.4842C47.4786 51.4134 49.5447 49.4383 51.9857 47.1152C53.0144 48.1506 53.8949 49.0381 54.9149 50.0648C51.4539 53.3362 48.3503 56.2771 45.2381 59.2179V59.2266Z" fill="#1B1B1B"/>
<path d="M45.3777 40.9715C43.4598 39.0051 41.4983 36.9865 39.0137 34.4372C39.6675 33.8282 40.5393 33.0103 41.5244 32.088C43.0239 33.3409 44.0875 34.2284 45.308 35.2464C47.5136 33.1843 49.5884 31.2441 52.0817 28.9297C53.1017 29.9303 53.9996 30.809 54.7755 31.566C51.332 35.0202 48.3156 38.048 45.3864 40.9802L45.3777 40.9715Z" fill="#1B1B1B"/>
</svg>
