<svg width="148" height="133" viewBox="0 0 148 133" fill="none" xmlns="http://www.w3.org/2000/svg">
<g clip-path="url(#clip0_215_6420)">
<path d="M131.721 105.528V128.225C133.759 128.225 135.774 128.193 137.784 128.239C138.606 128.257 139.621 128.175 140.192 128.609C140.868 129.121 141.526 130.149 141.508 130.935C141.489 131.579 140.571 132.388 139.863 132.771C139.26 133.1 138.383 132.977 137.624 132.977C95.2143 132.986 52.8092 132.986 10.3995 132.986C7.61692 132.986 6.45639 132.292 6.46553 130.633C6.47466 128.993 7.71287 128.23 10.3903 128.225C12.291 128.225 14.1918 128.225 16.2798 128.225V105.492C15.8366 105.341 15.2883 105.126 14.7263 104.966C9.15211 103.367 5.97664 99.5659 5.16335 93.9555C3.39057 81.7753 1.75486 69.5722 0.128282 57.3692C-0.995699 48.9399 5.41922 44.0651 13.3785 47.2312C13.5795 47.3134 13.8034 47.3408 14.1598 47.4276C15.7589 44.362 18.0434 42.0868 21.5525 41.2416C27.1632 39.8938 32.5958 43.6082 33.4091 49.31C33.5416 50.2511 34.0625 51.3065 34.7387 51.969C36.7491 53.9335 38.9924 55.665 41.012 57.6205C42.305 58.8723 43.6666 59.3611 45.4759 59.3246C50.7029 59.2149 50.6937 59.288 52.2015 54.235C52.9188 51.8365 53.6316 49.4333 54.4129 47.053C55.546 43.5945 58.8769 41.8401 62.1666 42.9137C65.3283 43.9463 67.0463 47.2677 66.0183 50.6257C64.7709 54.6919 63.3774 58.7078 62.1209 62.7694C61.865 63.6055 61.7691 64.5603 61.8787 65.4238C62.427 69.7915 59.3475 73.6201 54.8653 73.7389C49.9216 73.8714 44.9596 73.9125 40.025 73.6841C38.4807 73.611 36.9501 72.6013 35.4743 71.9023C34.8346 71.6007 34.332 70.9931 33.537 70.3352V78.7691C34.2407 78.8193 34.9626 78.897 35.689 78.9153C41.6242 79.0386 47.5639 79.162 53.4991 79.2625C59.617 79.3676 63.5875 83.3515 63.6012 89.4873C63.6241 98.4694 63.6104 107.456 63.6149 116.438C63.6149 117.192 63.6149 117.95 63.6149 118.27C65.7076 119.655 67.8322 120.559 69.2029 122.122C70.5142 123.62 71.0396 125.804 72.0859 128.061H76.6093C76.8377 123.099 79.538 120.038 84.4954 118.864C84.4954 115.739 84.4954 112.701 84.4954 109.663C84.4954 102.81 84.4634 95.9612 84.5091 89.1081C84.5457 83.4292 88.6121 79.3493 94.3005 79.299C95.7626 79.2853 96.8044 79.0341 97.6908 77.6634C98.6822 76.1329 100.368 75.5344 102.251 75.5344C106.207 75.5436 110.164 75.4887 114.121 75.4567C114.19 75.4567 114.253 75.4019 114.592 75.2512C114.619 74.5841 114.688 73.7846 114.688 72.9805C114.697 65.8259 114.688 58.6667 114.697 51.5121C114.697 46.2535 117.155 42.5848 121.468 41.3558C126.115 40.0309 130.656 41.9497 133.325 46.3677C133.517 46.6875 133.69 47.0165 133.827 47.2677C135.614 46.9068 137.286 46.3403 138.981 46.2626C144.194 46.025 148.169 49.712 147.991 54.9341C147.854 59.0185 147.169 63.0938 146.62 67.1554C145.501 75.4385 144.35 83.717 143.134 91.9909C141.901 100.393 139.753 102.896 131.716 105.528H131.721ZM66.6534 128.098C66.3335 125.009 65.0953 123.794 62.3219 123.634C59.416 123.465 58.9819 123.013 58.9819 120.038C58.9774 110.147 58.9819 100.251 58.9774 90.3599C58.9774 85.7227 57.1909 83.9546 52.4848 83.8906C45.7866 83.7992 39.093 83.7216 32.3948 83.5982C29.2467 83.5434 28.8035 83.0682 28.7898 80.0163C28.7807 77.3528 28.6025 74.6755 28.8264 72.0302C29.1599 68.092 28.6893 64.6426 24.833 62.5227C24.5817 62.3856 24.2482 62.0841 24.2482 61.8602C24.2345 60.8871 24.0015 59.6581 24.4903 59.0094C24.9016 58.4657 26.2129 58.4383 27.1084 58.4885C27.6019 58.5159 28.0816 59.1555 28.5339 59.5576C31.6226 62.2714 34.6656 65.0309 37.8045 67.6808C38.5767 68.3341 39.623 69.024 40.5596 69.0514C45.1195 69.193 49.6931 69.1702 54.2576 69.0879C56.2405 69.0514 57.3143 67.9184 57.2229 66.3513C57.1361 64.839 56.1857 64.1035 54.1433 64.0898C50.5658 64.0624 46.9837 64.1994 43.4153 64.0167C42.1679 63.9527 40.7378 63.4273 39.7646 62.646C36.6851 60.1698 33.8203 57.4286 30.791 54.8838C29.4158 53.7279 28.6527 52.5126 28.7304 50.612C28.8218 48.4647 27.7206 46.7789 25.6554 45.9931C23.54 45.189 21.6119 45.7555 19.9716 47.2632C18.5141 48.6064 18.2171 50.3471 18.2216 52.2522C18.2536 63.1349 18.2308 74.0176 18.2445 84.9003C18.2491 89.501 20.328 91.5706 24.9427 91.5798C31.7185 91.5935 38.4898 91.5798 45.2657 91.5798C50.744 91.5798 53.3346 94.1794 53.3438 99.7212C53.362 108.246 53.3438 116.767 53.3438 125.292C53.3438 126.183 53.3438 127.074 53.3438 128.093H66.6488L66.6534 128.098ZM94.7574 128.102C94.7574 126.983 94.7574 126.078 94.7574 125.174C94.7574 116.575 94.7346 107.972 94.7666 99.374C94.7849 94.3119 97.5171 91.5935 102.511 91.5843C109.589 91.5706 116.666 91.6072 123.743 91.5661C127.504 91.5478 129.834 89.3137 129.848 85.6815C129.884 74.342 129.884 63.0024 129.848 51.6628C129.838 48.1084 127.293 45.5042 124.1 45.6093C121.102 45.7098 119.325 47.9393 119.321 51.6446C119.316 59.4845 119.321 67.3199 119.321 75.1598C119.321 78.9518 118.087 80.1671 114.258 80.1717C110.452 80.1762 106.646 80.1854 102.84 80.1717C101.817 80.1717 100.962 80.3864 100.953 81.6062C100.944 82.8763 101.881 82.9997 102.863 82.9951C103.242 82.9951 103.626 82.9951 104.005 82.9906C108.419 82.9814 112.833 82.9723 117.246 82.9586C121.358 82.9494 122.514 81.7936 122.514 77.6817C122.514 71.3632 122.514 65.0492 122.523 58.7307C122.523 57.159 123.191 56.0123 124.886 55.9803C126.645 55.9437 127.211 57.1362 127.211 58.7032C127.211 65.6294 127.312 72.5556 127.156 79.4772C127.051 84.0368 123.634 87.4405 119.179 87.5776C113.628 87.7466 108.067 87.7329 102.516 87.7512C100.341 87.7557 98.5909 86.8785 97.2019 85.1242C96.7267 84.5257 95.79 83.9957 95.0362 83.9591C91.2713 83.7718 89.1375 85.9374 89.133 89.798C89.1193 99.8446 89.133 109.891 89.1284 119.933C89.1284 123.081 88.804 123.419 85.6605 123.629C82.9374 123.812 81.6306 125.183 81.5118 128.098H94.762L94.7574 128.102ZM13.5018 71.1987H13.4881C13.4881 66.1 13.4973 61.0013 13.4836 55.9026C13.4836 54.267 13.2825 52.7045 11.6971 51.7222C9.99739 50.6669 8.22003 50.5252 6.51579 51.5258C4.77955 52.5492 4.52369 54.3447 4.72929 56.1448C5.07197 59.1647 5.55629 62.1663 5.9675 65.1771C7.24226 74.511 8.44848 83.8541 9.81462 93.1742C10.5457 98.1633 13.7257 100.731 18.7745 100.735C27.4511 100.749 36.1277 100.74 44.8042 100.735C45.4119 100.735 46.111 100.877 46.6044 100.63C47.2989 100.283 48.2036 99.7212 48.3498 99.0953C48.4915 98.4785 47.9889 97.3638 47.4269 97.0165C46.5907 96.4957 45.4576 96.249 44.4524 96.2399C37.6035 96.1759 30.7499 96.2216 23.9009 96.2079C17.4997 96.1942 13.5704 92.2833 13.511 85.8186C13.4698 80.9483 13.5018 76.0781 13.5018 71.2033V71.1987ZM134.641 70.8149H134.636C134.636 75.8359 134.7 80.8615 134.622 85.8826C134.522 92.3473 130.57 96.1896 124.141 96.2033C117.365 96.2124 110.594 96.2033 103.818 96.2033C101.232 96.2033 99.6235 97.1856 99.6189 98.7298C99.6189 100.091 100.885 100.735 103.599 100.735C111.969 100.735 120.344 100.735 128.714 100.735C134.791 100.735 137.752 97.9805 138.488 91.9772C139.379 84.7404 140.434 77.5218 141.426 70.2987C142.074 65.5563 142.801 60.8231 143.376 56.0762C143.797 52.6177 141.704 50.5298 138.442 50.9364C136.007 51.2425 134.677 52.7548 134.65 55.5143C134.599 60.613 134.636 65.7117 134.636 70.8104L134.641 70.8149ZM37.3933 105.555H21.2372V128.052H37.3933V105.555ZM126.891 105.519H110.754V128.075H126.891V105.519ZM48.3727 128.088V105.492H42.3141V128.088H48.3727ZM99.6372 128.066H105.728V105.382H99.6372V128.066ZM58.0133 59.9871C59.2241 56.3229 60.4349 52.8324 61.4858 49.2963C61.6366 48.7891 61.0106 48.049 60.741 47.4185C60.1242 47.7977 59.1282 48.0444 58.9454 48.5744C57.7529 52.0603 56.734 55.6011 55.6191 59.2469C56.501 59.5165 57.1818 59.7266 58.0133 59.9825V59.9871Z" fill="black"/>
<path d="M59.8457 18.0787C59.8457 13.2815 61.2758 10.0834 63.6746 7.2782C72.1958 -2.69075 90.7917 -2.35723 98.9657 7.89955C103.178 13.1856 103.411 19.6366 99.7607 25.2835C99.016 26.4348 98.5545 27.874 98.3261 29.24C97.7686 32.5341 97.5219 35.8784 96.9325 39.1679C96.7589 40.1273 96.0598 41.3106 95.2465 41.7629C94.022 42.4528 93.0077 41.4751 92.1853 40.4745C90.5861 38.5419 88.9139 36.6688 87.3193 34.7271C86.6796 33.9458 86.0719 33.7585 84.9982 33.8864C77.8614 34.7225 71.1906 33.5346 65.5433 28.7329C61.9566 25.681 59.9097 21.825 59.8457 18.0741V18.0787ZM92.5417 33.6077C92.7016 33.5483 92.8615 33.4844 93.0214 33.425C93.2544 31.5564 93.3961 29.6695 93.7525 27.8237C94.0175 26.4485 94.2459 24.9043 95.0272 23.8215C99.08 18.202 98.3032 12.1073 92.5143 8.19194C85.9212 3.7283 78.8848 3.60038 71.7206 6.88072C71.1723 7.132 70.6469 7.45181 70.1443 7.78533C62.5643 12.8201 62.7013 21.8478 70.4687 26.5993C75.3164 29.5644 80.5891 30.1812 86.0628 28.8974C87.5523 28.5502 88.5529 28.9065 89.4622 30.0076C90.4719 31.2274 91.5182 32.4107 92.5462 33.6123L92.5417 33.6077Z" fill="black"/>
<path d="M24.5812 11.5729C32.1886 11.5684 38.2837 17.6219 38.2426 25.1512C38.2015 32.6027 32.1795 38.6335 24.7411 38.6654C17.1154 38.702 11.0249 32.7307 11.002 25.1877C10.9746 17.5945 16.9783 11.5775 24.5858 11.5684L24.5812 11.5729ZM33.4588 25.1512C33.4634 20.121 29.5295 16.1919 24.5127 16.2147C19.7015 16.2376 15.6716 20.2626 15.6396 25.0826C15.6122 29.9666 19.7517 34.0739 24.668 34.0373C29.534 34.0008 33.4543 30.0443 33.4588 25.1512Z" fill="black"/>
<path d="M123.438 38.6655C115.885 38.6518 109.772 32.4977 109.872 24.9959C109.973 17.4894 115.94 11.5821 123.442 11.5684C131.068 11.5547 137.104 17.5397 137.099 25.1101C137.099 32.6713 131.045 38.6746 123.433 38.6609L123.438 38.6655ZM114.647 25.0644C114.624 29.9758 118.49 33.9597 123.351 34.0328C128.276 34.1059 132.43 30.0626 132.466 25.1649C132.498 20.3632 128.482 16.2696 123.68 16.2102C118.654 16.1508 114.67 20.0525 114.647 25.0598V25.0644Z" fill="black"/>
</g>
<defs>
<clipPath id="clip0_215_6420">
<rect width="148" height="133" fill="white"/>
</clipPath>
</defs>
</svg>
