<svg width="128" height="127" viewBox="0 0 128 127" fill="none" xmlns="http://www.w3.org/2000/svg">
<g clip-path="url(#clip0_215_6410)">
<path d="M117.788 113.613C119.315 113.613 120.653 113.613 121.982 113.613C125.71 113.613 128 115.932 128 119.675C128 123.248 126.266 125.809 123.168 126.678C122.413 126.893 121.596 126.973 120.806 126.973C82.9471 126.991 45.0977 126.973 7.23933 127C2.15562 127 -1.04191 122.863 0.314345 117.544C0.898164 115.261 3.09871 113.676 5.49686 113.622C7.01479 113.586 8.5417 113.622 10.2572 113.622C10.2572 113.085 10.2572 112.61 10.2572 112.145C10.2572 91.7914 10.2572 71.4471 10.2752 51.0938C10.2752 50.0013 10.3381 48.8731 10.6434 47.8344C11.5686 44.7541 14.4068 42.7483 17.7121 42.7393C24.3407 42.7214 30.9693 42.7393 37.5889 42.7393C38.0021 42.7393 38.4153 42.7393 38.8643 42.7393C38.9362 41.1723 38.8823 39.6501 39.1158 38.1816C39.4302 36.1668 39.8703 34.17 40.4362 32.209C40.6787 31.3583 40.6338 30.9016 39.9691 30.2748C37.2746 27.7318 36.5291 23.8366 37.9662 20.434C39.3853 17.0761 42.7984 14.8733 46.472 15.0166C48.7623 15.1061 50.7832 15.9299 52.4089 17.5596C52.867 18.0163 53.1993 18.0611 53.7832 17.7924C54.8161 17.3268 55.9208 17.0134 56.9717 16.5836C57.2591 16.4672 57.6453 16.1359 57.6543 15.8851C57.7262 14.6494 57.6903 13.3958 57.6903 12.2139C57.5196 12.1243 57.4567 12.0616 57.3849 12.0616C54.34 11.9184 54.0885 11.6587 54.0885 8.64105C54.0885 6.5905 54.0796 4.53995 54.0885 2.48939C54.1065 0.770152 54.8071 0.0358925 56.5136 0.0358925C61.4985 0.0179837 66.4924 0.0179837 71.4773 0.0358925C73.2019 0.0358925 73.8935 0.752243 73.9024 2.47148C73.9204 4.71008 73.9024 6.94868 73.9024 9.19623C73.9024 11.4706 73.3725 11.9989 71.0911 12.0348C70.9025 12.0348 70.7139 12.0527 70.3456 12.0706C70.3456 13.3869 70.3187 14.7032 70.3726 16.0105C70.3726 16.2075 70.7049 16.4761 70.9384 16.5746C72.0971 17.0403 73.2647 17.5059 74.4593 17.8551C74.7827 17.9536 75.3126 17.7835 75.582 17.5417C78.2496 15.1688 81.2945 14.3808 84.6806 15.518C87.968 16.6284 89.9979 18.9923 90.6086 22.4129C91.1655 25.5469 90.2224 28.278 87.8871 30.4629C87.3572 30.9643 87.2764 31.3494 87.5279 32.012C88.7584 35.2803 89.2434 38.683 89.0458 42.1752C89.0458 42.3185 89.0638 42.4707 89.0817 42.6946C89.441 42.7125 89.7733 42.7572 90.0967 42.7572C94.4798 42.7572 98.854 42.7841 103.237 42.7304C103.803 42.7304 104.495 42.4349 104.899 42.0319C109.03 37.9846 113.108 33.8924 117.204 29.8092C119.386 27.6423 121.228 27.4453 123.832 29.075C125.386 30.051 126.563 31.3673 127.389 32.988C128.386 34.949 128.135 36.7309 126.581 38.298C123.743 41.1544 120.886 44.0019 118.012 46.8315C117.527 47.3061 117.374 47.718 117.536 48.4164C117.734 49.2492 117.761 50.1446 117.761 51.0132C117.77 71.3665 117.761 91.7108 117.761 112.064V113.649L117.788 113.613ZM21.5115 106.414H106.48V58.3379C102.123 62.6807 97.9288 66.8714 93.7163 71.0531C93.3211 71.4471 92.89 71.9038 92.3781 72.0918C89.2165 73.2917 86.0548 74.4737 82.8483 75.5303C82.2555 75.7273 81.2136 75.5303 80.8095 75.1094C80.3604 74.6348 80.2167 73.6767 80.2975 72.9693C80.4143 72.056 80.9711 71.2053 81.2047 70.292C82.516 65.0895 85.2645 60.8272 89.441 57.4424C90.6625 56.4485 91.7224 55.2576 92.8541 54.1562C90.6446 53.8875 88.5698 53.9323 86.495 53.8607C85.5878 53.8338 85.0848 54.1651 84.5639 54.8815C79.9742 61.266 73.7318 64.9731 65.8817 65.4835C56.325 66.0924 48.7264 62.3047 43.1577 54.5054C42.9241 54.183 42.3852 53.9054 41.99 53.9054C35.6309 53.8696 29.2718 53.8786 22.9126 53.8786C22.4635 53.8786 22.0234 53.8786 21.5115 53.8786V106.405V106.414ZM61.9836 61.4809C61.9836 60.2272 61.9836 59.1348 61.9836 58.0424C62.0015 56.5112 62.8279 55.5351 64.0673 55.571C65.2709 55.6068 66.0344 56.547 66.0433 58.0245C66.0523 59.1527 66.0433 60.281 66.0433 61.4003C69.672 61.3644 75.3665 58.9109 77.558 56.5112C77.5221 56.4395 77.5042 56.3589 77.4503 56.3142C76.7317 55.5889 75.9952 54.8636 75.2767 54.1293C74.2707 53.1085 74.1809 51.8459 75.0431 51.0132C75.8784 50.2073 77.082 50.2968 78.079 51.2729C78.8604 52.034 79.5969 52.8399 80.3604 53.6189C82.7944 51.1923 84.968 45.6853 84.9411 42.0767C83.9621 42.0767 82.9831 42.0767 82.0041 42.0767C80.522 42.0678 79.5879 41.3066 79.57 40.1067C79.552 38.889 80.4682 38.092 81.9502 38.0651C82.8932 38.0472 83.8274 38.0651 84.7615 38.0651C84.8872 34.9401 82.2106 28.9227 79.8304 27.0065C79.2197 27.6602 78.6179 28.3496 77.9712 28.9854C77.0281 29.9077 75.8605 29.9346 75.0252 29.1197C74.2258 28.3228 74.2348 27.0871 75.1329 26.1737C75.7707 25.529 76.4802 24.9649 77.2437 24.2844C73.8216 21.607 70.2199 20.1295 66.0344 19.7266C66.0344 20.6489 66.0433 21.4369 66.0344 22.2338C66.0074 23.6934 65.1991 24.5888 63.9506 24.5619C62.765 24.5351 62.0015 23.6486 61.9746 22.2517C61.9566 21.4369 61.9746 20.6131 61.9746 19.7982C58.9477 19.7534 52.9838 21.9831 50.9539 24.3918C51.2682 24.6515 51.6006 24.9112 51.906 25.1887C52.2383 25.4932 52.5616 25.8156 52.876 26.1558C53.7472 27.096 53.8011 28.3049 53.0017 29.1018C52.1754 29.9346 51.0078 29.9077 50.0557 28.9944C49.3821 28.3407 48.7533 27.6423 48.0348 26.8901C45.2953 30.248 43.6067 33.8118 43.1487 38.0651C43.7774 38.0651 44.2265 38.0651 44.6846 38.0651C45.1786 38.0651 45.6726 38.0472 46.1666 38.0651C47.5677 38.1189 48.4569 38.9158 48.4479 40.0978C48.4479 41.2619 47.5228 42.0678 46.1486 42.0857C45.1247 42.0946 44.1097 42.0857 42.996 42.0857C43.3912 46.4554 44.8193 50.2521 47.6486 53.7622C48.1066 53.2249 48.43 52.813 48.7982 52.419C49.1575 52.025 49.5437 51.6579 49.93 51.2908C50.9359 50.3237 52.1305 50.2252 52.9658 51.0221C53.837 51.8459 53.7832 53.1354 52.7502 54.1293C51.9419 54.9083 51.0527 55.5978 50.1276 56.3858C53.7652 59.4124 57.5376 61.0063 61.9836 61.4988V61.4809ZM40.6427 49.8402C40.4092 49.0969 40.1398 48.4612 40.023 47.8075C39.8613 46.8763 39.3943 46.6434 38.4691 46.6524C31.8046 46.6972 25.1401 46.6793 18.4756 46.6793C15.5565 46.6793 14.2272 48.0045 14.2272 50.9326C14.2272 71.3934 14.2272 91.8541 14.2272 112.324V113.56H113.71V51.058C112.946 51.8549 112.417 52.5175 111.779 53.0369C110.872 53.7711 110.611 54.6397 110.611 55.7948C110.647 73.1036 110.638 90.4214 110.638 107.73C110.638 109.835 110.027 110.443 107.935 110.443C78.6538 110.443 49.3641 110.443 20.0833 110.443C18.0535 110.443 17.4157 109.817 17.4157 107.811C17.4157 89.3558 17.4157 70.9098 17.4157 52.4548C17.4157 50.5207 18.0894 49.8312 20.0025 49.8312C25.0683 49.8312 30.134 49.8312 35.1998 49.8312C36.9871 49.8312 38.7745 49.8312 40.6607 49.8312L40.6427 49.8402ZM64.0763 117.643C44.9989 117.643 25.9305 117.643 6.85311 117.643C6.43097 117.643 6.0178 117.634 5.59566 117.661C4.71544 117.714 4.20348 118.189 4.09569 119.075C3.75438 121.842 5.14657 122.989 7.48184 122.989C45.1696 122.953 82.8663 122.962 120.554 122.962C120.824 122.962 121.084 122.971 121.353 122.962C123.114 122.872 124.003 121.69 123.949 119.532C123.904 117.974 123.473 117.652 121.407 117.652C102.294 117.652 83.1807 117.652 64.0763 117.652V117.643ZM116.458 36.3996C107.144 45.6853 97.8929 54.9083 88.6776 64.0955C89.7015 65.1074 90.7613 66.173 91.6415 67.0415C100.875 57.8364 110.144 48.5955 119.386 39.3904C118.479 38.4681 117.473 37.4383 116.458 36.3996ZM58.1483 7.88889H69.8516V4.10118H58.1483V7.88889ZM87.3931 49.8402C90.5547 49.8402 93.6176 49.8402 96.6893 49.8402C96.869 49.8402 97.1025 49.8043 97.2193 49.6969C98.1803 48.7746 99.1234 47.8344 100.291 46.6882C96.2582 46.6882 92.5757 46.6882 88.9021 46.7061C88.6776 46.7061 88.3452 46.9568 88.2644 47.1628C87.941 48.0045 87.7075 48.8731 87.4021 49.8491L87.3931 49.8402ZM49.1306 20.0848C47.3432 18.4819 44.3073 18.661 42.5559 20.6131C40.7954 22.5741 40.8763 25.5469 42.5559 27.0602C44.7295 24.75 46.9031 22.4398 49.1306 20.0758V20.0848ZM85.498 27.0781C87.2045 25.4216 87.2225 22.4308 85.3902 20.5146C83.5938 18.6431 80.549 18.5177 78.9233 20.0937C81.1149 22.4218 83.3064 24.75 85.498 27.0781ZM66.2589 12.1064H61.7949V15.5807H66.2589V12.1064ZM119.35 33.2119C120.554 34.4297 121.578 35.4684 122.737 36.6324C123.096 36.0773 123.725 35.5042 123.805 34.8774C123.904 34.1073 121.785 32.012 121.048 32.1373C120.41 32.2448 119.853 32.8716 119.359 33.2119H119.35ZM87.8153 69.495C87.3213 68.9399 86.8902 68.4563 86.3962 67.9101C86.1177 68.6891 85.8573 69.4144 85.5339 70.3278C86.4501 69.9965 87.1686 69.7368 87.8153 69.504V69.495Z" fill="black"/>
<path d="M70.6602 84.6635C63.4657 84.6635 56.2803 84.6635 49.0858 84.6635C48.7086 84.6635 48.3224 84.6903 47.9451 84.6277C46.9212 84.4575 46.2116 83.6427 46.1937 82.6756C46.1757 81.6638 46.9122 80.8131 47.9811 80.643C48.3134 80.5892 48.6637 80.6161 49.005 80.6161C63.3849 80.6161 77.7648 80.6161 92.1447 80.6161C92.4501 80.6161 92.7555 80.5982 93.0609 80.634C94.1926 80.7594 94.9919 81.619 94.983 82.6666C94.974 83.7143 94.1656 84.5471 93.0249 84.6635C92.6836 84.6993 92.3423 84.6724 92.001 84.6724C84.8874 84.6724 77.7738 84.6724 70.6602 84.6724V84.6635Z" fill="black"/>
<path d="M70.6515 94.7105C77.9268 94.7105 85.2021 94.6926 92.4684 94.7463C93.16 94.7463 94.0133 95.0239 94.4893 95.4896C95.4953 96.4566 94.9474 98.1759 93.5911 98.5878C93.133 98.731 92.6121 98.74 92.1271 98.74C77.7741 98.74 63.4122 98.74 49.0592 98.74C48.6101 98.74 48.1431 98.731 47.703 98.6146C46.679 98.355 46.185 97.6386 46.212 96.6089C46.2299 95.6418 47.0203 94.8448 48.0263 94.7284C48.3676 94.6926 48.7089 94.7105 49.0502 94.7105C56.2447 94.7105 63.4481 94.7105 70.6426 94.7105H70.6515Z" fill="black"/>
<path d="M34.4 93.887C35.0467 93.2154 35.5766 92.6155 36.1604 92.0693C37.0227 91.2544 38.2712 91.2455 39.0346 91.9976C39.8071 92.7588 39.834 93.9945 39.0256 94.8631C38.4598 95.463 37.7951 95.9824 36.9688 96.7166C37.7502 97.4061 38.4149 97.9254 38.9897 98.5164C39.825 99.385 39.825 100.612 39.0705 101.373C38.2801 102.17 37.1215 102.206 36.2053 101.355C35.6036 100.791 35.1185 100.101 34.4539 99.3223C33.7174 100.101 33.2234 100.665 32.6845 101.185C31.6695 102.161 30.5109 102.224 29.6576 101.382C28.8043 100.54 28.8672 99.3582 29.8372 98.3642C30.3672 97.827 30.924 97.3255 31.7234 96.5733C30.9779 95.9555 30.3133 95.4988 29.7654 94.9347C28.8492 93.9855 28.8313 92.8125 29.6396 91.9976C30.421 91.2097 31.6605 91.2544 32.5947 92.1141C32.9 92.4006 33.1875 92.705 33.4839 92.9916C33.7533 93.2513 34.0228 93.5109 34.409 93.8691L34.4 93.887Z" fill="black"/>
<path d="M31.9214 69.7191C34.0591 67.5701 35.9453 65.6538 37.8584 63.7734C38.2267 63.4063 38.6578 63.0213 39.1338 62.878C39.9871 62.6183 40.8134 62.8153 41.3434 63.6212C41.8733 64.436 41.9002 65.3494 41.2266 66.0389C38.6309 68.6983 35.9992 71.3309 33.3316 73.9187C32.5591 74.6709 31.5083 74.5724 30.655 73.7755C29.6041 72.7905 28.5802 71.7697 27.5922 70.722C26.7569 69.8445 26.7749 68.6356 27.5473 67.8656C28.3107 67.1044 29.5682 67.0865 30.4125 67.9103C30.9514 68.4297 31.3825 69.0655 31.9214 69.7281V69.7191Z" fill="black"/>
<path d="M32.0388 83.6607C34.1226 81.5744 36.0447 79.6402 37.9758 77.715C39.0177 76.6763 40.2302 76.5689 41.0925 77.4016C41.9817 78.2702 41.8739 79.5059 40.7871 80.5894C38.4877 82.8996 36.1794 85.2098 33.8621 87.5111C32.6226 88.7468 31.5717 88.7558 30.3322 87.538C29.4879 86.7142 28.6616 85.8814 27.8353 85.0487C26.7934 83.9831 26.6856 82.819 27.5299 81.9504C28.4281 81.0281 29.5598 81.1266 30.7095 82.2639C31.1406 82.6847 31.5358 83.1414 32.0388 83.6607Z" fill="black"/>
<path d="M50.7027 70.5516C49.8674 70.5516 49.0321 70.5784 48.1968 70.5516C47.11 70.5068 46.3016 69.7278 46.2118 68.7249C46.1309 67.7041 46.7866 66.7101 47.8734 66.6385C49.7237 66.5221 51.6009 66.5221 53.4511 66.6206C54.5559 66.6833 55.1936 67.6145 55.1397 68.6891C55.0858 69.7188 54.3134 70.4979 53.2176 70.5605C52.3823 70.6053 51.547 70.5605 50.7117 70.5695L50.7027 70.5516Z" fill="black"/>
<path d="M61.3461 43.1421C60.5107 43.1421 59.6665 43.1958 58.8401 43.1331C57.6006 43.0436 56.8462 42.2019 56.8821 41.0557C56.918 39.9185 57.7264 39.1753 58.9838 39.1216C59.0198 39.1216 59.0647 39.1216 59.1006 39.1216C62.2173 39.7573 64.4538 38.4321 66.313 36.0592C67.1753 34.9667 68.271 34.0444 69.277 33.0684C70.283 32.0924 71.4686 32.0565 72.3039 32.9341C73.1033 33.7668 73.0673 34.9309 72.1242 35.8801C69.9596 38.0739 67.804 40.2588 65.5675 42.381C65.1184 42.8018 64.3819 43.0167 63.7442 43.1242C62.9628 43.2495 62.1544 43.151 61.355 43.151C61.355 43.151 61.355 43.151 61.355 43.1421H61.3461Z" fill="black"/>
</g>
<defs>
<clipPath id="clip0_215_6410">
<rect width="128" height="127" fill="white"/>
</clipPath>
</defs>
</svg>
