<svg width="98" height="119" viewBox="0 0 98 119" fill="none" xmlns="http://www.w3.org/2000/svg">
<path d="M27.6373 57.2026C23.3835 55.7291 19.3576 54.3343 15.3314 52.9405C14.8782 52.7837 14.3533 52.7257 13.9871 52.4534C13.4779 52.0744 12.8477 51.5994 12.7018 51.0509C12.4778 50.2066 13.1835 49.7499 13.9574 49.4829C18.0374 48.076 22.1116 46.6527 26.1898 45.2403C32.6846 42.991 39.1714 40.7193 45.6873 38.5333C46.474 38.2693 47.5004 38.2402 48.2788 38.5045C58.8216 42.0888 69.3363 45.7553 79.8701 49.3661C81.0659 49.7761 81.5728 50.4591 81.5383 51.7192C81.4797 53.8485 81.5219 55.9807 81.5219 58.07C85.0246 60.1218 85.5299 63.2298 83.2188 65.997C83.6736 67.5403 84.2318 68.9847 84.5074 70.4812C84.8578 72.3856 84.1044 73.9589 82.4513 74.9885C80.9244 75.9394 79.2947 75.964 77.7479 75.0471C76.0772 74.0565 75.2627 72.4934 75.5757 70.5881C75.8224 69.0865 76.4072 67.6401 76.885 66.0239C74.5954 62.5606 74.9797 60.5641 78.5528 58.134V53.0298C74.4945 54.4258 70.5835 55.7713 66.54 57.1623C66.5144 57.747 66.468 58.317 66.4673 58.887C66.4616 64.1666 66.434 69.4465 66.4852 74.7258C66.4974 75.9634 66.0471 76.6717 64.9487 77.2203C53.1202 83.1262 41.292 83.1422 29.4101 77.3745C28.0707 76.7242 27.5823 75.8712 27.606 74.382C27.6879 69.1569 27.6377 63.9298 27.6373 58.7037V57.2026ZM75.5392 51.0083C74.901 50.7532 74.6651 50.6476 74.4219 50.5635C65.6698 47.531 56.9234 44.4809 48.152 41.5057C47.4252 41.2592 46.4599 41.3236 45.718 41.5754C37.2495 44.4482 28.8027 47.3844 20.352 50.3097C19.8681 50.477 19.4024 50.6969 18.6877 50.9917C19.4331 51.2768 19.9078 51.474 20.3923 51.6417C27.1336 53.9736 33.8752 56.3042 40.619 58.6288C42.7316 59.3569 44.8494 60.6214 46.9678 60.6275C49.0827 60.6332 51.2012 59.3697 53.3186 58.664C53.4194 58.6304 53.5263 58.614 53.6268 58.5795C60.8168 56.0959 68.0065 53.6113 75.5392 51.0083ZM30.5783 74.5648C40.5095 80.3116 54.4855 79.9893 63.527 74.5088V58.2345C62.8203 58.4659 62.2225 58.6524 61.6307 58.8566C57.2994 60.3513 52.9599 61.8222 48.6459 63.3649C47.5228 63.7666 46.5137 63.7614 45.3996 63.3562C42.2455 62.2095 39.0651 61.1345 35.8915 60.0418C34.16 59.4462 32.4212 58.8723 30.5783 58.2524V74.5648ZM79.744 66.8967C79.2211 68.407 78.6968 69.5659 78.436 70.7811C78.2011 71.8754 78.9762 72.7283 79.9719 72.775C80.9919 72.8231 81.7668 72.0601 81.6816 70.9332C81.5763 69.5429 81.1334 68.2598 79.744 66.8967ZM81.7207 62.5254C81.5575 61.5502 81.0169 60.9171 80.0183 60.9479C79.0348 60.978 78.4533 61.6062 78.3921 62.5917C78.3368 63.4846 79.2889 64.3811 80.1691 64.2578C81.1382 64.1218 81.6583 63.5064 81.7207 62.5254Z" fill="black"/>
<path d="M83.4083 3.43641C84.1348 4.21862 84.7106 4.83888 85.4009 5.58268C82.5166 8.4353 79.1759 9.89986 75.0744 9.47771C69.8246 8.93682 64.7547 7.54876 60.0515 5.28375C56.0739 3.36792 52.6417 3.55547 49.141 6.05315C43.4658 10.1021 37.6095 13.9152 32.1161 18.1956C27.919 21.4662 24.9537 25.9175 22.4877 30.6344C22.0172 31.5344 21.8252 32.5797 21.5093 33.5431C22.8948 34.3819 24.0146 34.4162 25.0369 33.5939C28.439 30.8591 31.8108 28.0852 35.1537 25.359C34.399 24.3982 33.55 23.577 33.0151 22.5861C31.5458 19.864 32.5242 17.2335 35.4911 16.3774C38.088 15.6278 40.7806 15.0591 43.468 14.8066C48.8219 14.3031 54.2013 14.0714 59.7692 13.7146C59.8995 14.5774 60.0295 15.4374 60.1901 16.5035C58.4282 16.6664 56.804 16.8415 55.1755 16.9624C50.7124 17.2943 46.2426 17.551 41.7855 17.9498C40.2041 18.0913 38.641 18.5128 37.0907 18.8924C36.3011 19.0857 35.2293 19.214 35.3355 20.3713C35.4383 21.4918 36.0387 22.4382 37.2453 22.6616C38.2877 22.8549 39.3698 22.9929 40.4231 22.9388C43.5097 22.7797 46.5949 22.5627 49.6719 22.2763C54.4036 21.8352 58.7435 22.6066 63.0677 24.8876C69.1266 28.0836 75.6643 29.8145 82.6693 28.5579C87.5725 27.6784 91.6957 25.4528 94.9983 21.5001C95.7511 22.098 96.4469 22.6501 97.2396 23.2796C94.5445 26.7023 91.1791 29.0415 87.1513 30.3909C81.5878 32.2539 75.9075 32.4648 70.3188 30.71C66.6801 29.5674 63.2377 27.8148 59.6444 26.508C57.7721 25.8269 55.7817 25.2425 53.8118 25.1142C51.438 24.9593 49.0305 25.3577 46.6359 25.4752C43.293 25.6391 39.9484 25.7648 36.6068 25.9069C36.7841 26.2007 37.0718 26.6767 37.4344 27.2761C35.878 28.5352 34.3107 29.7933 32.754 31.0652C30.937 32.5493 29.1588 34.0823 27.3032 35.5162C26.56 36.09 25.7039 36.6344 24.8132 36.8764C22.9844 37.3718 21.1521 37.1804 19.7467 35.7716C18.352 34.3736 18.5882 32.6159 19.1969 30.9679C20.7738 26.6968 23.5342 23.1519 26.4374 19.7373C29.3208 16.3457 32.6929 13.5212 36.56 11.2486C38.8478 9.90434 40.8859 8.14309 43.1115 6.68398C45.6895 4.9941 48.2951 3.33015 50.9909 1.84063C53.4079 0.505376 55.9645 0.537701 58.5466 1.61372C63.221 3.56123 67.9495 5.32472 72.964 6.27207C76.8811 7.01203 80.4017 6.63853 83.4083 3.43641Z" fill="black"/>
<path d="M12.0509 113.914C14.6965 111.316 18.0138 109.868 22.0657 110.263C27.6493 110.806 32.9516 112.461 37.994 114.773C41.319 116.298 44.2193 116.181 47.1708 114.191C48.8476 113.061 50.557 111.979 52.2296 110.842C55.0035 108.957 57.7258 106.995 60.5298 105.157C66.8979 100.983 71.521 95.3006 74.967 88.5987C75.3533 87.8469 75.4234 86.9322 75.6468 86.0662C74.3701 85.4753 73.3108 85.274 72.3813 86.0137C68.886 88.7956 65.4352 91.6338 62.1096 94.3357C62.9222 95.467 63.8279 96.407 64.3548 97.5256C65.5594 100.083 64.6169 102.403 61.9512 103.298C60.044 103.938 58.0405 104.428 56.0437 104.636C51.6999 105.087 47.3325 105.314 42.975 105.636C41.1779 105.769 39.3814 105.913 37.4355 106.063C37.311 105.1 37.1996 104.236 37.0598 103.153C40.6687 102.92 44.122 102.77 47.56 102.454C51.3741 102.105 55.175 101.608 58.9801 101.162C59.3472 101.119 59.715 101.014 60.0619 100.884C60.8675 100.581 62.035 100.556 61.8651 99.283C61.706 98.094 61.0323 97.0683 59.7322 97.0398C56.8627 96.9767 53.9873 97.0302 51.118 97.131C48.8828 97.2094 46.6543 97.4674 44.4197 97.581C41.0857 97.7506 38.058 96.8343 35.0822 95.292C30.38 92.8554 25.4412 91.0164 20.0375 90.8465C13.0642 90.6269 7.00242 92.633 2.26085 98.1779C1.86782 97.9029 1.48536 97.6517 1.12114 97.3762C0.782527 97.1201 0.463435 96.8381 0 96.4554C0.380542 95.9951 0.712436 95.541 1.09682 95.1364C6.26406 89.6959 12.763 87.7413 20.0669 87.9343C25.9034 88.0886 31.2624 90.021 36.3477 92.6685C39.0934 94.0982 41.8673 94.8772 44.925 94.6736C47.2646 94.5178 49.5978 94.2201 51.939 94.1449C54.8406 94.0514 57.7473 94.1225 60.871 94.1225C60.4472 93.5077 60.1534 93.082 59.8049 92.5763C59.9604 92.4022 60.1064 92.1887 60.2984 92.0319C63.4765 89.4334 66.6796 86.8644 69.836 84.2396C71.5684 82.7987 73.4631 82.2812 75.6423 82.9008C77.5217 83.435 78.5923 84.727 78.3794 86.6663C78.2319 88.0118 77.8766 89.4308 77.2349 90.6109C73.248 97.9436 68.0347 104.154 60.717 108.446C58.4738 109.762 56.4607 111.464 54.2904 112.911C51.9019 114.505 49.4938 116.077 47.0207 117.534C44.2248 119.18 41.3229 119.304 38.2897 117.991C33.738 116.022 29.077 114.373 24.1703 113.453C20.3207 112.732 16.8344 113.103 13.9584 116.163C13.3202 115.41 12.7224 114.706 12.0509 113.914Z" fill="black"/>
</svg>
