<svg width="290" height="101" viewBox="0 0 290 101" fill="none" xmlns="http://www.w3.org/2000/svg">
<g clip-path="url(#clip0_349_1173)">
<path d="M11.1745 48.9099H16.2896C27.5112 48.9099 31.9653 43.4474 31.9653 38.0322C31.9653 33.2939 28.6916 29.3742 20.8223 28.2093C27.3224 26.8712 30.0137 23.0774 30.0137 18.8429C30.0137 13.1443 25.2606 9.09863 17.1237 9.09863H0.000113631V11.4757L5.52437 12.1211C5.63454 17.2529 5.63454 22.4005 5.63454 27.5166V30.4919C5.63454 35.6867 5.63454 40.85 5.52437 45.8874L-0.015625 46.5329V48.9099H11.1588H11.1745ZM26.3151 38.0322C26.3151 43.2585 22.5693 46.1708 14.8574 46.1708H11.1116C11.0014 40.9602 11.0014 35.6395 11.0014 29.7205H14.3852C22.6952 29.7205 26.3308 32.5068 26.3308 38.0322H26.3151ZM15.3768 11.8377C21.4991 11.8377 24.6468 13.7425 24.6468 19.2049C24.6468 24.6674 21.4991 26.9814 14.1964 26.9814H10.9857C10.9857 21.8653 10.9857 16.7964 11.0958 11.8377H15.3768Z" fill="white"/>
<path d="M50.8985 49.681C57.6032 49.681 64.4337 44.8168 64.4337 34.9466C64.4337 25.0764 57.6032 19.9761 50.8985 19.9761C44.1938 19.9761 37.3633 25.0922 37.3633 34.9466C37.3633 44.801 44.0679 49.681 50.8985 49.681ZM50.8985 22.6522C56.0608 22.6522 59.0983 26.9812 59.0983 34.9466C59.0983 42.912 56.0765 47.0049 50.8985 47.0049C45.7205 47.0049 42.6987 42.912 42.6987 34.9466C42.6987 26.9812 45.6103 22.6522 50.8985 22.6522Z" fill="white"/>
<path d="M83.4454 49.681C90.15 49.681 96.9806 44.8168 96.9806 34.9466C96.9806 25.0764 90.15 19.9761 83.4454 19.9761C76.7407 19.9761 69.9102 25.0922 69.9102 34.9466C69.9102 44.801 76.6148 49.681 83.4454 49.681ZM83.4454 22.6522C88.6077 22.6522 91.6452 26.9812 91.6452 34.9466C91.6452 42.912 88.6234 47.0049 83.4454 47.0049C78.2674 47.0049 75.2456 42.912 75.2456 34.9466C75.2456 26.9812 78.1572 22.6522 83.4454 22.6522Z" fill="white"/>
<path d="M117.662 30.6965L124.304 23.8645L129.891 23.0144V20.7634H116.104V23.0144L120.479 24.1164L110.281 34.7894V13.8684L110.517 5.43075L109.683 4.9585L100.602 7.63462V9.71255L105.528 10.3107V36.458C105.528 39.6379 105.481 42.8178 105.418 45.9976L100.602 46.8477V48.9256H115.207V46.8477L110.391 45.9976C110.328 43.4159 110.297 40.85 110.281 38.2683L114.294 34.144L123.564 48.9256H131.402V46.8477L127.499 46.1393L117.631 30.7122L117.662 30.6965Z" fill="white"/>
<path d="M140.466 13.27C142.669 13.27 144.385 11.7273 144.385 9.52343C144.385 7.31956 142.669 5.77686 140.466 5.77686C138.262 5.77686 136.547 7.25659 136.547 9.52343C136.547 11.7903 138.262 13.27 140.466 13.27Z" fill="white"/>
<path d="M183.228 48.9097V46.8318L178.978 45.9817C178.915 43.0222 178.884 39.1654 178.884 36.4264V30.9639C178.884 23.1245 176.444 19.9761 171.345 19.9761C167.615 19.9761 163.46 22.2586 160.611 25.3913L160.108 20.5743L159.211 19.9761L151.137 23.5337V25.6117L155.89 26.1469C156.016 28.5239 156.063 30.3657 156.063 33.64V36.4264C156.063 39.0867 156.031 43.0222 155.968 46.0132L151.483 46.8318V48.9097H165.144V46.8318L160.895 45.9817C160.832 43.0065 160.8 39.0867 160.8 36.4264V27.8313C163.948 25.2181 166.293 24.1319 169.11 24.1319C172.667 24.1319 174.099 25.9108 174.099 31.4362V36.4264C174.099 39.1654 174.068 43.0537 174.005 46.0132L169.519 46.8318V48.9097H183.181H183.228Z" fill="white"/>
<path d="M27.919 60.1338H24.3621L11.661 97.1115L6.67188 97.8671V100.244H20.333V97.8671L14.4625 97.0643L17.8148 87.2256H31.712L35.0486 97.1587L29.1309 97.8671V100.244H45.1686V97.8671L40.6044 97.3161L27.9348 60.1495L27.919 60.1338ZM18.7277 84.4865L24.8028 66.6667L30.7835 84.4865H18.7434H18.7277Z" fill="white"/>
<path d="M72.2859 65.1868L72.522 56.7491L71.6878 56.2769L62.6067 58.953V61.0309L67.7217 61.6291V75.1829C65.2035 72.2549 62.7326 71.3104 59.9468 71.3104C52.6441 71.3104 47.293 77.371 47.293 86.4068C47.293 95.4427 52.1562 101.015 59.4117 101.015C63.1575 101.015 65.7072 99.4254 67.7375 96.6706L68.1467 100.842L77.2278 100.244V98.166L72.3017 97.3632V65.1868H72.2859ZM60.7023 97.741C55.8863 97.741 52.3293 94.1833 52.3293 86.2809C52.3293 78.3785 56.1853 74.5847 60.6393 74.5847C62.6224 74.5847 64.7156 75.3245 67.5328 77.7803V94.1833C65.2665 96.765 63.3464 97.7725 60.7023 97.7725V97.741Z" fill="white"/>
<path d="M125.499 87.7609V81.6373C125.499 74.2701 122.713 71.2949 117.96 71.2949C114.12 71.2949 110.138 73.1682 107.116 76.8203C106.125 72.9321 103.827 71.2949 100.144 71.2949C96.4614 71.2949 92.4637 73.5775 89.6465 76.6944L89.1429 71.8931L88.2458 71.2949L80.1719 74.8526V76.9305L84.9249 77.4657C85.0509 79.8428 85.0981 81.6846 85.0981 84.9589V87.7452C85.0981 90.4056 85.0666 94.3411 85.0036 97.332L80.5181 98.1506V100.229H94.1793V98.1506L89.9298 97.3005C89.8669 94.3253 89.8354 90.4056 89.8354 87.7452V79.1344C92.9044 76.5212 95.1393 75.4508 97.9093 75.4508C101.466 75.4508 102.898 77.2296 102.898 82.755V87.7452C102.898 90.4843 102.867 94.3725 102.804 97.332L98.3185 98.1506V100.229H111.98V98.1506L107.73 97.3005C107.667 94.3411 107.636 90.4843 107.636 87.7452V82.2828C107.636 81.1808 107.589 80.1733 107.494 79.2603C110.658 76.4583 113.081 75.4508 115.662 75.4508C119.172 75.4508 120.715 77.0565 120.715 82.6448V87.7609C120.715 90.5 120.683 94.3883 120.62 97.3478L116.135 98.1663V100.244H129.796V98.1663L125.546 97.3163C125.483 94.3568 125.452 90.5 125.452 87.7609H125.499Z" fill="white"/>
<path d="M164.405 83.8884L162.627 83.2273C158.582 81.7475 157.102 80.7243 157.102 78.0639C157.102 75.561 159.007 73.971 162.69 73.971C164.137 73.971 165.522 74.3331 166.86 75.0257L167.789 79.7326H170.763L171 73.7349C168.45 72.1922 165.947 71.2949 162.737 71.2949C156.142 71.2949 152.522 75.2776 152.522 79.5594C152.522 83.6051 155.371 85.9191 159.715 87.5248L162.453 88.5323C166.199 89.9018 167.978 91.2084 167.978 93.7586C167.978 96.4977 165.837 98.3395 161.273 98.3395C159.432 98.3395 157.858 98.0247 156.441 97.395L155.277 92.2789H152.129L152.365 98.7488C155.277 100.229 157.826 101 161.163 101C168.765 101 172.621 96.9542 172.621 92.5622C172.621 88.8786 170.37 86.0923 164.421 83.8884H164.405Z" fill="white"/>
<path d="M190.124 83.8884L188.345 83.2273C184.3 81.7475 182.821 80.7243 182.821 78.0639C182.821 75.561 184.725 73.971 188.408 73.971C189.856 73.971 191.241 74.3331 192.579 75.0257L193.508 79.7326H196.482L196.718 73.7349C194.169 72.1922 191.666 71.2949 188.455 71.2949C181.861 71.2949 178.241 75.2776 178.241 79.5594C178.241 83.6051 181.09 85.9191 185.434 87.5248L188.172 88.5323C191.918 89.9018 193.696 91.2084 193.696 93.7586C193.696 96.4977 191.556 98.3395 186.992 98.3395C185.15 98.3395 183.577 98.0247 182.16 97.395L180.995 92.2789H177.848L178.084 98.7488C180.995 100.229 183.545 101 186.882 101C194.483 101 198.339 96.9542 198.339 92.5622C198.339 88.8786 196.089 86.0923 190.14 83.8884H190.124Z" fill="white"/>
<path d="M214.297 20.5743L213.4 19.9761L206.68 22.2744C204.807 20.7317 202.226 19.9761 199.267 19.9761C193.207 19.9761 188.58 23.4235 188.58 29.7203C188.58 33.7975 190.327 36.5838 193.144 38.095C190.217 40.8813 189.178 42.8176 189.178 44.6279C189.178 46.9262 190.5 48.4217 193.081 49.1458C188.643 51.3339 187.211 53.3489 187.211 55.8991C187.211 60.1809 190.957 63.1561 199.503 63.1561C201.549 63.1561 203.375 62.92 204.996 62.5107C204.775 61.944 204.665 61.33 204.665 60.6846C204.665 60.3855 204.697 60.0864 204.744 59.8031C203.343 60.2438 201.659 60.4957 199.692 60.4957C195.065 60.4957 192.027 58.953 192.027 55.0333C192.027 53.0498 192.719 51.4599 194.419 49.5866C195.159 49.6495 195.962 49.681 196.717 49.681H203.721C208.065 49.681 209.717 51.696 209.717 54.3721C209.717 54.7971 209.654 55.2222 209.544 55.6315C209.607 55.6315 209.654 55.6315 209.717 55.6315C210.976 55.6315 212.109 56.088 213.007 56.8436C213.668 55.6157 213.998 54.2777 213.998 52.9553C213.998 48.1383 210.961 45.352 204.618 45.352H196.78C193.994 45.352 193.333 44.2816 193.333 42.6759C193.333 41.2749 193.821 40.1729 194.891 38.8349C196.198 39.2442 197.661 39.4645 199.22 39.4645C205.216 39.4645 209.859 36.0171 209.859 29.7203C209.859 27.5322 209.339 25.7061 208.442 24.2579H214.313V20.5743H214.297ZM199.031 37.0875C195.348 37.0875 193.207 34.1123 193.207 29.7833C193.207 25.4543 195.521 22.3531 199.33 22.3531C203.138 22.3531 205.216 25.3283 205.216 29.5471C205.216 33.766 202.902 37.0875 199.046 37.0875H199.031Z" fill="white"/>
<path d="M212.093 87.7608V79.9214L212.267 71.9087L211.369 71.3105L202.398 74.8682V76.9461L207.262 77.4814C207.388 79.8584 207.435 81.7002 207.435 84.9745V87.7608C207.435 90.4212 207.403 94.3409 207.34 97.3162L202.745 98.1505V100.228H216.406V98.1505L212.156 97.3004C212.093 94.3252 212.062 90.4055 212.062 87.7451L212.093 87.7608Z" fill="white"/>
<path d="M234.617 71.2949C227.787 71.2949 221.082 76.411 221.082 86.2655C221.082 96.1199 227.787 101 234.617 101C241.448 101 248.152 96.1356 248.152 86.2655C248.152 76.3953 241.322 71.2949 234.617 71.2949ZM234.617 98.3238C229.329 98.3238 226.417 94.2309 226.417 86.2655C226.417 78.3001 229.329 73.971 234.617 73.971C239.905 73.971 242.817 78.3158 242.817 86.2655C242.817 94.2151 239.795 98.3238 234.617 98.3238Z" fill="white"/>
<path d="M280.795 97.3005C280.732 94.3411 280.7 90.4843 280.7 87.7452V82.2828C280.7 74.4433 278.261 71.2949 273.162 71.2949C269.431 71.2949 265.276 73.5775 262.428 76.7101L261.924 71.8931L261.027 71.2949L252.953 74.8526V76.9305L257.706 77.4657C257.832 79.8428 257.879 81.6846 257.879 84.9589V87.7452C257.879 90.4056 257.848 94.3411 257.785 97.332L253.299 98.1506V100.229H266.96V98.1506L262.711 97.3005C262.648 94.3253 262.617 90.4056 262.617 87.7452V79.1501C265.764 76.537 268.109 75.4508 270.927 75.4508C274.484 75.4508 275.916 77.2296 275.916 82.755V87.7452C275.916 90.4843 275.884 94.3725 275.821 97.332L271.336 98.1506V100.229H284.997V98.1506L280.748 97.3005H280.795Z" fill="white"/>
<path d="M147.36 98.1503V100.228H133.699V98.1503L138.027 97.3632V26.1626L133.164 25.6274V23.5495L142.135 19.9761L143.032 20.5743L142.906 26.1626L142.859 28.6026V36.4421C142.859 38.5043 142.859 41.3536 142.906 43.9195V97.316L147.376 98.1503H147.36Z" fill="white"/>
<path d="M142.891 26.1626V43.9195C142.859 41.3535 142.844 38.52 142.844 36.4421V28.6026L142.891 26.1626Z" fill="white"/>
<path d="M213.654 60.8423C213.654 62.8415 212.237 64.3055 210.317 64.5417C210.254 64.5417 210.175 64.5574 210.097 64.5731C209.971 64.5731 209.861 64.5889 209.735 64.5889C209.656 64.5889 209.577 64.5889 209.499 64.5889C209.436 64.5889 209.388 64.5889 209.341 64.5889C209.215 64.5889 209.089 64.5574 208.979 64.5259C208.649 64.4629 208.334 64.3528 208.035 64.1953C207.972 64.1638 207.893 64.1324 207.83 64.0851C207.783 64.0537 207.736 64.0379 207.689 64.0064C207.61 63.9592 207.516 63.8962 207.437 63.8333C207.374 63.786 207.327 63.7546 207.28 63.7073C207.232 63.6759 207.201 63.6444 207.169 63.6129C207.106 63.5499 207.028 63.4869 206.98 63.424C206.918 63.361 206.855 63.2823 206.792 63.2193C206.76 63.2036 206.744 63.1721 206.729 63.1564C206.681 63.0934 206.65 63.0462 206.603 62.9832C206.571 62.936 206.54 62.8888 206.508 62.8258C206.477 62.7943 206.461 62.7628 206.445 62.7156C206.414 62.6526 206.382 62.6054 206.351 62.5582C206.319 62.4952 206.288 62.4322 206.257 62.3693C206.209 62.2906 206.178 62.1961 206.146 62.1174C206.099 62.0072 206.068 61.897 206.036 61.7868C206.005 61.6766 205.973 61.5507 205.957 61.4405C205.926 61.3303 205.91 61.2044 205.91 61.0784C205.91 60.9525 205.895 60.8266 205.895 60.7006C205.895 60.1969 205.989 59.7089 206.162 59.2839C206.634 58.056 207.736 57.1272 209.058 56.8911C209.294 56.8439 209.53 56.8281 209.782 56.8281C210.805 56.8281 211.749 57.2374 212.442 57.8828C212.93 58.3236 213.292 58.8903 213.496 59.5357C213.496 59.5357 213.496 59.5672 213.496 59.583C213.638 59.9765 213.701 60.4015 213.701 60.8581L213.654 60.8423Z" fill="white"/>
<path d="M256.474 33.2626C253.751 32.6015 252.02 33.2784 251.595 35.0415C251.154 36.8518 252.397 38.2056 255.12 38.8667C257.843 39.5279 259.48 38.8667 259.92 37.0564C260.345 35.2933 259.197 33.908 256.474 33.2469V33.2626Z" fill="white"/>
<path d="M287.984 41.2751C285.465 42.6132 282.349 41.6529 281.011 39.1342C279.674 36.6155 280.634 33.4986 283.152 32.1606L280.46 27.0759C277.942 28.414 274.826 27.4537 273.488 24.935C272.15 22.4163 273.111 19.2994 275.629 17.9614L272.937 12.8767C270.419 14.2148 267.303 13.2545 265.965 10.7358C264.627 8.21713 265.587 5.10024 268.106 3.76217L266.091 -0.0473633L221.016 23.8803L223.03 27.6899C225.548 26.3518 228.665 27.312 230.002 29.8308C231.34 32.3495 230.38 35.4663 227.862 36.8044L230.553 41.889C233.071 40.551 236.188 41.5112 237.525 44.0299C238.863 46.5486 237.903 49.6655 235.385 51.0036L238.076 56.0882C240.594 54.7502 243.711 55.7104 245.049 58.2291C246.386 60.7478 245.426 63.8647 242.908 65.2028L244.923 69.0123L289.998 45.0846L287.984 41.2751ZM256.506 55.1752C256.317 55.9623 255.515 56.4345 254.744 56.2456C253.957 56.0567 253.453 55.2696 253.642 54.4668C253.831 53.6797 254.633 53.2075 255.436 53.3964C256.207 53.5853 256.711 54.3724 256.506 55.1595V55.1752ZM258.411 47.3357C257.734 50.1221 255.357 51.3971 252.257 50.6415C249.062 49.8702 247.693 47.1626 248.291 44.7541C248.731 42.9437 250.211 41.7159 251.785 41.8103C252.273 42.0307 252.446 42.3928 252.32 42.9123C252.162 43.5892 251.69 43.7466 251.139 43.7623L249.676 43.8253C249.455 44.2031 249.298 44.5809 249.219 44.9115C248.794 46.6746 249.88 48.2803 252.493 48.9099C255.058 49.5239 256.79 48.5164 257.246 46.5959C257.529 45.4152 257.214 44.2503 256.349 43.3688L256.711 42.9437C258.269 43.904 258.883 45.431 258.426 47.3357H258.411ZM260.834 37.2924C260.268 39.6222 258.049 41.527 254.665 40.7084C251.281 39.8898 250.101 37.1665 250.667 34.8367C251.218 32.5384 253.532 30.6336 256.915 31.4364C260.299 32.2393 261.385 34.9941 260.834 37.2924ZM265.084 18.6225L264.376 18.4494L264.47 16.8437C263.463 16.5761 262.141 16.2455 261.196 16.0251L259.449 15.6001C257.545 15.1436 256.868 15.5371 256.569 16.7335C256.349 17.615 256.506 18.5281 257.199 19.8504C257.514 19.8976 257.86 19.9606 258.237 20.055L260.11 20.5115C261.039 20.7319 262.361 21.0468 263.384 21.2672L264.029 19.8819L264.738 20.055L264.344 21.6922L263.966 23.2349L263.604 24.7461L262.896 24.573L262.991 22.9673C261.983 22.6997 260.661 22.3691 259.717 22.1487L258.017 21.7394C256.129 21.2829 255.405 21.6292 255.106 22.8413C254.869 23.7859 255.058 24.6517 255.704 25.911L258.647 26.6194C259.56 26.8398 260.897 27.1546 261.92 27.375L262.566 25.9897L263.274 26.1629L262.928 27.5797L262.566 29.1066L262.141 30.8382L261.432 30.6651L261.527 29.0594C260.504 28.7918 259.166 28.4612 258.253 28.2251L257.293 27.989C256.176 27.7213 255.546 27.5797 254.712 27.4222L254.13 28.9964L253.421 28.8233L252.871 25.7693L253.154 25.5175L254.838 25.7536C254.004 24.5415 253.547 22.983 253.862 21.7237C254.161 20.4643 254.932 19.8189 256.349 19.8032C255.342 18.4651 255.027 16.9539 255.342 15.6316C255.735 14.0101 256.978 13.3018 259.497 13.9L261.59 14.4037C262.518 14.6241 263.84 14.9389 264.863 15.1593L265.509 13.774L266.217 13.9472L265.084 18.6225Z" fill="white"/>
</g>
<defs>
<clipPath id="clip0_349_1173">
<rect width="290" height="101" fill=""/>
</clipPath>
</defs>
</svg>
