<svg width="116" height="99" viewBox="0 0 116 99" fill="none" xmlns="http://www.w3.org/2000/svg">
<path d="M0 20.8439C0.41653 18.8837 1.08241 17.0582 2.40662 15.4819C5.21245 12.1408 10.3613 11.054 14.2026 13.0686C18.4822 15.3128 20.6332 19.9541 19.4198 24.3256C18.1394 28.9383 14.1148 31.9239 9.45835 31.7158C4.77451 31.5065 1.0525 28.2139 0.171901 23.5074C0.14577 23.3679 0.0585598 23.2398 0 23.1063V20.8439ZM14.2747 21.8834C14.2769 19.4787 12.3303 17.4949 9.93628 17.4625C7.50951 17.4298 5.45267 19.4516 5.44984 21.8734C5.44669 24.3058 7.47488 26.3022 9.9262 26.2802C12.33 26.2584 14.2725 24.2945 14.2747 21.8834Z" fill="black"/>
<path d="M98.3933 38.4036V40.553C100.49 40.553 102.553 40.53 104.614 40.5587C107.557 40.5993 109.709 42.2711 110.286 44.9504C110.388 45.4242 110.408 45.9232 110.408 46.4106C110.401 62.5107 110.39 78.6109 110.372 94.7114C110.369 97.0097 109.129 98.3122 107.25 98.0408C106.052 97.868 105.171 97.0365 104.997 95.8483C104.922 95.3294 104.929 94.7961 104.929 94.269C104.941 78.6591 104.956 63.0491 104.972 47.4388C104.972 46.9971 104.972 46.5554 104.972 46.052H86.2573C86.2573 47.2389 86.2614 48.4287 86.2566 49.6188C86.2466 52.128 85.2702 53.1343 82.7878 53.1349C63.5203 53.1399 44.2526 53.1402 24.9852 53.1254C24.3564 53.1251 23.6924 53.0426 23.1075 52.8276C22.094 52.4552 21.4237 51.2295 21.5301 50.1908C21.6561 48.9576 22.5099 47.9221 23.7141 47.794C24.9458 47.6627 26.1963 47.7002 27.4387 47.6813C28.4134 47.6662 29.3885 47.6781 30.4873 47.6781C30.3988 46.6499 30.3138 45.7293 30.242 44.8077C29.9467 41.0281 30.1069 37.2765 30.9838 33.575C32.1058 28.8379 36.8476 24.6858 41.6372 23.9671C43.4598 23.6935 44.8165 24.0577 46.1397 25.313C47.855 26.9407 49.7213 28.4094 51.5836 29.9984C53.6596 28.2693 55.7054 26.6126 57.6933 24.8899C58.7099 24.0093 59.7464 23.724 61.1109 23.9381C67.6841 24.9692 72.3883 29.8621 72.8071 36.513C73.0168 39.8468 72.859 43.204 72.8672 46.5507C72.8682 46.886 72.8675 47.2216 72.8675 47.6318H80.7948C80.7948 47.1621 80.7851 46.7242 80.7964 46.2862C80.8836 42.8929 83.1158 40.6333 86.5104 40.5618C88.5742 40.5184 90.6392 40.554 92.7684 40.554V38.4581C92.344 38.4392 91.9439 38.4065 91.544 38.4061C88.2259 38.4017 84.9079 38.4143 81.5898 38.4005C77.5719 38.3838 75.3746 36.1743 75.3711 32.1554C75.3655 25.8586 75.3651 19.5619 75.3711 13.2651C75.3749 9.23928 77.5744 7.04171 81.5942 7.04045C90.9452 7.03762 100.296 7.0373 109.647 7.04045C113.629 7.04202 115.831 9.22196 115.834 13.1681C115.839 19.5405 115.839 25.9124 115.834 32.2848C115.831 36.1582 113.629 38.374 109.731 38.3989C106.375 38.4203 103.019 38.4036 99.6637 38.4036H98.3933ZM80.8458 12.5256V13.7764C80.8458 19.7287 80.871 25.681 80.8222 31.633C80.8138 32.6698 81.0939 32.9607 82.137 32.9563C91.1404 32.9163 100.144 32.934 109.148 32.9302C109.542 32.9299 109.937 32.8845 110.315 32.8612V12.5256H80.8458ZM64.3628 47.7068C64.9793 47.7068 65.6515 47.6551 66.3123 47.72C67.1224 47.7993 67.3998 47.4247 67.3982 46.6908C67.3916 43.3094 67.5739 39.9145 67.3336 36.5499C67.0893 33.1333 65.12 30.8072 61.8444 29.6426C61.1723 29.4037 60.6789 29.4701 60.1138 29.9628C58.0119 31.7949 55.8625 33.5724 53.7226 35.3604C52.2164 36.6188 50.9454 36.6213 49.4789 35.3765C47.468 33.6691 45.4194 32.0024 43.4797 30.2172C42.6501 29.4534 41.9285 29.3924 40.9635 29.8105C37.8179 31.1728 36.2617 33.5872 35.876 36.951C35.4664 40.5244 35.4677 44.0657 36.0649 47.6416H39.0064C39.0064 47.2131 39.0124 46.8466 39.0052 46.4805C38.9608 44.1444 38.861 41.8077 38.884 39.4725C38.9007 37.7765 40.4544 36.7611 41.9335 37.3952C42.917 37.8171 43.2823 38.6539 43.3106 39.6683C43.3739 41.9663 43.4683 44.2647 43.468 46.563C43.468 47.4606 43.7674 47.7043 44.6461 47.6967C49.2815 47.6567 53.9178 47.6794 58.5535 47.675C58.9164 47.6747 59.2792 47.6325 59.7243 47.6044C59.7243 47.0409 59.713 46.591 59.7262 46.142C59.7923 43.8818 59.8323 41.6203 59.9475 39.3623C60.0099 38.1379 60.8927 37.2995 62.0308 37.2186C63.1438 37.1396 64.1021 37.9182 64.3018 39.1215C64.3808 39.5984 64.3594 40.0943 64.3606 40.5814C64.3657 42.9086 64.3628 45.2359 64.3628 47.7068Z" fill="black"/>
<path d="M18.5592 59.0525C20.7039 59.0525 22.7289 59.051 24.7543 59.0529C26.1116 59.0544 27.4701 59.0211 28.8255 59.0724C33.5383 59.2512 37.2061 62.7031 37.2814 67.3945C37.4089 75.3473 37.3827 83.3045 37.2845 91.2582C37.2366 95.1345 33.6702 98.2835 29.7671 98.1963C25.7167 98.1056 22.4632 94.9595 22.4113 90.9585C22.3445 85.7942 22.3678 80.6284 22.3524 75.4635C22.3511 75.0532 22.3521 74.643 22.3521 74.1037C21.8795 74.081 21.4828 74.0464 21.0858 74.0448C18.2208 74.0347 15.3542 74.0845 12.4904 74.0149C6.57714 73.8713 1.50857 68.9907 1.35209 63.0608C1.17232 56.2407 1.15186 49.4135 1.2186 42.591C1.26268 38.0784 4.49228 34.5141 8.69127 33.9808C13.0049 33.4327 16.9778 35.9721 18.1654 40.1229C18.4402 41.0841 18.5344 42.1244 18.5419 43.1296C18.5794 47.9926 18.5589 52.8566 18.5592 57.7198V59.0525ZM31.8926 79.2245H31.8998C31.8998 75.5693 31.9046 71.914 31.8979 68.2587C31.8935 65.7463 30.6613 64.5043 28.1633 64.4992C24.2817 64.4917 20.4004 64.5033 16.5191 64.4949C14.1704 64.4898 13.1277 63.4562 13.1204 61.133C13.1116 58.4197 13.1185 55.7065 13.1179 52.9935C13.1173 49.5643 13.1456 46.1348 13.1047 42.7062C13.0785 40.5152 11.374 39.0758 9.31213 39.4035C7.66931 39.6649 6.6442 41.0174 6.64829 43.0613C6.6612 49.4299 6.67159 55.7987 6.74998 62.1663C6.79752 66.0485 9.39683 68.56 13.2728 68.5795C17.0033 68.5984 20.7341 68.5805 24.4646 68.5852C26.7667 68.588 27.777 69.5889 27.7843 71.8759C27.8038 78.0561 27.8145 84.2361 27.8356 90.416C27.8406 91.8627 28.6391 92.7685 29.8619 92.7537C31.0973 92.7386 31.8885 91.8401 31.8907 90.4163C31.8964 86.6859 31.8926 82.955 31.8926 79.2245Z" fill="black"/>
<path d="M41.3287 10.935C41.3023 5.29438 45.8838 0.678858 51.5713 0.61589C57.1962 0.553867 62.011 5.35199 61.9433 10.9514C61.8747 16.5882 57.1868 21.256 51.6101 21.2412C45.9855 21.2264 41.3552 16.5848 41.3287 10.935ZM46.7829 10.919C46.7877 13.641 48.9969 15.8377 51.6784 15.7867C54.3233 15.7363 56.4866 13.5431 56.4885 10.9098C56.4907 8.21764 54.2723 6.04212 51.5572 6.07392C48.87 6.1054 46.7779 8.22835 46.7829 10.919Z" fill="black"/>
<path d="M53.7824 38.8614C53.9218 37.9796 53.5714 36.7879 54.8411 36.7599C56.2123 36.7293 55.7724 38.0224 55.9881 38.8671C56.7799 39.0594 58.0777 38.6114 58.0777 39.9586C58.0777 41.2387 56.8952 40.9217 56.0407 41.0319C55.6786 41.7812 56.2866 43.3261 54.7454 43.1026C54.2593 43.0321 53.9202 41.9506 53.6492 41.229C53.0277 40.8036 51.6223 41.3559 51.6717 39.9086C51.7145 38.6435 52.9235 39.0346 53.7824 38.8614Z" fill="black"/>
</svg>
