<svg width="1148" height="1101" viewBox="0 0 1148 1101" fill="none" xmlns="http://www.w3.org/2000/svg">
<path d="M1321.21 1015.5C1302.52 1010.12 1284.21 1003.52 1266.38 995.75C1161.13 949.934 1080.31 863.82 1043.41 767.254C971.413 796.295 887.868 801.82 806.914 781.174C706.025 755.433 611.158 690.231 539.606 597.5L550.218 589.313C619.956 679.689 712.377 743.268 810.229 768.185C887.286 787.836 969.079 782.165 1038.74 754.31C1024.24 711.454 1018.42 666.833 1022.91 622.977C1028.12 572.155 1056.77 515.408 1107.39 510.922C1127.52 509.14 1147.55 516.807 1163.79 532.511C1183.53 551.608 1194.88 579.977 1193.42 606.553C1191.18 647.191 1165.86 688.274 1122.13 722.224C1101.52 738.171 1079.08 751.593 1055.28 762.203C1093.75 862.752 1181.01 943.97 1271.73 983.455C1352.83 1018.75 1437.23 1026.98 1509.38 1006.63C1590.93 983.62 1656.59 921.257 1676.65 847.753C1698.48 767.747 1661.68 678.127 1592.88 643.708L1598.87 631.721C1673.19 668.888 1713.03 765.334 1689.58 851.281C1668.31 929.228 1599 995.271 1513.01 1019.53C1454.15 1036.14 1387.62 1034.54 1321.21 1015.5ZM1127.64 526.152C1121.46 524.357 1114.99 523.723 1108.57 524.28C1065.53 528.09 1040.91 578.821 1036.25 624.344C1031.79 667.865 1037.45 709.936 1050.65 749.287C1073.17 739.326 1094.41 726.686 1113.91 711.64C1137.43 693.379 1177.31 655.342 1180.04 605.823C1181.29 583.016 1171.5 558.622 1154.47 542.152C1146.98 534.696 1137.77 529.201 1127.64 526.152Z" fill="#DABFB7"/>
<path d="M634.683 542.812L471.13 665.353C457.04 675.924 439.824 681.487 422.214 681.158C404.603 680.829 387.607 674.628 373.922 663.538L104.866 445.868C96.409 439.027 89.454 430.515 84.4348 420.865C79.4157 411.215 76.4403 400.634 75.6944 389.783C74.9486 378.931 76.4483 368.042 80.1 357.796C83.7516 347.55 89.4767 338.168 96.9177 330.234L156.536 266.656C157.668 265.476 159.22 264.79 160.855 264.747C162.49 264.705 164.076 265.308 165.269 266.427C166.461 267.546 167.165 269.09 167.226 270.724C167.288 272.359 166.703 273.951 165.597 275.157L105.979 338.735C99.7071 345.423 94.8812 353.332 91.8032 361.969C88.7251 370.606 87.4611 379.785 88.0901 388.932C88.719 398.08 91.2274 406.999 95.4586 415.134C99.6898 423.268 105.553 430.443 112.682 436.209L381.734 653.882C393.27 663.232 407.599 668.46 422.445 668.736C437.292 669.013 451.805 664.322 463.681 655.408L627.233 532.871C639.123 523.977 647.701 511.366 651.607 497.04C655.513 482.715 654.522 467.495 648.792 453.796L515.473 134.424C511.94 125.963 506.701 118.322 500.083 111.977C493.465 105.632 485.61 100.719 477.008 97.5456C468.406 94.372 459.243 93.0057 450.089 93.5321C440.936 94.0584 431.99 96.4659 423.808 100.604L346.04 139.962C345.312 140.334 344.518 140.558 343.704 140.621C342.889 140.685 342.07 140.588 341.293 140.334C340.516 140.081 339.797 139.677 339.176 139.145C338.556 138.613 338.047 137.964 337.677 137.235C337.308 136.506 337.087 135.712 337.025 134.897C336.964 134.082 337.064 133.263 337.319 132.487C337.575 131.711 337.981 130.993 338.514 130.374C339.048 129.755 339.698 129.247 340.428 128.88L418.197 89.5224C427.901 84.6113 438.515 81.7539 449.373 81.1287C460.232 80.5035 471.103 82.124 481.307 85.8888C491.512 89.6537 500.83 95.482 508.681 103.01C516.532 110.538 522.746 119.604 526.936 129.641L660.254 449.014C667.053 465.262 668.229 483.316 663.596 500.31C658.964 517.303 648.787 532.262 634.682 542.812" fill="white"/>
<path d="M618.185 562.934L495.072 655.173C492.432 657.101 489.138 657.91 485.905 657.425C482.672 656.941 479.76 655.202 477.801 652.586C475.841 649.969 474.992 646.686 475.437 643.447C475.881 640.208 477.585 637.276 480.177 635.284L603.29 543.045C605.93 541.129 609.218 540.329 612.444 540.817C615.669 541.304 618.574 543.041 620.53 545.652C622.486 548.263 623.336 551.538 622.898 554.771C622.459 558.004 620.767 560.934 618.186 562.93" fill="#DABFB7"/>
<path d="M153.454 254.871L181.238 217.807C182.263 216.441 183.564 215.305 185.057 214.476C186.55 213.646 188.201 213.14 189.903 212.991C191.604 212.842 193.318 213.053 194.932 213.611C196.547 214.169 198.025 215.061 199.272 216.229L213.142 229.238C214.389 230.406 215.375 231.824 216.036 233.399C216.697 234.974 217.019 236.671 216.98 238.379C216.941 240.086 216.543 241.767 215.811 243.31C215.078 244.853 214.029 246.225 212.731 247.335L177.528 277.444C176.164 278.611 174.416 279.233 172.621 279.193C170.826 279.153 169.109 278.453 167.797 277.226L154.3 264.563C152.992 263.334 152.183 261.666 152.027 259.878C151.871 258.09 152.379 256.307 153.454 254.87" fill="#383838"/>
<path d="M329.981 122.612L286.602 138.867C285.002 139.467 283.547 140.397 282.332 141.596C281.116 142.796 280.167 144.239 279.546 145.83C278.925 147.421 278.647 149.125 278.729 150.831C278.811 152.537 279.252 154.207 280.022 155.731L288.61 172.695C289.381 174.219 290.465 175.564 291.791 176.64C293.117 177.717 294.656 178.503 296.305 178.945C297.955 179.387 299.68 179.477 301.367 179.208C303.054 178.939 304.665 178.317 306.095 177.383L344.882 152.055C346.385 151.074 347.473 149.574 347.937 147.84C348.402 146.107 348.21 144.263 347.399 142.662L339.046 126.146C338.235 124.544 336.862 123.298 335.19 122.646C333.517 121.993 331.663 121.981 329.982 122.611" fill="#383838"/>
</svg>
