<svg width="227" height="79" viewBox="0 0 227 79" fill="none" xmlns="http://www.w3.org/2000/svg">
<g clip-path="url(#clip0_349_1125)">
<path d="M8.74748 38.2567H12.7513C21.5352 38.2567 25.0216 33.9841 25.0216 29.7484C25.0216 26.0422 22.4591 22.9763 16.2994 22.0651C21.3873 21.0185 23.494 18.0511 23.494 14.7389C23.494 10.2816 19.7735 7.11719 13.4043 7.11719H0.000600799V8.97645L4.32476 9.48128C4.411 13.4953 4.411 17.5216 4.411 21.5234V23.8505C4.411 27.9138 4.411 31.9524 4.32476 35.8926L-0.0117188 36.3974V38.2567H8.73516H8.74748ZM20.5989 29.7484C20.5989 33.8363 17.6668 36.1142 11.6303 36.1142H8.6982C8.61197 32.0386 8.61197 27.8768 8.61197 23.2472H11.2607C17.7654 23.2472 20.6112 25.4266 20.6112 29.7484H20.5989ZM12.0368 9.25964C16.8291 9.25964 19.293 10.7495 19.293 15.0221C19.293 19.2947 16.8291 21.1047 11.1128 21.1047H8.59965C8.59965 17.103 8.59965 13.1382 8.68588 9.25964H12.0368Z" fill="url(#paint0_linear_349_1125)"/>
<path d="M39.8409 38.8596C45.089 38.8596 50.4357 35.0549 50.4357 27.3346C50.4357 19.6144 45.089 15.625 39.8409 15.625C34.5928 15.625 29.2461 19.6267 29.2461 27.3346C29.2461 35.0425 34.4942 38.8596 39.8409 38.8596ZM39.8409 17.7182C43.8817 17.7182 46.2594 21.1043 46.2594 27.3346C46.2594 33.565 43.894 36.7664 39.8409 36.7664C35.7878 36.7664 33.4224 33.565 33.4224 27.3346C33.4224 21.1043 35.7015 17.7182 39.8409 17.7182Z" fill="url(#paint1_linear_349_1125)"/>
<path d="M65.3175 38.8596C70.5656 38.8596 75.9123 35.0549 75.9123 27.3346C75.9123 19.6144 70.5656 15.625 65.3175 15.625C60.0693 15.625 54.7227 19.6267 54.7227 27.3346C54.7227 35.0425 59.9708 38.8596 65.3175 38.8596ZM65.3175 17.7182C69.3583 17.7182 71.736 21.1043 71.736 27.3346C71.736 33.565 69.3706 36.7664 65.3175 36.7664C61.2643 36.7664 58.899 33.565 58.899 27.3346C58.899 21.1043 61.1781 17.7182 65.3175 17.7182Z" fill="url(#paint2_linear_349_1125)"/>
<path d="M92.1005 24.0106L97.2993 18.6668L101.673 18.0019V16.2411H90.8808V18.0019L94.3057 18.8638L86.3226 27.212V10.848L86.5074 4.2483L85.8545 3.87891L78.7461 5.97211V7.59742L82.6021 8.06531V28.5172C82.6021 31.0044 82.5652 33.4916 82.5159 35.9788L78.7461 36.6437V38.269H90.1786V36.6437L86.4089 35.9788C86.3596 33.9595 86.3349 31.9525 86.3226 29.9331L89.4641 26.7071L96.7203 38.269H102.855V36.6437L99.8002 36.0896L92.0758 24.0229L92.1005 24.0106Z" fill="url(#paint3_linear_349_1125)"/>
<path d="M109.954 10.3805C111.679 10.3805 113.022 9.17383 113.022 7.45002C113.022 5.7262 111.679 4.51953 109.954 4.51953C108.23 4.51953 106.887 5.67695 106.887 7.45002C106.887 9.22308 108.23 10.3805 109.954 10.3805Z" fill="url(#paint4_linear_349_1125)"/>
<path d="M143.424 38.2562V36.6309L140.098 35.966C140.049 33.6512 140.024 30.6345 140.024 28.4921V24.2195C140.024 18.0876 138.115 15.625 134.123 15.625C131.203 15.625 127.951 17.4104 125.721 19.8607L125.327 16.0929L124.625 15.625L118.305 18.4077V20.033L122.025 20.4517C122.124 22.3109 122.161 23.7516 122.161 26.3127V28.4921C122.161 30.5729 122.136 33.6512 122.087 35.9907L118.576 36.6309V38.2562H129.269V36.6309L125.943 35.966C125.894 33.6389 125.869 30.5729 125.869 28.4921V21.7692C128.333 19.7252 130.168 18.8756 132.374 18.8756C135.158 18.8756 136.279 20.267 136.279 24.5888V28.4921C136.279 30.6345 136.254 33.6758 136.205 35.9907L132.694 36.6309V38.2562H143.387H143.424Z" fill="url(#paint5_linear_349_1125)"/>
<path d="M21.854 47.0352H19.0698L9.12795 75.9583L5.22266 76.5493V78.4086H15.916V76.5493L11.3208 75.9214L13.9449 68.2258H24.8231L27.4348 75.9953L22.8027 76.5493V78.4086H35.3563V76.5493L31.7836 76.1184L21.8664 47.0475L21.854 47.0352ZM14.6594 66.0833L19.4148 52.145L24.0962 66.0833H14.6718H14.6594Z" fill="url(#paint6_linear_349_1125)"/>
<path d="M56.583 50.9887L56.7678 44.3889L56.1148 44.0195L49.0065 46.1127V47.738L53.0103 48.2059V58.8074C51.0392 56.5172 49.105 55.7784 46.9244 55.7784C41.2082 55.7784 37.0195 60.5189 37.0195 67.5865C37.0195 74.6542 40.8263 79.013 46.5056 79.013C49.4376 79.013 51.4334 77.7694 53.0226 75.6146L53.3429 78.8775L60.4513 78.4096V76.7843L56.5953 76.1564V50.9887H56.583ZM47.5158 76.4519C43.746 76.4519 40.9618 73.6692 40.9618 67.488C40.9618 61.3069 43.9801 58.3395 47.4665 58.3395C49.0188 58.3395 50.6573 58.9182 52.8625 60.839V73.6692C51.0885 75.6885 49.5855 76.4765 47.5158 76.4765V76.4519Z" fill="url(#paint7_linear_349_1125)"/>
<path d="M98.2381 68.645V63.8552C98.2381 58.0928 96.0575 55.7656 92.337 55.7656C89.3311 55.7656 86.2142 57.2309 83.8489 60.0875C83.0727 57.0462 81.2741 55.7656 78.3913 55.7656C75.5085 55.7656 72.3794 57.551 70.1742 59.989L69.78 56.2335L69.0777 55.7656L62.7578 58.5484V60.1737L66.4783 60.5923C66.5769 62.4516 66.6138 63.8922 66.6138 66.4533V68.6327C66.6138 70.7136 66.5892 73.7918 66.5399 76.1313L63.0288 76.7715V78.3969H73.7222V76.7715L70.3959 76.1066C70.3467 73.7795 70.322 70.7136 70.322 68.6327V61.8975C72.7243 59.8535 74.4737 59.0162 76.6419 59.0162C79.4262 59.0162 80.5472 60.4076 80.5472 64.7295V68.6327C80.5472 70.7751 80.5226 73.8164 80.4733 76.1313L76.9623 76.7715V78.3969H87.6556V76.7715L84.3293 76.1066C84.2801 73.7918 84.2554 70.7751 84.2554 68.6327V64.3601C84.2554 63.4982 84.2185 62.7101 84.1446 61.996C86.6208 59.8043 88.518 59.0162 90.5384 59.0162C93.2857 59.0162 94.493 60.2722 94.493 64.6433V68.645C94.493 70.7874 94.4683 73.8287 94.4191 76.1436L90.908 76.7839V78.4092H101.601V76.7839L98.2751 76.119C98.2258 73.8041 98.2012 70.7874 98.2012 68.645H98.2381Z" fill="url(#paint8_linear_349_1125)"/>
<path d="M128.691 65.616L127.299 65.0989C124.133 63.9414 122.975 63.1411 122.975 61.0602C122.975 59.1024 124.466 57.8588 127.348 57.8588C128.482 57.8588 129.566 58.142 130.613 58.6838L131.34 62.3654H133.668L133.853 57.6741C131.857 56.4675 129.899 55.7656 127.385 55.7656C122.224 55.7656 119.39 58.8808 119.39 62.2299C119.39 65.3944 121.62 67.2044 125.02 68.4603L127.164 69.2483C130.096 70.3196 131.488 71.3415 131.488 73.3362C131.488 75.4787 129.812 76.9193 126.24 76.9193C124.798 76.9193 123.566 76.673 122.458 76.1805L121.546 72.1788H119.082L119.267 77.2394C121.546 78.3969 123.542 79.0002 126.153 79.0002C132.104 79.0002 135.122 75.8358 135.122 72.4004C135.122 69.5192 133.36 67.3398 128.704 65.616H128.691Z" fill="url(#paint9_linear_349_1125)"/>
<path d="M148.82 65.616L147.428 65.0989C144.262 63.9414 143.104 63.1411 143.104 61.0602C143.104 59.1024 144.595 57.8588 147.477 57.8588C148.611 57.8588 149.695 58.142 150.742 58.6838L151.469 62.3654H153.797L153.982 57.6741C151.986 56.4675 150.027 55.7656 147.514 55.7656C142.352 55.7656 139.519 58.8808 139.519 62.2299C139.519 65.3944 141.749 67.2044 145.149 68.4603L147.293 69.2483C150.225 70.3196 151.617 71.3415 151.617 73.3362C151.617 75.4787 149.941 76.9193 146.369 76.9193C144.927 76.9193 143.695 76.673 142.586 76.1805L141.675 72.1788H139.211L139.396 77.2394C141.675 78.3969 143.671 79.0002 146.282 79.0002C152.233 79.0002 155.251 75.8358 155.251 72.4004C155.251 69.5192 153.489 67.3398 148.833 65.616H148.82Z" fill="url(#paint10_linear_349_1125)"/>
<path d="M167.745 16.0929L167.043 15.625L161.782 17.4227C160.316 16.216 158.296 15.625 155.98 15.625C151.237 15.625 147.615 18.3215 147.615 23.2467C147.615 26.4358 148.982 28.6152 151.187 29.7972C148.896 31.9766 148.083 33.4911 148.083 34.9071C148.083 36.7048 149.118 37.8745 151.138 38.4409C147.664 40.1524 146.543 41.7285 146.543 43.7232C146.543 47.0723 149.475 49.3995 156.165 49.3995C157.766 49.3995 159.195 49.2148 160.464 48.8946C160.292 48.4514 160.205 47.9712 160.205 47.4663C160.205 47.2324 160.23 46.9984 160.267 46.7768C159.171 47.1216 157.852 47.3186 156.312 47.3186C152.69 47.3186 150.313 46.1119 150.313 43.046C150.313 41.4945 150.855 40.2509 152.185 38.7857C152.764 38.8349 153.393 38.8596 153.984 38.8596H159.466C162.866 38.8596 164.16 40.4356 164.16 42.5288C164.16 42.8613 164.111 43.1937 164.024 43.5139C164.074 43.5139 164.111 43.5139 164.16 43.5139C165.145 43.5139 166.032 43.8709 166.735 44.462C167.252 43.5016 167.511 42.455 167.511 41.4207C167.511 37.6529 165.133 35.4735 160.168 35.4735H154.033C151.853 35.4735 151.335 34.6362 151.335 33.3803C151.335 32.2844 151.717 31.4225 152.555 30.3759C153.577 30.6961 154.723 30.8685 155.943 30.8685C160.637 30.8685 164.271 28.1719 164.271 23.2467C164.271 21.5352 163.864 20.1069 163.162 18.9741H167.757V16.0929H167.745ZM155.795 29.0092C152.912 29.0092 151.237 26.682 151.237 23.296C151.237 19.9099 153.048 17.4843 156.029 17.4843C159.01 17.4843 160.637 19.8114 160.637 23.1113C160.637 26.4112 158.826 29.0092 155.807 29.0092H155.795Z" fill="url(#paint11_linear_349_1125)"/>
<path d="M166.019 68.6444V62.5125L166.154 56.2452L165.452 55.7773L158.43 58.5601V60.1854L162.236 60.604C162.335 62.4633 162.372 63.9039 162.372 66.465V68.6444C162.372 70.7253 162.347 73.7912 162.298 76.1184L158.701 76.771V78.3963H169.394V76.771L166.068 76.1061C166.019 73.7789 165.994 70.713 165.994 68.6321L166.019 68.6444Z" fill="url(#paint12_linear_349_1125)"/>
<path d="M183.65 55.7656C178.303 55.7656 173.055 59.7673 173.055 67.4753C173.055 75.1832 178.303 79.0002 183.65 79.0002C188.996 79.0002 194.244 75.1955 194.244 67.4753C194.244 59.755 188.898 55.7656 183.65 55.7656ZM183.65 76.907C179.51 76.907 177.231 73.7056 177.231 67.4753C177.231 61.2449 179.51 57.8588 183.65 57.8588C187.789 57.8588 190.068 61.2572 190.068 67.4753C190.068 73.6933 187.703 76.907 183.65 76.907Z" fill="url(#paint13_linear_349_1125)"/>
<path d="M219.793 76.1066C219.744 73.7918 219.719 70.7751 219.719 68.6327V64.3601C219.719 58.2282 217.81 55.7656 213.818 55.7656C210.899 55.7656 207.646 57.551 205.416 60.0013L205.022 56.2335L204.32 55.7656L198 58.5484V60.1737L201.721 60.5923C201.819 62.4516 201.856 63.8922 201.856 66.4533V68.6327C201.856 70.7136 201.831 73.7918 201.782 76.1313L198.271 76.7715V78.3969H208.964V76.7715L205.638 76.1066C205.589 73.7795 205.564 70.7136 205.564 68.6327V61.9098C208.028 59.8658 209.864 59.0162 212.069 59.0162C214.853 59.0162 215.974 60.4076 215.974 64.7295V68.6327C215.974 70.7751 215.95 73.8164 215.9 76.1313L212.389 76.7715V78.3969H223.083V76.7715L219.756 76.1066H219.793Z" fill="url(#paint14_linear_349_1125)"/>
<path d="M115.347 76.7712V78.3965H104.653V76.7712L108.041 76.1555V20.464L104.234 20.0454V18.42L111.257 15.625L111.959 16.0929L111.86 20.464L111.823 22.3725V28.5044C111.823 30.1174 111.823 32.346 111.86 34.353V76.1186L115.359 76.7712H115.347Z" fill="url(#paint15_linear_349_1125)"/>
<path d="M111.849 20.4648V34.3539C111.825 32.3469 111.812 30.1305 111.812 28.5052V22.3734L111.849 20.4648Z" fill="url(#paint16_linear_349_1125)"/>
<path d="M167.238 47.589C167.238 49.1528 166.129 50.2979 164.626 50.4826C164.577 50.4826 164.515 50.4949 164.453 50.5072C164.355 50.5072 164.269 50.5195 164.17 50.5195C164.108 50.5195 164.047 50.5195 163.985 50.5195C163.936 50.5195 163.899 50.5195 163.862 50.5195C163.763 50.5195 163.665 50.4949 163.579 50.4703C163.32 50.421 163.074 50.3348 162.84 50.2117C162.79 50.1871 162.729 50.1624 162.679 50.1255C162.642 50.1009 162.605 50.0886 162.568 50.0639C162.507 50.027 162.433 49.9777 162.371 49.9285C162.322 49.8916 162.285 49.8669 162.248 49.83C162.211 49.8054 162.187 49.7807 162.162 49.7561C162.113 49.7069 162.051 49.6576 162.014 49.6084C161.965 49.5591 161.916 49.4975 161.866 49.4483C161.842 49.436 161.829 49.4113 161.817 49.399C161.78 49.3498 161.755 49.3128 161.718 49.2636C161.694 49.2266 161.669 49.1897 161.645 49.1405C161.62 49.1158 161.608 49.0912 161.595 49.0543C161.571 49.005 161.546 48.9681 161.521 48.9311C161.497 48.8819 161.472 48.8326 161.447 48.7834C161.41 48.7218 161.386 48.6479 161.361 48.5864C161.324 48.5002 161.3 48.414 161.275 48.3278C161.25 48.2416 161.226 48.1431 161.213 48.0569C161.189 47.9707 161.176 47.8722 161.176 47.7737C161.176 47.6752 161.164 47.5767 161.164 47.4782C161.164 47.0842 161.238 46.7025 161.373 46.37C161.743 45.4096 162.605 44.6832 163.64 44.4985C163.825 44.4615 164.01 44.4492 164.207 44.4492C165.008 44.4492 165.747 44.7694 166.289 45.2742C166.671 45.619 166.954 46.0622 167.114 46.5671C167.114 46.5671 167.114 46.5917 167.114 46.604C167.225 46.9118 167.275 47.2443 167.275 47.6013L167.238 47.589Z" fill="url(#paint17_linear_349_1125)"/>
<path d="M200.758 26.017C198.627 25.4998 197.272 26.0293 196.939 27.4084C196.594 28.8244 197.567 29.8833 199.699 30.4004C201.83 30.9176 203.111 30.4004 203.456 28.9844C203.789 27.6054 202.89 26.5218 200.758 26.0047V26.017Z" fill="url(#paint18_linear_349_1125)"/>
<path d="M225.424 32.2844C223.452 33.331 221.013 32.5799 219.966 30.6099C218.919 28.6398 219.67 26.2018 221.642 25.1552L219.535 21.1781C217.564 22.2247 215.124 21.4736 214.077 19.5036C213.03 17.5335 213.782 15.0955 215.753 14.0489L213.646 10.0718C211.675 11.1184 209.236 10.3673 208.189 8.39727C207.141 6.4272 207.893 3.98923 209.864 2.94263L208.287 -0.0371094L173.004 18.6786L174.581 21.6583C176.552 20.6117 178.991 21.3628 180.038 23.3329C181.086 25.303 180.334 27.7409 178.363 28.7875L180.47 32.7646C182.441 31.718 184.88 32.4691 185.927 34.4392C186.974 36.4093 186.223 38.8472 184.252 39.8938L186.358 43.8709C188.329 42.8243 190.769 43.5754 191.816 45.5455C192.863 47.5156 192.112 49.9535 190.14 51.0001L191.717 53.9799L227 35.2642L225.424 32.2844ZM200.784 43.1568C200.637 43.7724 200.008 44.1418 199.405 43.9941C198.789 43.8463 198.395 43.2307 198.542 42.6027C198.69 41.987 199.318 41.6177 199.947 41.7654C200.55 41.9132 200.945 42.5288 200.784 43.1445V43.1568ZM202.275 37.0249C201.745 39.2043 199.885 40.2017 197.458 39.6106C194.957 39.0073 193.886 36.8895 194.354 35.0056C194.699 33.5896 195.857 32.6292 197.089 32.7031C197.471 32.8755 197.606 33.1586 197.508 33.565C197.384 34.0944 197.015 34.2176 196.584 34.2299L195.438 34.2791C195.265 34.5746 195.142 34.8702 195.081 35.1287C194.748 36.5078 195.598 37.7637 197.643 38.2562C199.651 38.7364 201.006 37.9484 201.364 36.4462C201.585 35.5227 201.339 34.6116 200.661 33.9221L200.945 33.5896C202.164 34.3407 202.645 35.5351 202.287 37.0249H202.275ZM204.172 29.1692C203.729 30.9916 201.992 32.4814 199.343 31.8412C196.694 31.2009 195.77 29.0707 196.214 27.2484C196.645 25.4507 198.456 23.9609 201.105 24.5888C203.754 25.2168 204.604 27.3716 204.172 29.1692ZM207.499 14.5661L206.944 14.4306L207.018 13.1747C206.23 12.9654 205.195 12.7068 204.456 12.5344L203.088 12.202C201.598 11.8449 201.068 12.1527 200.834 13.0885C200.661 13.778 200.784 14.4922 201.327 15.5265C201.573 15.5634 201.844 15.6127 202.14 15.6865L203.606 16.0436C204.333 16.216 205.367 16.4623 206.168 16.6346L206.673 15.5511L207.228 15.6865L206.92 16.9671L206.624 18.1738L206.341 19.3558L205.786 19.2204L205.86 17.9644C205.072 17.7551 204.037 17.4966 203.298 17.3242L201.967 17.004C200.489 16.647 199.922 16.9178 199.688 17.8659C199.503 18.6047 199.651 19.2819 200.156 20.267L202.46 20.8211C203.174 20.9934 204.222 21.2397 205.022 21.4121L205.528 20.3285L206.082 20.464L205.811 21.5721L205.528 22.7665L205.195 24.1209L204.641 23.9855L204.714 22.7296C203.914 22.5202 202.866 22.2617 202.152 22.077L201.4 21.8923C200.526 21.683 200.033 21.5721 199.38 21.449L198.924 22.6803L198.37 22.5449L197.939 20.1562L198.16 19.9591L199.479 20.1438C198.826 19.1957 198.468 17.9768 198.715 16.9917C198.949 16.0067 199.553 15.5019 200.661 15.4895C199.873 14.4429 199.626 13.2609 199.873 12.2266C200.181 10.9584 201.154 10.4043 203.125 10.8722L204.764 11.2662C205.491 11.4386 206.525 11.6848 207.326 11.8572L207.831 10.7737L208.386 10.9091L207.499 14.5661Z" fill="url(#paint19_linear_349_1125)"/>
</g>
<defs>
<linearGradient id="paint0_linear_349_1125" x1="233.518" y1="22.6931" x2="8.82141" y2="22.6931" gradientUnits="userSpaceOnUse">
<stop stop-color="#C3AAB0"/>
<stop offset="1" stop-color="#2CD3D9"/>
</linearGradient>
<linearGradient id="paint1_linear_349_1125" x1="233.517" y1="27.2484" x2="8.82028" y2="27.2484" gradientUnits="userSpaceOnUse">
<stop stop-color="#C3AAB0"/>
<stop offset="1" stop-color="#2CD3D9"/>
</linearGradient>
<linearGradient id="paint2_linear_349_1125" x1="233.516" y1="27.2484" x2="8.82001" y2="27.2484" gradientUnits="userSpaceOnUse">
<stop stop-color="#C3AAB0"/>
<stop offset="1" stop-color="#2CD3D9"/>
</linearGradient>
<linearGradient id="paint3_linear_349_1125" x1="233.517" y1="21.0678" x2="8.82034" y2="21.0678" gradientUnits="userSpaceOnUse">
<stop stop-color="#C3AAB0"/>
<stop offset="1" stop-color="#2CD3D9"/>
</linearGradient>
<linearGradient id="paint4_linear_349_1125" x1="233.519" y1="7.45001" x2="8.8232" y2="7.45001" gradientUnits="userSpaceOnUse">
<stop stop-color="#C3AAB0"/>
<stop offset="1" stop-color="#2CD3D9"/>
</linearGradient>
<linearGradient id="paint5_linear_349_1125" x1="233.517" y1="26.9406" x2="8.82085" y2="26.9406" gradientUnits="userSpaceOnUse">
<stop stop-color="#C3AAB0"/>
<stop offset="1" stop-color="#2CD3D9"/>
</linearGradient>
<linearGradient id="paint6_linear_349_1125" x1="233.516" y1="62.7096" x2="8.81997" y2="62.7096" gradientUnits="userSpaceOnUse">
<stop stop-color="#C3AAB0"/>
<stop offset="1" stop-color="#2CD3D9"/>
</linearGradient>
<linearGradient id="paint7_linear_349_1125" x1="233.516" y1="61.5039" x2="8.82008" y2="61.5039" gradientUnits="userSpaceOnUse">
<stop stop-color="#C3AAB0"/>
<stop offset="1" stop-color="#2CD3D9"/>
</linearGradient>
<linearGradient id="paint8_linear_349_1125" x1="233.519" y1="67.0812" x2="8.82282" y2="67.0812" gradientUnits="userSpaceOnUse">
<stop stop-color="#C3AAB0"/>
<stop offset="1" stop-color="#2CD3D9"/>
</linearGradient>
<linearGradient id="paint9_linear_349_1125" x1="233.518" y1="67.3891" x2="8.8221" y2="67.3891" gradientUnits="userSpaceOnUse">
<stop stop-color="#C3AAB0"/>
<stop offset="1" stop-color="#2CD3D9"/>
</linearGradient>
<linearGradient id="paint10_linear_349_1125" x1="233.517" y1="67.3891" x2="8.82087" y2="67.3891" gradientUnits="userSpaceOnUse">
<stop stop-color="#C3AAB0"/>
<stop offset="1" stop-color="#2CD3D9"/>
</linearGradient>
<linearGradient id="paint11_linear_349_1125" x1="233.519" y1="32.5184" x2="8.82273" y2="32.5184" gradientUnits="userSpaceOnUse">
<stop stop-color="#C3AAB0"/>
<stop offset="1" stop-color="#2CD3D9"/>
</linearGradient>
<linearGradient id="paint12_linear_349_1125" x1="233.517" y1="67.0806" x2="8.82119" y2="67.0806" gradientUnits="userSpaceOnUse">
<stop stop-color="#C3AAB0"/>
<stop offset="1" stop-color="#2CD3D9"/>
</linearGradient>
<linearGradient id="paint13_linear_349_1125" x1="233.519" y1="67.3891" x2="8.8228" y2="67.3891" gradientUnits="userSpaceOnUse">
<stop stop-color="#C3AAB0"/>
<stop offset="1" stop-color="#2CD3D9"/>
</linearGradient>
<linearGradient id="paint14_linear_349_1125" x1="233.517" y1="67.0812" x2="8.82101" y2="67.0812" gradientUnits="userSpaceOnUse">
<stop stop-color="#C3AAB0"/>
<stop offset="1" stop-color="#2CD3D9"/>
</linearGradient>
<linearGradient id="paint15_linear_349_1125" x1="233.516" y1="47.0108" x2="8.81948" y2="47.0108" gradientUnits="userSpaceOnUse">
<stop stop-color="#C3AAB0"/>
<stop offset="1" stop-color="#2CD3D9"/>
</linearGradient>
<linearGradient id="paint16_linear_349_1125" x1="233.512" y1="27.4094" x2="8.82526" y2="27.4094" gradientUnits="userSpaceOnUse">
<stop stop-color="#C3AAB0"/>
<stop offset="1" stop-color="#2CD3D9"/>
</linearGradient>
<linearGradient id="paint17_linear_349_1125" x1="233.517" y1="47.4782" x2="8.82079" y2="47.4782" gradientUnits="userSpaceOnUse">
<stop stop-color="#C3AAB0"/>
<stop offset="1" stop-color="#2CD3D9"/>
</linearGradient>
<linearGradient id="paint18_linear_349_1125" x1="233.516" y1="28.2087" x2="8.81985" y2="28.2087" gradientUnits="userSpaceOnUse">
<stop stop-color="#C3AAB0"/>
<stop offset="1" stop-color="#2CD3D9"/>
</linearGradient>
<linearGradient id="paint19_linear_349_1125" x1="233.518" y1="26.9898" x2="8.82127" y2="26.9898" gradientUnits="userSpaceOnUse">
<stop stop-color="#C3AAB0"/>
<stop offset="1" stop-color="#2CD3D9"/>
</linearGradient>
<clipPath id="clip0_349_1125">
<rect width="227" height="79" fill="white"/>
</clipPath>
</defs>
</svg>
