<svg width="58" height="49" viewBox="0 0 58 49" fill="none" xmlns="http://www.w3.org/2000/svg">
<path d="M0 9.84753C0.38377 9.04915 0.654961 8.16684 1.17417 7.46913C2.42021 5.79501 4.73034 5.25842 6.75081 6.03833C8.60123 6.75264 9.88422 8.71955 9.80484 10.7204C9.70917 13.1331 7.88975 15.2032 5.64506 15.4533C2.98623 15.7495 0.769731 14.234 0.118529 11.6763C0.0869001 11.5523 0.0397705 11.4322 0 11.3103V9.84753ZM7.09512 10.5678C7.08729 9.38563 6.08254 8.38667 4.90586 8.39121C3.73592 8.39575 2.72052 9.4099 2.71457 10.5795C2.70846 11.7753 3.74657 12.7967 4.94657 12.7754C6.1353 12.7542 7.1031 11.7598 7.09512 10.5678Z" fill="#1A1818"/>
<path d="M15.167 23.3906C14.9057 21.3318 14.93 19.3763 15.1797 17.4109C15.5782 14.2764 18.1821 11.7416 21.3347 11.5648C21.7212 11.5432 22.1967 11.7133 22.505 11.955C23.566 12.7869 24.571 13.6899 25.6538 14.614C26.4388 13.9589 27.3124 13.3832 27.9913 12.6316C29.359 11.1176 30.8623 11.4632 32.3772 12.1889C34.7585 13.3294 35.974 15.2954 36.2366 17.9045C36.4062 19.5895 36.4386 21.2682 36.2357 22.9505C36.2203 23.0778 36.2336 23.2085 36.2336 23.3749H40.1759C40.1759 23.1549 40.1739 22.9545 40.1763 22.7543C40.1977 21.0239 41.3457 19.8836 43.0883 19.8704C44.08 19.8629 45.0718 19.869 46.108 19.869V18.824H45.5346C43.8846 18.824 42.2345 18.8275 40.5844 18.8231C38.6001 18.8179 37.4787 17.6982 37.4773 15.7235C37.4755 12.5735 37.5162 9.4227 37.4618 6.27363C37.4305 4.4802 38.7159 3.16292 40.5343 3.18734C45.2022 3.24997 49.8724 3.25451 54.5403 3.18546C56.4115 3.15791 57.6687 4.54157 57.6277 6.24795C57.5516 9.43381 57.6073 12.6227 57.6053 15.8102C57.6042 17.6865 56.487 18.8109 54.5993 18.8218C52.9304 18.8317 51.2616 18.824 49.5928 18.824H48.9541V19.8689C49.9178 19.8689 50.8708 19.9121 51.8182 19.8596C53.5877 19.7616 54.9446 21.0502 54.9317 22.9544C54.878 30.9042 54.9031 38.8546 54.8977 46.8048C54.8971 47.7959 54.5332 48.3146 53.7455 48.469C53.0663 48.602 52.3538 48.1474 52.2267 47.4712C52.1719 47.1793 52.1691 46.8746 52.1696 46.5757C52.1793 38.8319 52.1929 31.0879 52.2056 23.3439C52.2062 23.1207 52.2057 22.8972 52.2057 22.6301H42.9777C42.9597 22.7527 42.9232 22.8925 42.921 23.033C42.9134 23.5202 42.9259 24.0078 42.9156 24.4951C42.8919 25.6179 42.3708 26.1313 41.2486 26.1448C40.8174 26.1499 40.3861 26.1457 39.9549 26.1457C30.8421 26.1457 21.7296 26.1465 12.6167 26.1421C12.3203 26.142 12.017 26.1185 11.7283 26.0543C11.1034 25.9151 10.6907 25.3777 10.6954 24.7606C10.7005 24.1196 11.1452 23.5827 11.7966 23.4648C12.0707 23.4152 12.3537 23.3969 12.633 23.3939C13.4538 23.3848 14.275 23.3906 15.167 23.3906ZM40.2683 16.0321H54.8674V5.94341H40.2683V16.0321ZM32.0292 23.3746H33.4132C33.4489 23.2169 33.5025 23.0903 33.5026 22.9635C33.5062 21.2633 33.6035 19.5554 33.4716 17.8655C33.3357 16.1232 32.3272 14.9356 30.6102 14.443C30.4243 14.3898 30.1311 14.4599 29.9778 14.5841C28.9145 15.445 27.8784 16.3393 26.8271 17.2149C25.9386 17.955 25.3677 17.9552 24.4998 17.2197C23.4701 16.3473 22.4558 15.4562 21.4108 14.6024C21.2467 14.4684 20.9392 14.4075 20.7274 14.4521C19.9519 14.6157 19.3315 15.0612 18.8139 15.6549C18.142 16.4256 17.9251 17.3546 17.8224 18.3427C17.6471 20.024 17.6691 21.6941 17.9367 23.3671H19.3747C19.3747 23.1 19.3764 22.8773 19.3746 22.6547C19.3641 21.4935 19.3234 20.3314 19.3542 19.1713C19.3688 18.6098 19.8634 18.2107 20.4004 18.194C20.8979 18.1783 21.3852 18.5444 21.4857 19.0708C21.5588 19.4538 21.5784 19.851 21.5832 20.2423C21.5958 21.2696 21.5873 22.2971 21.5873 23.3544H29.706C29.706 23.0433 29.6992 22.7674 29.7072 22.4917C29.7382 21.405 29.7528 20.3175 29.816 19.2325C29.851 18.634 30.3259 18.2142 30.8815 18.1952C31.4014 18.1775 31.8702 18.5519 31.982 19.1256C32.0385 19.415 32.0261 19.7198 32.0272 20.0178C32.0319 21.1215 32.0292 22.2252 32.0292 23.3746Z" fill="#1A1818"/>
<path d="M9.23021 29.0686C10.8669 29.0686 12.4194 29.0806 13.9717 29.0646C15.14 29.0524 16.191 29.3495 17.0788 30.1323C18.0109 30.9539 18.5481 31.9842 18.5537 33.2296C18.5719 37.1838 18.5777 41.1383 18.552 45.0923C18.5399 46.959 16.827 48.5318 14.8811 48.5462C12.9073 48.5608 11.1796 46.9917 11.1505 45.0971C11.1105 42.4927 11.1163 39.8874 11.1029 37.2824C11.1016 37.062 11.1027 36.8415 11.1027 36.5689C10.8422 36.5568 10.6435 36.5402 10.4448 36.5399C9.20782 36.5374 7.96914 36.4956 6.73438 36.5468C3.38191 36.6859 0.611442 33.9916 0.608937 30.6044C0.606589 27.3622 0.563373 24.1198 0.588269 20.878C0.605336 18.6409 2.32705 16.7654 4.42268 16.5957C6.82143 16.4015 8.73746 17.835 9.17431 20.1715C9.23898 20.5176 9.22723 20.8804 9.22786 21.2353C9.23209 23.6155 9.23021 25.9956 9.23021 28.3757V29.0686ZM15.8611 39.083H15.8667C15.8667 37.2649 15.8713 35.4469 15.8651 33.6287C15.8609 32.4292 15.2177 31.7872 14.0262 31.785C12.0768 31.7812 10.1276 31.7863 8.17817 31.783C7.03892 31.7809 6.52801 31.2739 6.52629 30.1419C6.52284 27.9115 6.52535 25.681 6.52519 23.4504C6.52503 22.6257 6.54398 21.8004 6.51908 20.9765C6.48761 19.9267 5.78035 19.2448 4.81662 19.2928C3.89893 19.3386 3.33165 20.0181 3.33259 21.1193C3.33509 24.2306 3.34825 27.3421 3.3614 30.4535C3.37032 32.545 4.63672 33.8103 6.72467 33.8149C8.54268 33.8189 10.3608 33.8149 12.179 33.8161C13.3278 33.8171 13.825 34.309 13.8271 35.4486C13.8331 38.5037 13.8356 41.559 13.8431 44.6141C13.845 45.3823 14.2375 45.8412 14.8618 45.8255C15.4942 45.8096 15.8597 45.3629 15.8605 44.5936C15.8623 42.7568 15.8611 40.9198 15.8611 39.083Z" fill="#1A1818"/>
<path d="M30.8157 5.12754C30.8211 7.92134 28.4483 10.2943 25.6614 10.282C22.861 10.2698 20.4914 7.88219 20.5293 5.11094C20.5678 2.30634 22.843 -0.0192948 25.6504 0.000120694C28.5338 0.0203191 30.7116 2.19251 30.8157 5.12754ZM23.2766 5.13772C23.2791 6.47504 24.3095 7.51502 25.6467 7.53021C26.9985 7.5454 28.0723 6.48099 28.0694 5.12895C28.0664 3.77534 27.0007 2.72941 25.6366 2.74084C24.3103 2.7518 23.2741 3.80415 23.2766 5.13772Z" fill="#1A1818"/>
<path d="M26.7416 19.0252C26.831 18.5996 26.6185 18.0031 27.2616 17.9793C27.9601 17.9536 27.7434 18.5866 27.8423 19.0071C28.2062 19.1714 28.9099 18.8685 28.8911 19.5977C28.8745 20.247 28.2789 20.0381 27.8746 20.1239C27.6937 20.485 28.0057 21.1938 27.2816 21.1839C26.599 21.1744 26.8529 20.5302 26.7261 20.1222C26.334 20.029 25.6946 20.2622 25.6856 19.5903C25.6766 18.904 26.3151 19.1325 26.7416 19.0252Z" fill="#1A1818"/>
</svg>
