<svg width="129" height="122" viewBox="0 0 129 122" fill="none" xmlns="http://www.w3.org/2000/svg">
<path d="M30.5102 70.1716C29.5883 66.0801 28.6845 61.9846 27.7387 57.8997C25.612 48.7061 23.4162 39.5305 21.3396 30.3262C19.5978 22.6014 24.357 17.5971 32.5934 18.6753C33.5268 14.6866 35.5475 11.346 39.7425 10.1141C43.741 8.9405 47.293 10.105 50.1599 13.0245C56.7087 8.67486 59.9201 8.96024 65.1991 14.4086C65.9467 14.0525 66.742 13.5846 67.5981 13.2844C72.3178 11.6314 76.4726 13.7532 77.7416 18.63C79.7038 26.1731 81.5123 33.7556 83.4014 41.3185C83.6308 42.2362 83.9565 43.1302 84.2196 43.9765C87.7371 44.4123 91.2314 44.4156 94.4462 45.3663C97.5121 46.2734 100.287 48.1674 104.02 50.0458C108.975 50.2703 114.954 50.5211 120.929 50.8641C121.29 50.8854 121.608 51.6388 121.871 51.9595C121.861 54.1759 120.534 54.6208 118.871 54.6315C116.405 54.6471 113.94 54.6397 111.475 54.6422C109.983 54.643 108.491 54.6422 106.549 54.6422C108.679 59.8661 109.41 64.8934 107.642 70.6009C111.426 70.6486 114.77 70.7078 118.115 70.7242C119.811 70.7333 121.49 70.6946 121.909 72.8954C121.534 74.8428 120.103 75.0558 118.492 75.0492C114.388 75.0303 110.284 75.0427 105.873 75.0427C102.532 81.0396 97.1461 84.9724 91.2939 88.5202C90.6442 90.1288 89.9814 91.7695 89.2058 93.6914C92.7134 100.277 96.2991 107.011 99.9966 113.954C99.0582 114.783 98.3016 115.453 97.1445 116.477C92.5876 110.951 90.6081 104.256 86.4031 98.4408C79.675 106.76 71.0267 110.733 60.1619 110.557C61.333 113.738 62.3619 116.533 63.4984 119.62C62.8438 120.318 62.1587 121.049 61.2672 122C57.2062 118.974 57.5747 113.94 54.8311 110.186C46.5224 108.837 39.1973 104.722 32.6107 99.1892C29.6755 96.7245 26.8604 94.1174 23.9828 91.5836C17.203 85.6146 10.4519 79.6128 3.62264 73.7013C0.0279267 70.591 -1.04448 66.1484 1.09787 62.3078C2.94499 58.9968 7.52987 56.5855 12.0761 58.3093C15.7309 59.6934 18.9234 61.7025 21.8783 64.1796C24.4746 66.3548 27.0668 68.5358 29.6607 70.7144C29.9436 70.5334 30.2273 70.3525 30.5102 70.1716ZM8.62942 62.0101C3.36112 64.275 2.95897 67.3039 7.12032 70.8493C12.4355 75.3774 17.6578 80.0157 22.8923 84.6385C27.5118 88.7184 31.9634 92.999 36.7194 96.9103C44.4944 103.304 53.336 106.868 63.6152 106.101C71.581 105.506 78.0294 102.122 82.8248 95.7039C83.3051 95.0607 83.556 94.2466 84.2682 92.7827C82.1192 94.152 80.7203 95.0089 79.3576 95.921C77.9916 96.8338 76.7004 97.8627 75.3081 98.7319C72.4058 100.542 69.131 100.211 67.0454 97.9786C64.811 95.5879 64.4869 92.4998 66.6934 89.7587C68.2963 87.7669 70.414 86.1763 72.3705 84.4855C73.3278 83.6582 74.4413 83.0117 75.9858 81.9336C67.506 81.5257 59.847 81.1868 52.192 80.7773C47.4756 80.5248 45.274 78.0929 45.3793 73.411C45.3949 72.7416 45.4401 72.073 45.464 71.5672C41.0181 66.5464 41.009 64.4164 45.3538 58.806C44.0889 55.2212 45.6794 52.5664 48.631 50.406C48.7042 49.5951 48.6903 48.7661 48.8671 47.9815C49.5834 44.798 51.396 43.256 54.6617 43.3218C62.0576 43.4731 69.4501 43.7454 76.8452 43.951C77.5911 43.9715 78.3395 43.8728 79.5122 43.8037C77.2901 34.8758 75.156 26.3014 73.0876 17.991C68.1861 16.7969 66.3998 18.3331 67.1893 22.4558C67.2921 22.9904 67.5101 23.5036 67.6326 24.0365C68.7601 28.9594 69.8786 33.8839 70.9477 38.5823C70.2158 40.3949 69.1689 40.9253 67.1425 40.0297C66.802 38.9244 66.2938 37.5387 65.95 36.1126C64.5733 30.3945 63.2056 24.673 61.9227 18.9335C61.3108 16.1965 59.8626 14.5378 57.0294 14.3519C53.1493 15.9786 52.4009 17.1415 53.0506 20.825C53.359 22.5726 53.8944 24.2791 54.2883 26.0136C55.3147 30.5285 56.3197 35.0485 57.3534 39.658C56.3739 40.3176 55.6395 40.8127 55.0663 41.2C52.9363 40.5923 52.8524 38.9738 52.512 37.5338C51.2241 32.0747 49.9543 26.6114 48.6623 21.154C48.3794 19.9557 48.1417 18.7295 47.6919 17.5922C46.6351 14.9194 44.1218 13.6126 41.4104 14.1973C38.7935 14.7615 36.9455 17.0642 37.3354 19.9977C37.7663 23.2388 38.6454 26.4223 39.379 29.619C40.8412 35.9959 42.3372 42.3654 43.82 48.739C43.1193 49.3459 42.6777 49.9027 42.1028 50.1691C41.6645 50.3723 41.0567 50.2103 40.4588 50.2103C38.6117 48.2135 38.717 45.5949 38.1125 43.2766C36.6635 37.7188 35.5335 32.0771 34.0597 26.5267C33.197 23.2791 29.8679 21.8308 27.4205 23.5809C26.3037 24.3794 25.6778 25.8647 25.0034 26.7973C25.214 27.836 25.3086 28.3714 25.4319 28.901C28.4427 41.8234 31.465 54.7433 34.4652 67.6682C35.2152 70.9011 34.6148 72.8082 32.5161 74.2005C30.4642 75.5616 28.474 75.2919 25.8234 73.1495C23.0535 70.9118 20.3799 68.5564 17.6026 66.3285C15.017 64.2536 12.2011 62.5899 8.62942 62.0101ZM70.7635 73.2466C63.5609 72.948 57.0483 72.6783 50.1722 72.3929V76.287C58.3181 76.6908 66.0495 77.0748 73.66 77.4523C77.0393 69.2332 81.0073 62.0298 87.9155 56.4054C88.8267 57.412 89.4945 58.1505 90.3663 59.1128C85.644 64.9173 80.7458 70.3237 78.5344 77.5732C80.6479 79.0371 81.7968 80.8899 80.3618 84.1565C78.7564 85.2799 76.6412 86.7537 74.5317 88.2365C72.4124 89.7267 70.2273 91.1642 69.5233 94.1972C70.2758 94.7055 70.9913 95.1874 71.7282 95.6841C79.5402 90.6996 87.191 85.9206 94.7118 80.9459C96.6206 79.6835 98.3041 77.949 99.7622 76.162C102.988 72.2095 104.742 67.5794 104.159 62.4657C103.242 54.4135 97.4118 49.1839 89.2412 48.7908C82.5419 48.4676 75.8377 48.2538 69.1343 48.0399C64.6177 47.8952 60.0986 47.7981 55.5803 47.7694C54.7719 47.7644 53.961 48.1954 53.1625 48.4215C53.7151 50.5187 55.1206 50.142 56.2876 50.2086C60.7968 50.4718 65.3069 50.7267 69.8177 50.9422C71.391 51.0154 72.8721 51.1297 73.4026 53.3189C72.9774 53.8839 72.4437 54.5953 72.044 55.1266C64.5281 55.7886 57.3436 53.9703 49.9033 54.6915V58.1843C56.7342 58.63 63.2361 59.0535 69.3835 59.4541C70.8819 61.0915 70.761 62.2354 68.9764 63.608C62.2936 63.3054 55.2152 62.9846 47.997 62.6598C47.3719 63.7067 46.844 64.5924 46.4402 65.2701C47.1746 67.8245 48.974 67.9963 50.7915 68.0654C53.9388 68.1855 57.0911 68.2069 60.2359 68.3648C63.6292 68.535 67.0166 68.8138 70.7635 69.0704V73.2466Z" fill="black"/>
<path d="M106.326 4.27833C107.394 3.54146 108.357 2.79472 109.396 2.17381C114.144 -0.665124 119.784 -0.274483 123.959 3.14177C128.327 6.71511 129.866 12.254 127.895 17.5667C127.422 18.8414 126.854 20.1153 126.119 21.2535C121.071 29.0795 114.095 34.9728 106.905 40.7173C105.906 40.3028 105.056 40.1466 104.459 39.6712C98.4412 34.8947 92.6762 29.841 88.1037 23.6039C86.8989 21.9608 85.8182 20.1745 84.9909 18.3159C82.638 13.0312 84.0418 7.1222 88.3627 3.39261C92.7182 -0.366592 98.535 -0.751476 103.59 2.40572C104.502 2.97565 105.368 3.61877 106.326 4.27833ZM105.32 10.6931C104.502 9.63957 103.737 8.50383 102.822 7.50626C99.9701 4.39347 95.9617 3.789 92.3859 5.85652C88.9203 7.86071 87.3832 11.8592 88.7024 15.7911C89.1325 17.0724 89.7896 18.3118 90.5298 19.4484C94.6878 25.8368 100.333 30.7506 106.266 35.5436C111.889 31.1503 116.967 26.595 121.024 21.0216C122.141 19.4878 123.108 17.7764 123.793 16.0107C125.692 11.1174 122.886 6.07939 117.793 4.95435C114.186 4.15826 111.346 5.40749 109.128 8.24313C108.238 9.38051 107.815 11.0944 105.32 10.6931Z" fill="black"/>
</svg>
