<svg width="50" height="70" viewBox="0 0 50 70" fill="none" xmlns="http://www.w3.org/2000/svg">
<path d="M33.0596 34.6759C31.8833 32.7469 32.9034 30.4724 32.3946 28.3044C32.0774 28.489 31.7673 28.6949 31.4336 28.8559C30.2597 29.4215 29.2278 29.1541 28.6479 28.0156C27.6018 25.966 26.4444 23.9424 25.6917 21.7838C25.1616 20.2691 25.0693 18.546 25.0622 16.9153C25.0551 14.8609 24.674 13.0503 23.5853 11.2326C21.8693 8.36634 21.4812 5.11197 21.7486 1.79607C21.7889 1.31087 21.9616 0.837506 22.0539 0.442248C23.6089 -0.151823 24.1864 0.2032 24.0941 1.68483C23.9592 3.90253 23.9758 6.09894 24.7474 8.2125C25.0716 9.10006 25.4267 10.0089 25.9474 10.7876C26.9343 12.2645 27.4952 13.8763 27.3343 15.6041C26.9887 19.3247 28.1296 22.6004 30.0206 25.7009C30.1745 25.9518 30.3141 26.2098 30.5177 26.56C31.41 25.824 31.4786 24.8867 31.4171 23.9637C31.3129 22.4158 31.1046 20.8773 30.9626 19.3318C30.7567 17.0526 31.4455 14.9461 32.5295 13.0219C33.3697 11.5331 34.9673 11.3414 36.5152 11.5568C38.2832 11.8006 39.6559 12.745 40.1009 14.5366C40.5198 16.2289 40.7139 17.9803 40.979 19.7105C41.3884 22.3803 41.7884 25.0524 42.1624 27.7293C42.2571 28.418 42.4535 28.9576 43.3576 29.2487C43.3576 28.631 43.3576 28.1482 43.3576 27.6653C43.3671 22.101 43.3458 16.5366 43.4073 10.9746C43.4286 8.98408 42.8843 7.39832 41.2488 6.13207C39.8287 5.0315 38.5743 3.71555 37.2465 2.49191C37.0619 2.3215 36.7684 2.17002 36.7258 1.96884C36.6241 1.47655 36.4442 0.851707 36.6525 0.480117C36.9909 -0.123421 37.7554 -0.142355 38.2193 0.335741C40.6737 2.86587 43.8712 4.66228 45.5233 7.99712C46.6996 10.371 48.1315 12.6171 49.4238 14.9366C50.3445 16.591 50.1693 17.6182 48.8439 18.9744C47.8286 20.0111 46.8345 21.0667 45.5966 22.359V30.6191C44.2073 31.812 42.8701 31.6179 41.476 31.0688C40.953 32.2025 41.8405 33.5966 40.7139 34.6806H33.062L33.0596 34.6759ZM33.8501 25.8666H39.566C39.0335 22.3092 38.5885 18.8916 37.985 15.5023C37.6891 13.8361 36.2122 13.3745 34.3945 14.2621C33.6845 16.1579 32.8916 18.0419 33.3602 20.2785C33.7342 22.0702 33.6963 23.9495 33.8478 25.8689L33.8501 25.8666ZM45.7434 18.4608C46.4937 17.8928 47.1753 17.3744 47.8712 16.849C47.1043 15.4857 46.5031 14.4136 45.7434 13.0621V18.4608Z" fill="black"/>
<path d="M12.8376 44.4153C12.9038 41.116 13.602 38.0794 15.8434 35.6179C18.1037 33.1374 21.0717 32.2097 24.3568 31.9185C24.5131 31.5162 24.6716 31.1091 24.9036 30.5079C25.4006 30.5292 25.9544 30.4322 26.4089 30.6026C27.1994 30.9008 27.9402 31.3434 28.6786 31.7647C29.3437 32.1434 29.5473 32.7327 29.1899 33.4238C28.8017 34.1765 26.0988 35.3883 25.0929 35.2605C24.8775 34.941 24.6361 34.5812 24.3852 34.2072C21.4315 34.5126 18.7712 35.3528 16.9511 37.8876C15.1902 40.342 15.1097 43.2106 15.0931 46.2946C12.1867 46.8673 9.37017 47.5868 7.49092 50.0886C5.67558 52.5075 5.53593 55.3595 5.446 58.3274C4.87086 58.4269 4.4117 58.5073 4.02354 58.576C2.73126 56.8742 3.30876 52.5382 5.12174 49.5276C6.86372 46.6378 9.59029 45.1822 12.8352 44.4106L12.8376 44.4153Z" fill="black"/>
<path d="M22.0871 47.6436C21.9546 47.1584 21.7155 46.6638 21.7037 46.162C21.6587 44.3135 21.6658 42.4627 21.6942 40.6142C21.7132 39.3834 22.0777 39.0142 23.3226 38.9882C25.1711 38.9527 27.0219 38.9479 28.8704 38.9976C29.3722 39.0118 29.8692 39.2746 30.281 39.4C30.7165 41.9822 30.5414 46.5857 29.9497 47.6413H22.0848L22.0871 47.6436Z" fill="black"/>
<path d="M40.8985 47.6957H32.9792C32.8277 47.2081 32.5579 46.7206 32.5437 46.2259C32.4916 44.3277 32.4987 42.4272 32.5319 40.529C32.5532 39.4024 32.9342 39.019 34.094 38.9953C35.9921 38.9551 37.8927 38.9551 39.7909 39.0119C40.2832 39.0261 40.766 39.3172 41.3411 39.5113C41.0713 42.342 41.7648 45.0614 40.8962 47.6981L40.8985 47.6957Z" fill="black"/>
<path d="M19.0363 58.5309H11.2778C11.1382 58.0126 10.885 57.4801 10.8684 56.9428C10.8163 55.1464 10.8305 53.3453 10.8518 51.5465C10.8684 50.2258 11.2281 49.8495 12.5441 49.8258C14.3429 49.7927 16.144 49.7832 17.9404 49.8353C18.4872 49.8518 19.0268 50.1027 19.4789 50.2211C19.9096 53.4944 19.7179 57.4398 19.0363 58.5286V58.5309Z" fill="black"/>
<path d="M41.1803 50.2802C41.5968 54.2991 41.4051 57.4872 40.6761 58.5097H32.9414C32.7994 58.0079 32.5532 57.5156 32.539 57.0162C32.4893 55.1677 32.5011 53.3192 32.5248 51.4708C32.5414 50.2944 32.894 49.8613 33.9922 49.8353C35.9898 49.7879 37.9898 49.8021 39.9874 49.8519C40.3921 49.8613 40.7897 50.1359 41.1803 50.2826V50.2802Z" fill="black"/>
<path d="M8.64124 61.1345C9.0649 64.0622 8.87319 68.287 8.24598 69.3237H0.485197C0.343188 68.9071 0.0520703 68.4266 0.0378694 67.9414C-0.0165673 66.0433 -0.00473399 64.1427 0.0260346 62.2445C0.0449691 61.0824 0.404726 60.6919 1.54316 60.6635C3.49105 60.6185 5.44131 60.6185 7.38919 60.673C7.83652 60.6848 8.27675 60.9925 8.64124 61.1345Z" fill="black"/>
<path d="M19.0718 69.3592H11.3418C11.1879 68.9166 10.8873 68.4408 10.8731 67.9556C10.8163 66.0575 10.8282 64.1569 10.8589 62.2587C10.8779 61.0469 11.2495 60.6824 12.5133 60.6611C14.3618 60.628 16.2127 60.6233 18.0612 60.6777C18.5605 60.6919 19.0552 60.9546 19.4647 61.0777C19.8954 63.9581 19.7108 68.261 19.0718 69.3615V69.3592Z" fill="black"/>
<path d="M30.2929 61.0825C30.7236 63.8232 30.5414 68.2729 29.9355 69.3166H22.1132C21.9688 68.8646 21.7155 68.4172 21.7037 67.9652C21.6587 66.067 21.6635 64.1664 21.6942 62.2683C21.7132 61.0446 22.0824 60.6825 23.3392 60.6588C25.1876 60.6233 27.0385 60.6162 28.887 60.6707C29.3887 60.6849 29.8834 60.957 30.2952 61.0825H30.2929Z" fill="black"/>
<path d="M41.2086 61.1723C41.5542 65.5415 41.4098 68.2326 40.7566 69.3284H33.0289C32.8774 68.9568 32.5603 68.5284 32.5484 68.0905C32.494 66.093 32.5248 64.093 32.5248 62.093C32.5248 61.17 33.0218 60.6848 33.9046 60.6706C35.9543 60.6422 38.004 60.6398 40.0512 60.6919C40.4489 60.7014 40.837 61.0114 41.2086 61.1723Z" fill="black"/>
<path d="M21.6895 50.5099C23.2255 49.5537 29.0881 49.5797 30.4207 50.4909C30.494 53.0495 30.5059 55.6979 30.4136 58.4647H22.0776C21.228 55.8589 21.8883 53.1465 21.6895 50.5099Z" fill="black"/>
</svg>
