<svg width="164" height="221" viewBox="0 0 164 221" fill="none" xmlns="http://www.w3.org/2000/svg">
<path d="M27.9978 217.417V141.398C41.8373 155.456 60.8116 164.182 81.7668 164.182C124.312 164.182 158.6 128.298 158.6 84.5889C158.6 40.8791 124.312 5 81.7668 5C61.5014 5 43.0695 13.1685 29.3611 26.4298C15.659 39.685 6.64218 58.0504 5.14722 78.5423L5.13417 78.721L5.13396 78.9002L4.9993 192.349L4.99727 194.064L6.04747 195.419C11.4818 202.429 15.5954 210.378 18.2197 218.89L27.9978 217.417ZM81.7668 28.6795C111.173 28.6795 135.426 53.5869 135.426 84.5889C135.426 115.596 111.177 140.503 81.7668 140.503C52.3568 140.503 28.104 115.591 28.104 84.5889C28.104 53.5874 52.3602 28.6795 81.7668 28.6795Z" fill="#84DDDC" stroke="white" stroke-width="10"/>
</svg>
