<svg width="164" height="221" viewBox="0 0 164 221" fill="none" xmlns="http://www.w3.org/2000/svg">
<path d="M135.601 141.398V217.417L145.379 218.89C148.003 210.378 152.117 202.429 157.551 195.419L158.602 194.064L158.6 192.349L158.465 78.9002L158.465 78.721L158.452 78.5423C156.957 58.0504 147.94 39.685 134.238 26.4298C120.529 13.1685 102.098 5 81.8321 5C39.2871 5 4.99928 40.8791 4.99928 84.5889C4.99928 128.298 39.2867 164.182 81.8321 164.182C102.787 164.182 121.762 155.456 135.601 141.398ZM28.1733 84.5889C28.1733 53.5869 52.426 28.6795 81.8321 28.6795C111.239 28.6795 135.495 53.5874 135.495 84.5889C135.495 115.591 111.242 140.503 81.8321 140.503C52.4223 140.503 28.1733 115.596 28.1733 84.5889Z" fill="#C3AAB0" stroke="white" stroke-width="10"/>
</svg>
