<svg width="241" height="188" viewBox="0 0 241 188" fill="none" xmlns="http://www.w3.org/2000/svg">
<path d="M241 86.8456C240.694 89.4137 240.34 91.9582 240.081 94.5263C239.233 102.466 238.385 110.43 237.56 118.369C236.736 126.168 236.076 133.967 235.086 141.741C234.262 148.268 234.332 154.794 234.332 161.344C234.332 169.661 234.332 177.977 234.332 186.294C234.332 186.742 234.332 187.213 234.332 187.708C230.916 187.708 227.688 187.708 224.319 187.708C224.319 175.456 224.319 163.299 224.319 151.024C213.128 151.024 202.055 151.024 190.863 151.024C190.863 163.229 190.863 175.386 190.863 187.684C187.471 187.684 184.219 187.684 180.803 187.684C180.803 173.525 180.803 159.318 180.803 144.899C178.612 145.228 176.586 145.511 174.559 145.865C174.371 145.888 174.159 146.265 174.088 146.524C174.018 146.807 174.065 147.137 174.065 147.467C174.065 160.378 174.065 173.265 174.065 186.176C174.065 186.671 174.065 187.166 174.065 187.731C169.565 187.731 165.23 187.731 160.73 187.731C160.73 177.341 160.73 166.928 160.73 156.537C160.635 156.514 160.541 156.467 160.47 156.443C160.188 156.797 159.905 157.126 159.646 157.48C153.473 166.221 147.276 174.938 141.104 183.679C137.452 188.862 130.619 189.169 127.085 184.268C124.87 181.205 124.965 177.483 127.368 174.09C131.326 168.483 135.308 162.899 139.266 157.291C144.19 150.341 149.091 143.414 154.015 136.464C156.63 132.765 156.63 132.741 160.635 130.974C160.635 129.891 160.635 128.807 160.635 127.629C133.871 127.629 107.153 127.629 80.3647 127.629C80.3412 128.053 80.3176 128.453 80.3176 128.83C80.3176 134.32 80.2941 139.809 80.3412 145.299C80.3412 145.959 80.5768 146.689 80.9302 147.255C83.6868 151.755 86.5611 156.208 89.2942 160.731C91.9801 165.161 89.3413 170.509 84.2522 170.956C83.0271 171.074 81.7312 170.65 80.3412 170.462C80.3412 176.069 80.3412 181.841 80.3412 187.708C75.8411 187.708 71.4589 187.708 66.9117 187.708C66.9117 187.19 66.9117 186.695 66.9117 186.2C66.9117 174.585 66.9117 162.993 66.8882 151.378C66.8882 150.647 66.629 149.846 66.2756 149.187C65.6159 147.938 64.6499 146.854 64.0845 145.582C63.3305 143.909 62.0583 143.485 60.2677 143.673C60.2677 158.304 60.2677 172.983 60.2677 187.731C56.875 187.731 53.6472 187.731 50.2309 187.731C50.2309 175.527 50.2309 163.323 50.2309 151.024C38.9926 151.024 27.9192 151.024 16.7279 151.024C16.7279 163.252 16.7279 175.433 16.7279 187.708C13.3588 187.708 10.0839 187.708 6.66761 187.708C6.66761 187.213 6.66761 186.766 6.66761 186.294C6.66761 175.786 6.59693 165.278 6.69117 154.77C6.76185 149.304 6.05504 143.909 5.51315 138.49C4.87702 132.105 4.1702 125.697 3.51051 119.312C2.78013 112.291 2.0262 105.293 1.29583 98.2724C0.871738 94.1493 0.424091 90.0263 0 85.8089C3.39271 85.8089 6.71473 85.8089 10.131 85.8089C10.4373 88.7304 10.7436 91.6048 11.0499 94.4792C12.0394 103.903 13.0289 113.351 14.0185 122.775C14.6075 128.43 15.2201 134.084 15.7384 139.739C15.8326 140.705 16.1154 140.988 17.0813 140.964C22.4531 140.917 27.8014 140.94 33.2203 140.799C32.8669 140.658 32.537 140.516 32.1836 140.399C28.9323 139.15 26.7883 136.181 26.7883 132.718C26.7647 123.105 26.7411 113.492 26.7883 103.903C26.8118 98.4373 31.4297 94.0551 36.9193 94.1258C42.3382 94.1729 46.7675 98.6258 46.8147 104.045C46.8147 104.422 46.8147 104.822 46.8147 105.364C47.2623 105.27 47.6157 105.246 47.9691 105.152C53.0346 103.809 58.1237 102.49 63.1892 101.147C66.841 100.181 69.6448 101.783 70.1866 105.152C70.5872 107.602 69.0793 109.911 66.4641 110.642C62.93 111.655 59.3488 112.574 55.7912 113.516C50.1131 115.047 44.4351 116.555 38.757 118.087C37.1549 118.511 36.8957 118.322 36.8957 116.65C36.8957 112.527 36.8957 108.427 36.8957 104.21C35.2465 104.21 33.6679 104.21 31.948 104.21C31.9244 104.61 31.9009 105.011 31.9009 105.435C31.9009 108.992 32.0423 112.574 31.8773 116.131C31.5946 122.186 35.4114 123.953 40.3355 122.775C42.4324 122.257 44.5057 121.715 46.5791 121.197C46.6733 121.291 46.7675 121.338 46.7675 121.385C47.1681 124.943 49.2885 126.898 52.6577 127.652C57.1577 128.665 61.6813 129.655 66.1814 130.645C66.3698 130.692 66.5583 130.645 66.8882 130.645C66.8882 125.178 66.8882 119.736 66.8882 114.246C102.629 114.246 138.229 114.246 173.994 114.246C173.994 118.558 173.994 122.893 173.994 127.417C176.515 126.733 178.824 126.097 181.133 125.438C183.324 124.825 185.515 124.212 187.683 123.6C190.651 122.752 192.395 120.49 192.442 117.38C192.442 116.367 192.442 115.354 192.442 114.199C194.727 114.199 196.895 114.176 199.086 114.223C199.698 114.223 200.075 114.105 200.382 113.516C205.306 104.469 210.277 95.4452 215.225 86.3979C215.296 86.2801 215.319 86.1152 215.413 85.8089C212.987 85.8089 210.654 85.7618 208.322 85.8561C207.992 85.8561 207.615 86.3979 207.403 86.7513C203.774 93.3247 200.146 99.9216 196.541 106.542C196.188 107.202 195.835 107.532 195.034 107.532C184.714 107.508 174.395 107.532 164.075 107.508C160.4 107.508 157.714 105.058 157.29 101.477C156.913 98.2253 159.057 95.1625 162.308 94.3614C163.015 94.1965 163.792 94.1729 164.523 94.1493C171.591 94.1258 178.635 94.1258 185.704 94.1493C186.387 94.1493 186.835 94.008 187.188 93.3483C189.379 89.2017 191.735 85.1257 193.856 80.9319C197.036 74.6413 203.892 71.225 210.607 72.7093C217.581 74.2643 222.481 80.2487 222.505 87.4346C222.552 101.359 222.529 115.283 222.505 129.207C222.505 134.626 219.042 139.126 213.835 140.611C213.576 140.681 213.34 140.776 213.128 141.011C216.874 141.011 220.62 141.035 224.366 140.964C224.625 140.964 225.073 140.422 225.097 140.092C225.78 133.896 226.393 127.699 227.052 121.503C227.877 113.587 228.725 105.67 229.55 97.7776C229.903 94.4321 230.233 91.0629 230.586 87.7173C230.657 87.1283 230.728 86.5629 230.845 85.7854C234.238 85.7854 237.584 85.7854 240.953 85.7854C241 86.0445 241 86.445 241 86.8456Z" fill="#84DDDC"/>
<path d="M171.567 0.237307C171.732 0.307987 171.921 0.402229 172.109 0.44935C177.41 1.53313 180.756 5.60909 180.756 11.0516C180.756 17.9548 180.756 24.858 180.756 31.7377C180.756 37.3686 177.716 41.2325 172.25 42.5755C172.109 42.6226 171.968 42.6697 171.661 42.7404C171.661 44.5781 171.661 46.4158 171.661 48.23C171.661 50.0206 171.661 51.8347 171.661 53.9081C170.86 53.3662 170.271 52.9656 169.659 52.5651C165.159 49.5022 160.682 46.4158 156.135 43.4001C155.57 43.0231 154.769 42.8111 154.062 42.7875C149.515 42.7404 144.967 42.7639 140.42 42.7639C133.965 42.7639 129.488 38.2875 129.465 31.8083C129.441 24.9051 129.465 18.0019 129.465 11.1222C129.465 5.51485 132.857 1.46245 138.394 0.402227C138.535 0.378666 138.677 0.284424 138.818 0.237305C149.75 0.237307 160.659 0.237307 171.567 0.237307Z" fill="#84DDDC"/>
<path d="M59.2782 77.2093C59.2782 73.9815 59.2782 70.9657 59.2782 67.9735C58.1944 67.5966 57.1106 67.3374 56.1446 66.8662C52.2807 64.9342 50.2545 61.7536 50.2074 57.4656C50.1132 50.2796 50.1132 43.1173 50.2074 35.9313C50.2781 29.8056 54.8488 25.4233 60.9981 25.4233C70.8464 25.4233 80.6946 25.4233 90.5193 25.4233C97.022 25.4233 101.451 29.8763 101.451 36.3554C101.451 43.2115 101.451 50.0676 101.451 56.9472C101.451 63.4499 97.0456 67.8793 90.5429 67.9029C85.4774 67.9264 80.4355 67.8793 75.37 67.9264C74.7103 67.9264 73.9563 68.1149 73.3909 68.4683C69.0793 71.1071 64.7913 73.793 60.5033 76.4789C60.1499 76.6909 59.8201 76.8794 59.2782 77.2093Z" fill="#84DDDC"/>
<path d="M217.557 50.5862C217.557 59.7512 210.018 67.2906 200.853 67.267C191.617 67.267 184.078 59.7512 184.078 50.5155C184.054 41.3505 191.57 33.8112 200.735 33.7876C210.112 33.7876 217.557 41.2091 217.557 50.5862Z" fill="#84DDDC"/>
<path d="M38.4273 90.6621C31.8775 90.6386 26.7413 85.3846 26.7884 78.7641C26.8355 72.4263 32.0895 67.2666 38.498 67.2666C45.0242 67.2666 50.2075 72.4735 50.184 78.9997C50.1604 85.5024 44.9535 90.6857 38.4273 90.6621Z" fill="#84DDDC"/>
</svg>
