<svg width="400" height="371" viewBox="0 0 520 371" fill="none" xmlns="http://www.w3.org/2000/svg">
<path d="M516.574 324.283H312.187C353.244 291.224 379.477 241.486 379.477 185.883C379.477 86.3006 295.401 5.60742 192.465 5.60742C89.5297 5.60742 5.46436 86.3009 5.46436 185.883C5.46436 233.348 24.5871 276.558 55.729 308.75C86.8649 340.935 130.031 362.141 178.235 365.658L178.414 365.671L178.593 365.671L455.415 366L457.13 366.002L458.484 364.952C476.285 351.154 496.457 340.717 518.047 334.061L516.574 324.283ZM48.8431 185.883C48.8431 109.901 113.1 47.7528 192.465 47.7528C271.841 47.7528 336.098 109.892 336.098 185.883C336.098 261.875 271.831 324.024 192.465 324.024C113.101 324.024 48.8431 261.866 48.8431 185.883Z" fill="#84DDDC" stroke="white" stroke-width="10"/>
</svg>
