<svg width="400" height="371" viewBox="0 0 520 371" fill="none" xmlns="http://www.w3.org/2000/svg">
<path d="M312.149 47.3246H516.536L518.009 37.5465C496.418 30.8905 476.246 20.4531 458.446 6.65559L457.091 5.60539L455.377 5.60743L178.554 5.93601L178.375 5.93622L178.197 5.94926C129.993 9.46598 86.8263 30.6719 55.6904 62.8576C24.5485 95.0495 5.42578 138.259 5.42578 185.724C5.42578 285.307 89.4911 366 192.427 366C295.362 366 379.438 285.307 379.438 185.724C379.438 130.121 353.206 80.3837 312.149 47.3246ZM192.427 323.855C113.062 323.855 48.8045 261.706 48.8045 185.724C48.8045 109.741 113.062 47.5835 192.427 47.5835C271.792 47.5835 336.059 109.732 336.059 185.724C336.059 261.716 271.803 323.855 192.427 323.855Z" fill="#C3AAB0" stroke="white" stroke-width="10"/>
</svg>
