<svg width="110" height="120" viewBox="0 0 110 120" fill="none" xmlns="http://www.w3.org/2000/svg">
<path d="M54.2444 119.994C53.3409 119.47 52.3833 119.02 51.543 118.408C49.2028 116.701 47.8357 114.408 47.7661 111.449C47.7231 109.606 47.7581 107.762 47.7581 105.309C46.3151 105.82 45.2114 105.985 44.3743 106.55C41.8434 108.258 40.5432 108.397 38.186 106.541C37.2677 105.818 36.5602 105.58 35.4889 106.491C35.4305 107.002 35.3949 107.693 35.2659 108.367C34.8696 110.439 33.4027 111.935 31.3227 112.058C28.9523 112.199 26.5617 112.199 24.1901 112.067C21.8478 111.937 20.5354 110.548 20.0531 107.99C19.8603 106.967 20.0128 105.751 18.2383 105.714C17.8973 105.987 17.441 106.384 16.9529 106.736C14.9155 108.207 13.014 108.228 11.1827 106.573C9.48092 105.037 7.86255 103.391 6.34192 101.672C4.69328 99.8091 4.71983 97.9888 6.18523 95.867C7.08285 94.5682 7.08285 94.5682 6.6999 93.0283C6.3212 92.9631 5.89842 92.8872 5.47457 92.8178C2.1672 92.2787 0.924882 90.8622 0.845212 87.4833C0.813875 86.1545 0.837776 84.8241 0.847336 83.4947C0.879205 78.9473 2.00946 77.6778 6.48532 77.182C7.23953 76.3741 7.28255 75.6453 6.59049 74.6371C4.48879 71.575 4.68372 70.1398 7.31602 67.4587C8.18229 66.5755 9.06398 65.7073 9.93929 64.8332C13.1192 61.6567 14.5676 61.5541 18.2175 64.3389C18.7774 64.0942 19.3988 63.8233 19.9384 63.5877C20.7001 58.8939 20.8945 58.7464 27.2006 57.9198C26.7624 55.1431 26.1798 52.3791 25.9169 49.5852C25.3932 44.0269 26.3051 38.6433 28.3452 33.4573C28.5683 32.8899 28.8168 32.2033 29.271 31.8913C29.7739 31.5456 30.6381 31.2945 31.1379 31.5034C31.6388 31.7128 32.1423 32.5255 32.1757 33.1015C32.2188 33.8431 31.8247 34.6226 31.5681 35.368C27.9251 45.9589 28.7382 55.9322 35.6706 65.0314C37.6528 67.6329 39.7343 70.1575 41.7723 72.7163C45.1189 76.9169 47.7077 81.4927 48.7168 86.8576C48.7795 87.191 48.9882 87.4972 49.1556 87.8749H57.7259V55.7051C56.5866 55.7051 55.5536 55.7356 54.5227 55.6971C53.4482 55.6565 52.6191 55.2173 52.5224 54.0157C52.4125 52.6505 53.292 52.0152 54.4531 51.9917C57.9745 51.9207 61.4991 51.9298 65.0211 52.0003C66.0722 52.0217 66.9501 52.6671 66.9321 53.8164C66.9119 55.0848 66.0026 55.6373 64.8038 55.7067C63.8573 55.7618 62.9098 55.7976 61.8274 55.8483V87.7782H66.6761C66.9098 87.2359 67.2168 86.528 67.5211 85.8189C69.0168 82.3342 71.375 79.5617 74.1603 77.0094C80.0468 71.6145 85.2732 65.5342 88.4844 58.1843C96.53 39.7717 84.0064 19.3453 64.0937 17.9241C58.8647 17.5511 53.727 17.7515 48.7041 19.4623C44.3727 20.937 40.5501 23.1976 37.3267 26.4692C36.9549 26.8464 36.5985 27.2434 36.1959 27.5853C35.3471 28.3083 34.4177 28.4151 33.5875 27.6222C32.7191 26.7935 32.8779 25.828 33.6332 25.0282C34.7225 23.8741 35.823 22.7114 37.0446 21.7064C49.6102 11.373 70.3807 11.2464 82.9718 21.5621C91.992 28.9526 95.0471 38.8826 94.2748 50.2269C93.8207 56.8961 91.1013 62.6815 87.0413 67.8846C85.9132 69.3304 84.7904 70.781 83.4498 72.5063C85.2647 72.5063 86.7168 72.4913 88.1684 72.5089C93.4165 72.572 97.937 74.5067 101.863 77.9412C102.259 78.2874 102.805 78.6572 102.904 79.1012C103.057 79.791 103.155 80.7981 102.779 81.2186C102.384 81.6583 101.329 81.8165 100.694 81.6348C99.9936 81.4345 99.4401 80.7105 98.8256 80.2109C93.1685 75.6084 85.2891 74.8524 78.9952 78.3093C72.4383 81.9111 68.6976 88.9409 69.7508 96.56C70.7897 104.073 75.0595 109.226 82.2935 111.508C95.4253 115.652 108.032 103.805 104.989 90.2948C104.873 89.7781 104.735 89.2663 104.605 88.7528C104.099 86.755 104.397 85.6501 105.63 85.4327C107.451 85.1115 107.813 86.5728 108.196 87.8359C109.406 91.8229 109.514 95.8339 108.39 99.8743C104.183 114.996 86.9027 120.93 74.343 111.556C73.9234 111.242 73.4948 110.941 72.6843 110.355C72.4389 115.203 70.0089 118.26 65.8778 119.994H54.2444ZM14.1963 104.224C16.0388 102.352 17.4835 100.873 20.5742 102.151C23.7015 103.443 23.7955 105.602 23.8083 108.089H31.6462C30.9547 104.606 32.5438 103.068 35.5288 102.149C37.2598 101.617 38.4851 101.395 39.729 102.87C40.1709 103.394 40.8651 103.703 41.5577 104.19C41.5577 100.891 41.5009 98.0053 41.5805 95.1238C41.6241 93.5498 41.6437 91.8924 42.1483 90.4391C42.5854 89.1824 43.6923 88.1613 44.8783 86.5152C44.4486 84.1177 43.1458 80.9269 41.0781 78.1287C37.0993 72.744 32.9995 67.4502 28.9857 62.1654H23.6319C24.2921 65.2868 22.8894 66.4964 20.3835 67.7285C17.517 69.1386 15.9942 67.7873 14.5123 66.2218C12.4691 68.1106 10.642 69.799 8.6651 71.6257C11.1418 73.4124 11.683 75.1233 10.566 78.07C9.38213 81.1914 7.18058 81.0989 4.83456 81.2758V89.0643C7.62089 88.7656 9.36301 89.262 10.7301 92.1814C12.2667 95.4631 10.2697 96.8395 8.65925 98.7795C10.5177 100.607 12.204 102.265 14.1963 104.224ZM65.5209 92.003H45.5396V101.643H66.7807C66.3563 98.3959 65.9574 95.3418 65.5209 92.003ZM68.8293 105.762H51.4304C51.4304 107.794 51.2514 109.728 51.4718 111.614C51.8064 114.477 53.7052 116.158 56.6164 116.298C58.9773 116.413 61.3546 116.418 63.7145 116.287C66.5157 116.131 68.4894 114.288 68.7926 111.49C68.9881 109.68 68.8293 107.831 68.8293 105.762Z" fill="black"/>
<path d="M89.3096 89.8161C89.3096 93.8415 89.3117 97.3369 89.308 100.833C89.3069 101.628 89.3191 102.426 89.2649 103.219C89.1858 104.367 88.4629 105.175 87.4108 104.954C86.7718 104.819 85.9061 103.884 85.8407 103.237C85.6272 101.135 85.7297 99.0013 85.7223 96.8796C85.7148 94.7814 85.7207 92.6831 85.7207 90.5849C85.5449 90.5043 85.3691 90.4241 85.1933 90.344C84.4693 91.0273 83.7465 91.7123 83.0204 92.3935C82.1345 93.2239 81.137 93.4606 80.2086 92.5859C79.2164 91.6519 79.5909 90.6507 80.4157 89.8043C82.2614 87.9108 84.1145 86.0225 86.0096 84.1786C86.9859 83.2287 88.0699 83.2468 89.0477 84.2134C90.9274 86.0733 92.7959 87.9455 94.6326 89.8481C95.4718 90.7169 95.7055 91.7802 94.7245 92.6457C93.7828 93.4766 92.7736 93.1827 91.9111 92.3316C91.1802 91.6113 90.4361 90.9044 89.3096 89.8161Z" fill="black"/>
<path d="M84.0661 8.35152C83.9147 8.62936 83.7161 9.22831 83.3305 9.65682C82.393 10.6992 81.3769 11.6717 80.3763 12.6564C79.5307 13.4883 78.5561 13.8238 77.591 12.9422C76.6079 12.0441 76.8565 11.031 77.6903 10.166C78.8461 8.96757 79.9678 7.70769 81.2691 6.68663C82.5215 5.70352 84.0284 6.51405 84.0661 8.35152Z" fill="black"/>
<path d="M37.985 6.23999C38.2553 6.36822 38.8066 6.49165 39.163 6.82559C40.3772 7.96312 41.5563 9.14446 42.6834 10.3701C43.4498 11.2031 43.5194 12.292 42.5708 12.8888C41.9908 13.2543 40.7554 13.3067 40.255 12.9209C38.8799 11.8603 37.6281 10.5839 36.5355 9.22353C35.5534 8.00052 36.3114 6.36662 37.985 6.23999Z" fill="black"/>
<path d="M58.3282 4.46605C58.3282 3.67742 58.2883 2.88665 58.3377 2.10123C58.4073 0.980796 59.0681 0.134461 60.1409 0.346045C60.7863 0.473209 61.6759 1.35 61.7582 1.98154C61.9824 3.70307 61.9819 5.49244 61.7588 7.21397C61.678 7.83964 60.79 8.69559 60.1409 8.83451C59.0426 9.06907 58.41 8.20456 58.3393 7.09375C58.2841 6.22123 58.3282 5.34231 58.3282 4.46605Z" fill="black"/>
<path d="M19.6659 85.182C19.625 80.6735 23.0912 76.9997 27.507 76.8709C31.9579 76.7416 35.7948 80.4935 35.8373 85.018C35.8803 89.5627 32.147 93.3664 27.678 93.3301C23.2415 93.2938 19.7068 89.699 19.6659 85.182ZM27.6669 80.6725C25.3002 80.6954 23.2919 82.6633 23.2388 85.0121C23.1841 87.4421 25.289 89.5606 27.7471 89.5505C30.2514 89.5398 32.1725 87.4955 32.0838 84.9352C31.9988 82.4757 30.1059 80.649 27.6669 80.6725Z" fill="black"/>
</svg>
