<svg width="60" height="59" viewBox="0 0 60 59" fill="none" xmlns="http://www.w3.org/2000/svg">
<path d="M29.2873 58.5834C27.7811 58.5834 26.2728 58.5876 24.7665 58.5834C23.2953 58.5773 22.5185 57.8169 22.5123 56.356C22.5061 54.7859 22.5164 53.2158 22.5309 51.6436C22.5412 50.634 22.2651 49.7356 21.6654 48.9093C19.9696 46.5747 18.3356 44.1948 16.6089 41.885C15.8156 40.8238 15.5272 39.7647 15.7785 38.446C16.3823 35.2604 16.8768 32.0543 17.4414 28.8625C17.7237 27.2759 19.1289 26.2663 20.6146 26.5177C22.1806 26.7835 23.182 28.164 22.9224 29.7753C22.4608 32.6415 21.9539 35.5015 21.4985 38.3677C21.4532 38.6582 21.5459 39.0394 21.7128 39.2826C22.3042 40.1356 22.9347 40.966 23.5879 41.7737C26.8229 45.7691 32.8541 45.7196 36.0355 41.6769C36.6516 40.8939 37.2615 40.1006 37.822 39.2784C37.9909 39.0312 38.094 38.6479 38.0466 38.3553C37.5891 35.5304 37.0946 32.7136 36.6083 29.8948C36.324 28.2464 37.3254 26.7835 38.9285 26.5177C40.4388 26.2663 41.8544 27.3357 42.1243 28.9346C42.6868 32.2562 43.2288 35.5839 43.8201 38.8993C44.0035 39.9234 43.7563 40.7723 43.1175 41.5594C41.1518 43.9805 39.2087 46.4223 37.2306 48.8331C36.5383 49.6779 36.1983 50.6113 36.2024 51.6972C36.2086 53.2673 36.1942 54.8374 36.1756 56.4096C36.1591 57.7943 35.3802 58.569 33.9935 58.5773C32.4234 58.5876 30.8533 58.5793 29.2811 58.5793L29.2873 58.5834Z" fill="black"/>
<path d="M38.4916 49.379C39.6558 47.9367 40.7747 46.5273 41.9348 45.1509C42.0337 45.0334 42.4293 45.0643 42.6353 45.1509C46.6822 46.824 51.374 45.0252 53.0039 41.0113C53.6014 39.538 53.8075 37.904 54.1516 36.3339C54.1948 36.1361 54.0321 35.8559 53.8961 35.6601C52.2827 33.3462 50.6631 31.0343 49.0332 28.7347C48.4728 27.9435 48.2358 27.1007 48.5181 26.155C48.8293 25.1082 49.536 24.4344 50.5931 24.216C51.6934 23.9873 52.701 24.2778 53.3706 25.2112C55.46 28.1248 57.5143 31.061 59.5625 34.0035C60.0344 34.6814 60.0879 35.4623 59.8963 36.2639C59.1854 39.231 58.4725 42.1961 57.7781 45.1674C57.6771 45.5959 57.6256 46.0472 57.6256 46.4861C57.6338 49.7541 57.6627 53.022 57.6792 56.29C57.6874 57.8498 56.9539 58.5813 55.3817 58.5834C52.326 58.5875 49.2702 58.5854 46.2145 58.5813C44.6629 58.5793 43.9541 57.8787 43.9355 56.3457C43.9211 55.2 43.8923 54.0544 43.9005 52.9087C43.9026 52.5193 43.7604 52.2988 43.4183 52.1154C41.9801 51.3427 40.5563 50.5453 39.1283 49.7541C38.9285 49.6449 38.7368 49.5233 38.4958 49.3811L38.4916 49.379Z" fill="black"/>
<path d="M20.7156 49.8407C19.2856 50.6299 17.9565 51.3779 16.611 52.097C16.2484 52.2907 16.0959 52.5091 16.1021 52.9336C16.1144 54.1431 16.0835 55.3526 16.0547 56.5621C16.0258 57.8149 15.2676 58.5732 14.0086 58.5773C10.8024 58.5876 7.59832 58.5897 4.39216 58.5773C3.08991 58.5732 2.31104 57.7717 2.3131 56.4509C2.31928 54.0092 2.28013 51.5654 2.37903 49.1278C2.4697 46.8777 2.20801 44.6997 1.61664 42.5321C1.04794 40.4489 0.604928 38.3307 0.0959804 36.229C-0.112132 35.3738 0.0135599 34.5867 0.518387 33.8676C2.51709 31.02 4.50755 28.1641 6.52686 25.3309C7.44585 24.041 9.17668 23.7649 10.4171 24.6509C11.6699 25.5431 11.9831 27.2307 11.0744 28.5473C9.43837 30.9231 7.7508 33.2659 6.11887 35.6458C5.93137 35.9199 5.85101 36.3547 5.90046 36.6885C6.04263 37.6507 6.26517 38.6027 6.47328 39.5546C7.46645 44.1063 12.253 46.8468 16.677 45.3694C17.2189 45.1881 17.4847 45.2684 17.8041 45.7424C18.7272 47.1105 19.7142 48.4375 20.7176 49.8387L20.7156 49.8407Z" fill="black"/>
<path d="M24.4328 37.7186C24.4616 34.8133 26.7797 32.5302 29.6809 32.5467C32.5986 32.5632 34.8919 34.9081 34.8734 37.8484C34.8549 40.694 32.442 43.0451 29.582 43.0018C26.6952 42.9585 24.4039 40.6075 24.4328 37.7186Z" fill="black"/>
<path d="M43.4966 43.2305C45.4377 41.374 45.4026 39.1301 44.801 36.7523C44.5846 35.893 44.4898 35.0029 44.3415 34.1354C45.9198 33.1566 48.7757 33.6594 50.3087 35.5098C52.0189 37.5744 51.918 40.6054 50.0532 42.5279C48.3059 44.3288 45.2975 44.6523 43.4987 43.2305H43.4966Z" fill="black"/>
<path d="M16.1371 43.4633C13.9859 44.6378 11.297 44.133 9.72892 42.2991C8.08669 40.3787 8.02693 37.6135 9.58674 35.6251C10.924 33.919 13.5615 33.136 15.2202 33.9643C14.9709 35.4603 14.7566 36.9686 14.4619 38.4624C14.1755 39.9069 14.429 41.1885 15.348 42.3445C15.6241 42.6906 15.861 43.0677 16.1371 43.4633Z" fill="black"/>
<path d="M48.2029 9.83773C48.0978 9.9593 48.0442 10.052 47.9639 10.1056C47.8979 10.1489 47.8032 10.1654 47.7207 10.1674C46.2557 10.2086 45.5325 10.9751 45.4603 12.4216C45.4542 12.5617 45.2667 12.6915 45.1616 12.8255C45.0606 12.6833 44.9287 12.5535 44.8669 12.3948C44.7927 12.2011 44.7804 11.9827 44.7392 11.7746C44.5414 10.7485 44.2529 10.4641 43.2267 10.2766C42.998 10.2354 42.7611 10.2169 42.5447 10.1386C42.4087 10.0891 42.3078 9.95106 42.1903 9.85216C42.3139 9.75531 42.4355 9.65435 42.5633 9.56368C42.5942 9.54102 42.6457 9.5472 42.6869 9.54514C44.0922 9.49775 44.801 8.76832 44.8649 7.36717C44.8731 7.20233 45.0668 7.04573 45.1739 6.88501C45.279 7.04573 45.3965 7.20027 45.481 7.37129C45.5345 7.48256 45.5428 7.61649 45.5634 7.74012C45.7797 8.9991 45.9796 9.20515 47.2242 9.44829C47.4323 9.4895 47.6445 9.51217 47.8423 9.58017C47.9639 9.62138 48.0587 9.73471 48.1967 9.83773H48.2029Z" fill="black"/>
<path d="M9.18702 1.81616C9.31271 1.92949 9.40749 1.98306 9.45282 2.06548C9.50228 2.15409 9.52288 2.26742 9.527 2.37044C9.59294 3.7242 10.2523 4.47423 11.6514 4.53192C11.8348 4.54017 12.0079 4.7421 12.1871 4.85543C12.0037 4.96257 11.8307 5.10063 11.6329 5.17068C11.4165 5.24898 11.1795 5.26341 10.9508 5.30668C10.1884 5.44679 9.81341 5.81769 9.66299 6.59038C9.60736 6.88091 9.5847 7.17969 9.50021 7.46198C9.459 7.6021 9.31477 7.70924 9.21586 7.83287C9.11696 7.71542 8.97066 7.61034 8.93151 7.47434C8.84085 7.17145 8.80582 6.85413 8.74607 6.54299C8.61007 5.84035 8.19385 5.42207 7.48297 5.30462C7.19037 5.25723 6.89366 5.22838 6.61137 5.1439C6.47331 5.10269 6.36823 4.95639 6.24872 4.85749C6.36411 4.76064 6.46301 4.61847 6.59695 4.57313C6.85657 4.48865 7.13268 4.4495 7.40261 4.40829C8.22681 4.2826 8.66983 3.79632 8.78315 2.98241C8.82024 2.71043 8.86558 2.43638 8.93975 2.17469C8.97272 2.05518 9.08811 1.95834 9.18908 1.81616H9.18702Z" fill="black"/>
<path d="M8.46996 16.0337C8.92121 16.1099 9.19526 16.3613 9.16023 16.8476C9.12726 17.2988 8.84909 17.5399 8.40196 17.5255C7.94865 17.5111 7.6849 17.2205 7.68696 16.792C7.68696 16.3283 7.98162 16.0667 8.46996 16.0337Z" fill="black"/>
<path d="M50.4056 17.6843C50.1377 17.8924 49.8966 18.2118 49.5978 18.2798C49.1383 18.3828 48.8251 18.0696 48.8066 17.5936C48.7881 17.1135 49.0868 16.7818 49.5443 16.8436C49.8472 16.8848 50.1109 17.198 50.3932 17.3896C50.3973 17.4885 50.4014 17.5854 50.4056 17.6843Z" fill="black"/>
<path d="M42.8538 0.981689C43.0619 1.24544 43.3895 1.48652 43.4513 1.78117C43.5482 2.23448 43.2205 2.55592 42.759 2.57653C42.2933 2.59507 41.9513 2.2963 42.0192 1.83474C42.0625 1.53391 42.3634 1.27222 42.5509 0.994052C42.6518 0.989931 42.7528 0.987871 42.8538 0.98375V0.981689Z" fill="black"/>
<path d="M51.8191 4.82041C51.6955 4.63908 51.3946 4.38152 51.341 4.08068C51.2566 3.60883 51.5966 3.32241 52.0643 3.32447C52.5032 3.32653 52.7896 3.61707 52.7958 4.04978C52.802 4.51133 52.5279 4.7895 51.8191 4.82041Z" fill="black"/>
<path d="M3.88732 10.4332C3.80284 11.1091 3.54734 11.4058 3.07548 11.3873C2.63865 11.3708 2.36666 11.0823 2.37284 10.6393C2.38109 10.1674 2.66338 9.83363 3.1373 9.93047C3.43813 9.99229 3.69158 10.2952 3.88732 10.4332Z" fill="black"/>
</svg>
