<svg width="159" height="90" viewBox="0 0 159 90" fill="none" xmlns="http://www.w3.org/2000/svg">
<path d="M56.4211 37.2108C62.9369 35.9828 63.5447 30.7773 64.7461 25.9366H83.574C83.7231 26.4964 83.8643 26.9853 83.9831 27.4794C84.9641 31.5476 87.602 33.877 91.6238 34.7287C92.2988 34.8715 93.027 35.0347 93.6884 34.9273C98.3644 34.1694 101.945 36.2939 105.581 38.8881C112.788 44.0285 120.26 48.7962 127.521 53.862C132.794 57.5398 132.566 65.0377 127.205 68.2818C124.648 69.8293 121.941 69.8809 119.206 68.7681C118.502 68.4819 117.849 68.0717 117.161 67.7126C114.406 75.5962 110.94 77.311 103.156 74.5386C102.415 78.0366 100.959 81.0555 97.2714 82.319C93.6738 83.5512 90.6606 82.1851 87.5656 79.9057C87.0772 83.2379 85.7313 85.8524 82.8536 87.3515C80.0296 88.8224 77.1686 88.5758 74.4332 87.2139C69.3137 91.5818 63.0605 90.2031 60.8786 83.1665C58.4612 83.5762 56.0922 83.3537 53.9984 81.8494C51.9156 80.3534 50.7808 78.2774 50.5593 76.3535C47.9151 75.4893 45.5196 75.0468 43.4784 73.947C41.221 72.7299 40.3776 70.3187 40.1285 67.6068C35.746 67.6094 32.2381 66.0853 30.8152 61.6637C29.6533 58.0547 30.8204 55.0102 34.1119 52.3363C32.5441 50.1164 31.0341 47.9778 29.3646 45.613C28.6698 46.3672 28.2491 46.7503 27.915 47.1981C25.4564 50.4943 22.0877 51.1036 18.6189 48.7216C16.3302 47.1506 14.1754 45.3857 11.9321 43.7475C8.15471 40.9902 4.35391 38.2647 0.369629 35.3854C1.00449 34.4087 1.59452 33.4996 2.29609 32.4202C3.13684 32.9492 3.8702 33.3553 4.54311 33.8442C9.66992 37.5694 14.7868 41.3087 19.9027 45.049C22.7569 47.136 23.5216 47.0026 25.5148 44.0947C31.6507 35.1436 37.7939 26.1983 43.9335 17.2503C45.7963 14.5352 45.6233 13.6606 42.7894 11.8566C38.6967 9.24996 34.5878 6.66883 30.3429 3.98711C31.0575 2.87324 31.6512 1.94858 32.4268 0.740372C37.7501 4.96754 44.2556 7.18068 48.8596 12.5113H110.05C114.501 7.22551 121.07 5.06762 126.444 0.730469C127.191 1.85841 127.792 2.76691 128.528 3.87817C127.013 4.89301 125.61 5.86979 124.171 6.78872C121.465 8.51711 118.726 10.1965 116.021 11.927C113.311 13.6606 113.125 14.5529 114.903 17.1476C121.138 26.242 127.378 35.3328 133.622 44.4199C135.31 46.8759 136.25 47.0532 138.715 45.2653C143.634 41.6975 148.52 38.0838 153.428 34.4994C154.337 33.8348 155.284 33.2208 156.492 32.392C157.18 33.3547 157.843 34.2841 158.63 35.386C157.365 36.284 156.235 37.0648 155.127 37.8754C150.433 41.3097 145.752 44.7624 141.053 48.1889C136.735 51.3366 133.456 50.7747 130.474 46.4251C123.651 36.4738 116.824 26.5266 109.826 16.3262H107.739C96.2737 16.3267 84.8082 16.2751 73.3448 16.3866C71.7061 16.4023 69.9386 16.9397 68.4672 17.696C64.3886 19.7918 60.4345 22.1311 56.4211 24.3797V37.2108ZM70.2628 73.8318C75.6638 75.1479 77.3682 78.82 76.4634 83.9755C78.7677 84.9893 80.6952 84.7891 82.3397 83.0732C83.7382 81.6138 84.1458 79.7968 83.2774 78.0314C82.6931 76.8435 81.6131 75.8479 80.603 74.9353C79.5443 73.9788 78.3038 73.2236 77.0862 72.3395C77.9004 71.2194 78.5061 70.3865 79.2613 69.3477C81.8878 71.2199 84.4121 73.0333 86.951 74.8258C88.6518 76.0262 90.2968 77.3329 92.1039 78.3488C94.475 79.6826 97.0712 78.9289 98.4879 76.7419C99.8634 74.6178 99.3589 71.9335 97.2208 70.2619C96.4713 69.6756 95.6389 69.195 94.845 68.6649C91.2496 66.2625 87.6542 63.8597 83.9196 61.364C84.7071 60.2163 85.3727 59.2468 86.1233 58.1527C87.2351 58.8798 88.1743 59.4688 89.0886 60.0954C94.4583 63.7752 99.7941 67.5051 105.197 71.1355C108.504 73.3575 112.409 71.8522 113.063 68.1614C113.481 65.8002 112.247 64.2079 110.395 62.9428C104.949 59.2207 99.5147 55.4804 94.082 51.7385C93.3204 51.2141 92.5923 50.6408 91.7323 50.0033C92.5032 48.9463 93.1385 48.0753 93.8641 47.0803C98.0146 49.9194 101.944 52.6095 105.876 55.2969C110.605 58.5301 115.308 61.8029 120.079 64.973C122.098 66.3147 124.462 66.0223 126.077 64.4851C127.619 63.0158 128.135 60.542 127.004 58.7636C126.379 57.7811 125.41 56.9388 124.435 56.2701C117.349 51.4106 110.151 46.7107 103.14 41.747C100.133 39.6183 97.1765 38.3997 93.3554 38.5034C87.7834 38.6551 83.5662 35.9604 81.1164 30.795C80.9016 30.3415 80.604 29.9276 80.4007 29.5888H67.9116C64.1988 39.3864 59.0303 42.814 52.639 39.7361V22.2056C55.8253 20.4204 59.0215 18.6295 62.2177 16.8385C62.1634 16.7067 62.1092 16.5753 62.0545 16.444H49.0029C43.0177 25.1782 37.0918 33.8259 31.3374 42.224C33.5824 45.2513 35.6761 48.0742 37.92 51.0995C41.7459 50.9952 44.6465 52.9993 46.5177 56.7908C48.9039 55.5033 51.2812 54.9451 53.8478 55.7671C56.5237 56.6234 58.0405 58.6797 59.2654 60.9835C64.1571 58.9059 67.3945 59.301 70.1158 62.234C72.9023 65.2362 72.9633 68.7879 70.2628 73.8318ZM59.2941 79.6498C59.8674 79.3407 61.2742 78.992 62.0326 78.0955C64.1582 75.5821 66.1185 72.9098 67.946 70.1686C69.3017 68.1364 68.623 65.562 66.6705 64.1787C64.84 62.8813 62.2552 63.0387 60.7754 64.8458C58.6879 67.3947 56.666 70.0253 54.8996 72.8008C53.0341 75.7322 55.2035 79.5414 59.2941 79.6498ZM48.6214 72.3369C49.7525 71.6333 51.0514 71.098 51.9729 70.1832C53.1285 69.0365 54.037 67.6193 54.9392 66.2443C56.3846 64.0426 55.9488 61.4954 53.9708 60.0021C51.9906 58.5066 49.4032 58.7918 47.7077 60.8339C46.5485 62.2308 45.4612 63.7106 44.523 65.2628C42.7591 68.1822 44.9733 71.945 48.6214 72.3369ZM43.0703 59.411C43.0573 56.9972 40.7607 54.7653 38.3506 54.8252C36.0916 54.8815 34.0812 56.9602 34.0853 59.2358C34.0895 61.6716 36.3292 63.8013 38.827 63.7455C41.2361 63.6918 43.0828 61.8055 43.0703 59.411ZM73.0384 81.1676C72.9607 79.1103 71.1395 77.4789 69.0557 77.5998C66.9462 77.7218 64.7055 80.2555 64.8056 82.404C64.9025 84.4873 66.7169 86.1323 68.77 85.9989C70.8132 85.8665 73.1171 83.2588 73.0384 81.1676Z" fill="black"/>
<path d="M137.367 36.5884C138.094 37.7632 138.63 38.6295 139.3 39.7132C138.244 40.3595 137.317 40.9271 136.152 41.6407C135.508 40.5893 134.941 39.6647 134.239 38.518C135.287 37.8716 136.209 37.303 137.367 36.5884Z" fill="black"/>
<path d="M19.6343 39.5157C20.4146 38.3736 20.989 37.5334 21.6999 36.493C22.7507 37.2118 23.692 37.8555 24.7559 38.5826C24.0131 39.6559 23.3991 40.5435 22.6595 41.6125C21.6149 40.8886 20.7336 40.2777 19.6343 39.5157Z" fill="black"/>
</svg>
