<svg width="50" height="41" viewBox="0 0 50 41" fill="none" xmlns="http://www.w3.org/2000/svg">
<path d="M42.8853 3.13255C42.2351 3.13255 41.685 3.14089 41.1362 3.13116C40.0845 3.1131 39.3468 2.48374 39.3412 1.61542C39.3356 0.745714 40.1442 0.0163244 41.164 0.00937786C43.0632 -0.00312595 44.9624 -0.00312595 46.8616 0.00937786C47.9674 0.0163244 48.6843 0.740156 48.6899 1.84327C48.6982 3.76608 48.6954 5.68889 48.6871 7.61031C48.6829 8.57171 48.0161 9.30805 47.1589 9.32194C46.3072 9.33584 45.6167 8.61895 45.5695 7.65894C45.5514 7.29494 45.5598 6.92955 45.5584 6.56416C45.557 6.20155 45.5584 5.84032 45.5584 5.37074C45.35 5.50272 45.2055 5.56524 45.0957 5.66666C42.2115 8.35498 39.3384 11.0544 36.4417 13.7288C36.1194 14.0275 36.1347 14.3485 36.1083 14.7083C35.986 16.3255 35.2233 17.537 33.7062 18.1496C32.1779 18.7665 30.7358 18.5136 29.5076 17.3966C28.6324 16.6006 28.2614 15.5488 28.2962 14.3818C28.3059 14.0303 28.2031 13.8581 27.9377 13.6816C25.5884 12.12 23.2432 10.5515 20.9036 8.976C20.6105 8.77872 20.3826 8.75094 20.0506 8.94405C18.8016 9.66927 17.5082 9.68872 16.2272 9.01907C15.9174 8.85791 15.6882 8.82457 15.3644 9.01213C13.029 10.3653 10.6838 11.7004 8.32896 13.0217C7.97885 13.2176 7.90105 13.4607 7.86354 13.8317C7.68849 15.6086 6.62983 16.9173 5.05991 17.3688C3.50805 17.8134 1.902 17.2938 0.879466 16.0129C-0.206976 14.6513 -0.243099 12.591 0.796107 11.2684C2.00898 9.72484 3.93457 9.21358 5.6073 10.0847C6.1269 10.3556 6.47701 10.2722 6.92298 10.0152C9.15282 8.72315 11.3882 7.43942 13.6375 6.18348C14.0321 5.96258 14.1682 5.71112 14.1919 5.27626C14.2988 3.24092 15.9813 1.66127 18.0305 1.62932C20.0228 1.59875 21.7539 3.14228 21.922 5.1415C21.9553 5.52912 22.1054 5.75558 22.411 5.95981C24.8382 7.58113 27.2597 9.2108 29.6771 10.8446C29.9772 11.0475 30.2273 11.1308 30.6066 10.9572C31.6778 10.4709 32.7795 10.489 33.852 10.9822C34.1702 11.128 34.405 11.1767 34.6981 10.9016C37.3392 8.4175 39.9942 5.9473 42.6422 3.47016C42.7075 3.40903 42.7478 3.3215 42.8812 3.12978L42.8853 3.13255Z" fill="black"/>
<path d="M42.7408 11.6685H50C50 11.8866 50 12.12 50 12.3534C50 21.5771 50 30.7994 50 40.023C50 40.751 49.9972 40.7538 49.2428 40.7538C47.27 40.7538 45.2986 40.7427 43.3257 40.7621C42.8784 40.7663 42.6936 40.6843 42.6936 40.1744C42.7103 30.8049 42.7061 21.4354 42.7089 12.0673C42.7089 11.9492 42.7269 11.8311 42.7408 11.6685Z" fill="black"/>
<path d="M21.5121 26.2979C21.5121 30.8507 21.5121 35.4035 21.5121 39.9563C21.5121 40.4879 21.2565 40.7542 20.7452 40.7551C18.8933 40.7551 17.0427 40.7607 15.1908 40.7537C14.2266 40.7496 14.2794 40.9163 14.2794 39.8701C14.2766 34.0031 14.278 28.1346 14.2794 22.2675C14.2794 18.9804 14.2794 15.6947 14.2808 12.4076C14.2808 11.6379 14.2808 11.6351 15.0157 11.6337C16.9399 11.631 18.8641 11.631 20.7897 11.6337C21.5066 11.6337 21.5121 11.6407 21.5121 12.3478C21.5135 16.9979 21.5121 21.6479 21.5121 26.2979Z" fill="black"/>
<path d="M7.31613 30.1686C7.31613 33.4558 7.31613 36.7415 7.31613 40.0286C7.31613 40.7496 7.31335 40.7538 6.62703 40.7538C4.65421 40.7552 2.67999 40.7385 0.707168 40.7649C0.194511 40.7719 -0.00138198 40.6885 7.33271e-06 40.1022C0.0236257 33.4321 0.0194578 26.7607 0.00556471 20.0906C0.00556471 19.6085 0.0917019 19.4126 0.632145 19.4209C2.6536 19.4543 4.67643 19.4556 6.69789 19.4209C7.23972 19.4126 7.32724 19.6043 7.32447 20.0878C7.30502 23.4471 7.31474 26.8065 7.31474 30.1672L7.31613 30.1686Z" fill="black"/>
<path d="M28.5032 30.7535C28.5032 27.6373 28.5032 24.5225 28.5032 21.4062C28.5032 20.6963 28.5087 20.6893 29.2228 20.6893C31.172 20.6866 33.1199 20.7032 35.0677 20.6782C35.5956 20.6713 35.7915 20.8102 35.7887 21.3715C35.7721 27.6276 35.7748 33.8836 35.786 40.1397C35.786 40.5926 35.6915 40.7774 35.1858 40.7691C33.1643 40.7399 31.1429 40.7371 29.1214 40.7691C28.5838 40.7774 28.4893 40.5857 28.4921 40.1008C28.5115 36.9846 28.5018 33.8698 28.5018 30.7535H28.5032Z" fill="black"/>
</svg>
